<?xml version="1.0" standalone="no"?>
 <!DOCTYPE svg PUBLIC "-//W3C//DTD SVG 1.1//EN" 
 "http://www.w3.org/Graphics/SVG/1.1/DTD/svg11.dtd"> 
<svg xmlns="http://www.w3.org/2000/svg" version="1.1" 
    width="14.8742cm" height="7.62762cm" viewBox="0 0 58560 30030 ">
<title>SVG Picture created as laser_drawer--brd.svg date 2013/05/11 13:56:51 </title>
  <desc>Picture generated by PCBNEW </desc>
<g style="fill:#000000; fill-opacity:1;stroke:#000000; stroke-opacity:1;
stroke-linecap:round; stroke-linejoin:round; "
 transform="translate(0 0) scale(1 1)">
</g>
<g style="fill:#C2C200; fill-opacity:0.0; 
stroke:#C2C200; stroke-width:78.7402; stroke-opacity:1; 
stroke-linecap:round; stroke-linejoin:round;">
<path d="M32260 10519
L42260 10519
" />
<path d="M27260 13519
L27260 12019
" />
<path d="M27260 10519
L17260 10519
" />
<path d="M24260 17019
L29260 17019
" />
<path d="M27260 19519
L37260 19519
" />
<path d="M9260 14769
L14260 14769
" />
</g>
<g style="fill:#C2C200; fill-opacity:0.0; 
stroke:#C2C200; stroke-width:39.3701; stroke-opacity:1; 
stroke-linecap:round; stroke-linejoin:round;">
<path d="M3010 19
L3010 769
" />
<path d="M56760 19
L3010 19
" />
<path d="M56760 30019
L56760 19
" />
<path d="M3010 30019
L56760 30019
" />
<path d="M3010 519
L3010 30019
" />
</g>
<g style="fill:#008484; fill-opacity:0.0; 
stroke:#008484; stroke-width:59.0551; stroke-opacity:1; 
stroke-linecap:round; stroke-linejoin:round;">
<path d="M30744 15054
L31006 15447
" />
<path d="M31006 15054
L30744 15447
" />
<path d="M31156 15447
L31156 15054
L31306 15054
L31344 15072
L31363 15091
L31381 15129
L31381 15185
L31363 15222
L31344 15241
L31306 15260
L31156 15260
" />
<path d="M31756 15447
L31531 15447
" />
<path d="M31644 15447
L31644 15054
L31606 15110
L31569 15147
L31531 15166
" />
<path d="M27504 14204
L27766 14597
" />
<path d="M27766 14204
L27504 14597
" />
<path d="M27916 14597
L27916 14204
L28066 14204
L28104 14222
L28122 14241
L28141 14279
L28141 14335
L28122 14372
L28104 14391
L28066 14410
L27916 14410
" />
<path d="M28310 14447
L28610 14447
" />
<path d="M28797 14597
L28797 14204
L28947 14204
L28985 14222
L29003 14241
L29022 14279
L29022 14335
L29003 14372
L28985 14391
L28947 14410
L28797 14410
" />
<path d="M29266 14204
L29341 14204
L29378 14222
L29416 14260
L29435 14335
L29435 14466
L29416 14541
L29378 14579
L29341 14597
L29266 14597
L29228 14579
L29191 14541
L29172 14466
L29172 14335
L29191 14260
L29228 14222
L29266 14204
" />
<path d="M29566 14204
L29660 14597
L29735 14316
L29810 14597
L29903 14204
" />
<path d="M30053 14391
L30185 14391
" />
<path d="M30241 14597
L30053 14597
L30053 14204
L30241 14204
" />
<path d="M30634 14597
L30503 14410
" />
<path d="M30410 14597
L30410 14204
L30560 14204
L30597 14222
L30616 14241
L30634 14279
L30634 14335
L30616 14372
L30597 14391
L30560 14410
L30410 14410
" />
<path d="M30803 14447
L31103 14447
" />
<path d="M31291 14597
L31291 14204
" />
<path d="M31478 14597
L31478 14204
" />
<path d="M31478 14391
L31703 14391
" />
<path d="M31703 14597
L31703 14204
" />
<path d="M31966 14204
L32003 14204
L32041 14222
L32059 14241
L32078 14279
L32097 14354
L32097 14447
L32078 14522
L32059 14560
L32041 14579
L32003 14597
L31966 14597
L31928 14579
L31909 14560
L31891 14522
L31872 14447
L31872 14354
L31891 14279
L31909 14241
L31928 14222
L31966 14204
" />
<path d="M32453 14204
L32266 14204
L32247 14391
L32266 14372
L32303 14354
L32397 14354
L32434 14372
L32453 14391
L32472 14429
L32472 14522
L32453 14560
L32434 14579
L32397 14597
L32303 14597
L32266 14579
L32247 14560
" />
<path d="M32715 14204
L32753 14204
L32790 14222
L32809 14241
L32828 14279
L32847 14354
L32847 14447
L32828 14522
L32809 14560
L32790 14579
L32753 14597
L32715 14597
L32678 14579
L32659 14560
L32640 14522
L32622 14447
L32622 14354
L32640 14279
L32659 14241
L32678 14222
L32715 14204
" />
<path d="M33034 14597
L33109 14597
L33147 14579
L33165 14560
L33203 14504
L33222 14429
L33222 14279
L33203 14241
L33184 14222
L33147 14204
L33072 14204
L33034 14222
L33015 14241
L32997 14279
L32997 14372
L33015 14410
L33034 14429
L33072 14447
L33147 14447
L33184 14429
L33203 14410
L33222 14372
" />
<path d="M33372 14579
L33428 14597
L33522 14597
L33559 14579
L33578 14560
L33597 14522
L33597 14485
L33578 14447
L33559 14429
L33522 14410
L33447 14391
L33409 14372
L33390 14354
L33372 14316
L33372 14279
L33390 14241
L33409 14222
L33447 14204
L33540 14204
L33597 14222
" />
<path d="M26181 12804
L26181 13085
L26163 13141
L26125 13179
L26069 13197
L26031 13197
" />
<path d="M26369 13197
L26369 12804
L26519 12804
L26556 12822
L26575 12841
L26594 12879
L26594 12935
L26575 12972
L26556 12991
L26519 13010
L26369 13010
" />
<path d="M26931 12935
L26931 13197
" />
<path d="M26838 12785
L26744 13066
L26988 13066
" />
</g>
<g style="fill:#008484; fill-opacity:0.0; 
stroke:#008484; stroke-width:60; stroke-opacity:1; 
stroke-linecap:round; stroke-linejoin:round;">
<path d="M31538 11405
L31538 11105
L31652 11105
L31681 11119
L31695 11133
L31710 11162
L31710 11205
L31695 11233
L31681 11248
L31652 11262
L31538 11262
" />
<path d="M31967 11205
L31967 11405
" />
<path d="M31895 11091
L31824 11305
L32010 11305
" />
<path d="M38288 17405
L38288 17105
L38402 17105
L38431 17119
L38445 17133
L38460 17162
L38460 17205
L38445 17233
L38431 17248
L38402 17262
L38288 17262
" />
<path d="M38745 17405
L38574 17405
" />
<path d="M38660 17405
L38660 17105
L38631 17148
L38602 17176
L38574 17191
" />
</g>
<g style="fill:#008484; fill-opacity:0.0; 
stroke:#008484; stroke-width:80; stroke-opacity:1; 
stroke-linecap:round; stroke-linejoin:round;">
<path d="M35667 20245
L35667 20650
L35688 20698
L35710 20722
L35752 20745
L35838 20745
L35881 20722
L35902 20698
L35924 20650
L35924 20245
" />
<path d="M36374 20745
L36117 20745
" />
<path d="M36245 20745
L36245 20245
L36202 20317
L36160 20364
L36117 20388
" />
<path d="M35986 23076
L35486 23076
L35986 22848
L35486 22848
" />
<path d="M35724 22657
L35724 22524
" />
<path d="M35986 22467
L35986 22657
L35486 22657
L35486 22467
" />
<path d="M35486 22105
L35486 22295
L35724 22314
L35700 22295
L35676 22257
L35676 22162
L35700 22124
L35724 22105
L35771 22086
L35890 22086
L35938 22105
L35962 22124
L35986 22162
L35986 22257
L35962 22295
L35938 22314
" />
<path d="M35486 21724
L35486 21914
L35724 21933
L35700 21914
L35676 21876
L35676 21781
L35700 21743
L35724 21724
L35771 21705
L35890 21705
L35938 21724
L35962 21743
L35986 21781
L35986 21876
L35962 21914
L35938 21933
" />
<path d="M35486 21572
L35486 21324
L35676 21457
L35676 21400
L35700 21362
L35724 21343
L35771 21324
L35890 21324
L35938 21343
L35962 21362
L35986 21400
L35986 21514
L35962 21553
L35938 21572
" />
<path d="M35533 21172
L35510 21153
L35486 21114
L35486 21019
L35510 20981
L35533 20962
L35581 20943
L35629 20943
L35700 20962
L35986 21191
L35986 20943
" />
<path d="M38193 24662
L38174 24681
L38117 24700
L38079 24700
L38021 24681
L37983 24643
L37964 24605
L37945 24529
L37945 24472
L37964 24395
L37983 24357
L38021 24319
L38079 24300
L38117 24300
L38174 24319
L38193 24338
" />
<path d="M38574 24700
L38345 24700
" />
<path d="M38460 24700
L38460 24300
L38421 24357
L38383 24395
L38345 24414
" />
<path d="M40408 19900
L40408 19995
L40435 20043
L40461 20067
L40539 20114
L40644 20138
L40854 20138
L40906 20114
L40932 20091
L40958 20043
L40958 19948
L40932 19900
L40906 19876
L40854 19853
L40723 19853
L40670 19876
L40644 19900
L40618 19948
L40618 20043
L40644 20091
L40670 20114
L40723 20138
" />
<path d="M40592 19424
L40958 19424
" />
<path d="M40382 19543
L40775 19662
L40775 19353
" />
<path d="M40958 19138
L40958 19043
L40932 18995
L40906 18972
L40827 18924
L40723 18900
L40513 18900
L40461 18924
L40435 18948
L40408 18995
L40408 19091
L40435 19138
L40461 19162
L40513 19186
L40644 19186
L40696 19162
L40723 19138
L40749 19091
L40749 18995
L40723 18948
L40696 18924
L40644 18900
" />
<path d="M30458 24353
L30458 24638
" />
<path d="M30458 24495
L29908 24495
L29987 24543
L30039 24591
L30065 24638
" />
<path d="M29908 24043
L29908 23995
L29935 23948
L29961 23924
L30013 23900
L30118 23876
L30249 23876
L30354 23900
L30406 23924
L30432 23948
L30458 23995
L30458 24043
L30432 24091
L30406 24114
L30354 24138
L30249 24162
L30118 24162
L30013 24138
L29961 24114
L29935 24091
L29908 24043
" />
<path d="M29908 23567
L29908 23519
L29935 23472
L29961 23448
L30013 23424
L30118 23400
L30249 23400
L30354 23424
L30406 23448
L30432 23472
L30458 23519
L30458 23567
L30432 23614
L30406 23638
L30354 23662
L30249 23686
L30118 23686
L30013 23662
L29961 23638
L29935 23614
L29908 23567
" />
<path d="M35426 27268
L35140 27268
" />
<path d="M35283 27268
L35283 26718
L35236 26797
L35188 26849
L35140 26875
" />
<path d="M35736 26718
L35783 26718
L35831 26744
L35855 26770
L35879 26823
L35902 26928
L35902 27058
L35879 27163
L35855 27216
L35831 27242
L35783 27268
L35736 27268
L35688 27242
L35664 27216
L35640 27163
L35617 27058
L35617 26928
L35640 26823
L35664 26770
L35688 26744
L35736 26718
" />
<path d="M36212 26718
L36260 26718
L36307 26744
L36331 26770
L36355 26823
L36379 26928
L36379 27058
L36355 27163
L36331 27216
L36307 27242
L36260 27268
L36212 27268
L36164 27242
L36140 27216
L36117 27163
L36093 27058
L36093 26928
L36117 26823
L36140 26770
L36164 26744
L36212 26718
" />
<path d="M35462 24768
L35176 24768
" />
<path d="M35319 24768
L35319 24218
L35271 24297
L35224 24349
L35176 24375
" />
<path d="M35771 24218
L35819 24218
L35867 24244
L35890 24270
L35914 24323
L35938 24428
L35938 24558
L35914 24663
L35890 24716
L35867 24742
L35819 24768
L35771 24768
L35724 24742
L35700 24716
L35676 24663
L35652 24558
L35652 24428
L35676 24323
L35700 24270
L35724 24244
L35771 24218
" />
<path d="M36152 24768
L36152 24218
" />
<path d="M36200 24558
L36343 24768
" />
<path d="M36343 24401
L36152 24611
" />
<path d="M31462 21718
L31176 21718
" />
<path d="M31319 21718
L31319 21168
L31271 21247
L31224 21299
L31176 21325
" />
<path d="M31771 21168
L31819 21168
L31867 21194
L31890 21220
L31914 21273
L31938 21378
L31938 21508
L31914 21613
L31890 21666
L31867 21692
L31819 21718
L31771 21718
L31724 21692
L31700 21666
L31676 21613
L31652 21508
L31652 21378
L31676 21273
L31700 21220
L31724 21194
L31771 21168
" />
<path d="M32152 21718
L32152 21168
" />
<path d="M32200 21508
L32343 21718
" />
<path d="M32343 21351
L32152 21561
" />
<path d="M38002 19912
L37983 19931
L37926 19950
L37888 19950
L37831 19931
L37793 19893
L37774 19855
L37755 19779
L37755 19722
L37774 19645
L37793 19607
L37831 19569
L37888 19550
L37926 19550
L37983 19569
L38002 19588
" />
<path d="M38383 19950
L38155 19950
" />
<path d="M38269 19950
L38269 19550
L38231 19607
L38193 19645
L38155 19664
" />
<path d="M38726 19550
L38650 19550
L38612 19569
L38593 19588
L38555 19645
L38536 19722
L38536 19874
L38555 19912
L38574 19931
L38612 19950
L38688 19950
L38726 19931
L38745 19912
L38764 19874
L38764 19779
L38745 19741
L38726 19722
L38688 19703
L38612 19703
L38574 19722
L38555 19741
L38536 19779
" />
<path d="M23002 20412
L22983 20431
L22926 20450
L22888 20450
L22831 20431
L22793 20393
L22774 20355
L22755 20279
L22755 20222
L22774 20145
L22793 20107
L22831 20069
L22888 20050
L22926 20050
L22983 20069
L23002 20088
" />
<path d="M23383 20450
L23155 20450
" />
<path d="M23269 20450
L23269 20050
L23231 20107
L23193 20145
L23155 20164
" />
<path d="M23517 20050
L23783 20050
L23612 20450
" />
<path d="M22462 8818
L22176 8818
" />
<path d="M22319 8818
L22319 8268
L22271 8347
L22224 8399
L22176 8425
" />
<path d="M22771 8268
L22819 8268
L22867 8294
L22890 8320
L22914 8373
L22938 8478
L22938 8608
L22914 8713
L22890 8766
L22867 8792
L22819 8818
L22771 8818
L22724 8792
L22700 8766
L22676 8713
L22652 8608
L22652 8478
L22676 8373
L22700 8320
L22724 8294
L22771 8268
" />
<path d="M23152 8818
L23152 8268
" />
<path d="M23200 8608
L23343 8818
" />
<path d="M23343 8451
L23152 8661
" />
<path d="M38958 6353
L38958 6638
" />
<path d="M38958 6495
L38408 6495
L38487 6543
L38539 6591
L38565 6638
" />
<path d="M38408 6043
L38408 5995
L38435 5948
L38461 5924
L38513 5900
L38618 5876
L38749 5876
L38854 5900
L38906 5924
L38932 5948
L38958 5995
L38958 6043
L38932 6091
L38906 6114
L38854 6138
L38749 6162
L38618 6162
L38513 6138
L38461 6114
L38435 6091
L38408 6043
" />
<path d="M38408 5567
L38408 5519
L38435 5472
L38461 5448
L38513 5424
L38618 5400
L38749 5400
L38854 5424
L38906 5448
L38932 5472
L38958 5519
L38958 5567
L38932 5614
L38906 5638
L38854 5662
L38749 5686
L38618 5686
L38513 5662
L38461 5638
L38435 5614
L38408 5567
" />
<path d="M43008 10900
L43008 10995
L43035 11043
L43061 11067
L43139 11114
L43244 11138
L43454 11138
L43506 11114
L43532 11091
L43558 11043
L43558 10948
L43532 10900
L43506 10876
L43454 10853
L43323 10853
L43270 10876
L43244 10900
L43218 10948
L43218 11043
L43244 11091
L43270 11114
L43323 11138
" />
<path d="M43192 10424
L43558 10424
" />
<path d="M42982 10543
L43375 10662
L43375 10353
" />
<path d="M43558 10138
L43558 10043
L43532 9995
L43506 9972
L43427 9924
L43323 9900
L43113 9900
L43061 9924
L43035 9948
L43008 9995
L43008 10091
L43035 10138
L43061 10162
L43113 10186
L43244 10186
L43296 10162
L43323 10138
L43349 10091
L43349 9995
L43323 9948
L43296 9924
L43244 9900
" />
<path d="M37462 8818
L37176 8818
" />
<path d="M37319 8818
L37319 8268
L37271 8347
L37224 8399
L37176 8425
" />
<path d="M37771 8268
L37819 8268
L37867 8294
L37890 8320
L37914 8373
L37938 8478
L37938 8608
L37914 8713
L37890 8766
L37867 8792
L37819 8818
L37771 8818
L37724 8792
L37700 8766
L37676 8713
L37652 8608
L37652 8478
L37676 8373
L37700 8320
L37724 8294
L37771 8268
" />
<path d="M38152 8818
L38152 8268
" />
<path d="M38200 8608
L38343 8818
" />
<path d="M38343 8451
L38152 8661
" />
<path d="M33462 5818
L33176 5818
" />
<path d="M33319 5818
L33319 5268
L33271 5347
L33224 5399
L33176 5425
" />
<path d="M33771 5268
L33819 5268
L33867 5294
L33890 5320
L33914 5373
L33938 5478
L33938 5608
L33914 5713
L33890 5766
L33867 5792
L33819 5818
L33771 5818
L33724 5792
L33700 5766
L33676 5713
L33652 5608
L33652 5478
L33676 5373
L33700 5320
L33724 5294
L33771 5268
" />
<path d="M34152 5818
L34152 5268
" />
<path d="M34200 5608
L34343 5818
" />
<path d="M34343 5451
L34152 5661
" />
<path d="M28508 10900
L28508 10995
L28535 11043
L28561 11067
L28639 11114
L28744 11138
L28954 11138
L29006 11114
L29032 11091
L29058 11043
L29058 10948
L29032 10900
L29006 10876
L28954 10853
L28823 10853
L28770 10876
L28744 10900
L28718 10948
L28718 11043
L28744 11091
L28770 11114
L28823 11138
" />
<path d="M28692 10424
L29058 10424
" />
<path d="M28482 10543
L28875 10662
L28875 10353
" />
<path d="M29058 10138
L29058 10043
L29032 9995
L29006 9972
L28927 9924
L28823 9900
L28613 9900
L28561 9924
L28535 9948
L28508 9995
L28508 10091
L28535 10138
L28561 10162
L28613 10186
L28744 10186
L28796 10162
L28823 10138
L28849 10091
L28849 9995
L28823 9948
L28796 9924
L28744 9900
" />
<path d="M24558 6353
L24558 6638
" />
<path d="M24558 6495
L24008 6495
L24087 6543
L24139 6591
L24165 6638
" />
<path d="M24008 6043
L24008 5995
L24035 5948
L24061 5924
L24113 5900
L24218 5876
L24349 5876
L24454 5900
L24506 5924
L24532 5948
L24558 5995
L24558 6043
L24532 6091
L24506 6114
L24454 6138
L24349 6162
L24218 6162
L24113 6138
L24061 6114
L24035 6091
L24008 6043
" />
<path d="M24008 5567
L24008 5519
L24035 5472
L24061 5448
L24113 5424
L24218 5400
L24349 5400
L24454 5424
L24506 5448
L24532 5472
L24558 5519
L24558 5567
L24532 5614
L24506 5638
L24454 5662
L24349 5686
L24218 5686
L24113 5662
L24061 5638
L24035 5614
L24008 5567
" />
<path d="M47962 5818
L47676 5818
" />
<path d="M47819 5818
L47819 5268
L47771 5347
L47724 5399
L47676 5425
" />
<path d="M48271 5268
L48319 5268
L48367 5294
L48390 5320
L48414 5373
L48438 5478
L48438 5608
L48414 5713
L48390 5766
L48367 5792
L48319 5818
L48271 5818
L48224 5792
L48200 5766
L48176 5713
L48152 5608
L48152 5478
L48176 5373
L48200 5320
L48224 5294
L48271 5268
" />
<path d="M48652 5818
L48652 5268
" />
<path d="M48700 5608
L48843 5818
" />
<path d="M48843 5451
L48652 5661
" />
<path d="M18462 5818
L18176 5818
" />
<path d="M18319 5818
L18319 5268
L18271 5347
L18224 5399
L18176 5425
" />
<path d="M18771 5268
L18819 5268
L18867 5294
L18890 5320
L18914 5373
L18938 5478
L18938 5608
L18914 5713
L18890 5766
L18867 5792
L18819 5818
L18771 5818
L18724 5792
L18700 5766
L18676 5713
L18652 5608
L18652 5478
L18676 5373
L18700 5320
L18724 5294
L18771 5268
" />
<path d="M19152 5818
L19152 5268
" />
<path d="M19200 5608
L19343 5818
" />
<path d="M19343 5451
L19152 5661
" />
<path d="M13508 10900
L13508 10995
L13535 11043
L13561 11067
L13639 11114
L13744 11138
L13954 11138
L14006 11114
L14032 11091
L14058 11043
L14058 10948
L14032 10900
L14006 10876
L13954 10853
L13823 10853
L13770 10876
L13744 10900
L13718 10948
L13718 11043
L13744 11091
L13770 11114
L13823 11138
" />
<path d="M13692 10424
L14058 10424
" />
<path d="M13482 10543
L13875 10662
L13875 10353
" />
<path d="M14058 10138
L14058 10043
L14032 9995
L14006 9972
L13927 9924
L13823 9900
L13613 9900
L13561 9924
L13535 9948
L13508 9995
L13508 10091
L13535 10138
L13561 10162
L13613 10186
L13744 10186
L13796 10162
L13823 10138
L13849 10091
L13849 9995
L13823 9948
L13796 9924
L13744 9900
" />
<path d="M51962 8818
L51676 8818
" />
<path d="M51819 8818
L51819 8268
L51771 8347
L51724 8399
L51676 8425
" />
<path d="M52271 8268
L52319 8268
L52367 8294
L52390 8320
L52414 8373
L52438 8478
L52438 8608
L52414 8713
L52390 8766
L52367 8792
L52319 8818
L52271 8818
L52224 8792
L52200 8766
L52176 8713
L52152 8608
L52152 8478
L52176 8373
L52200 8320
L52224 8294
L52271 8268
" />
<path d="M52652 8818
L52652 8268
" />
<path d="M52700 8608
L52843 8818
" />
<path d="M52843 8451
L52652 8661
" />
<path d="M22458 27853
L22458 28138
" />
<path d="M22458 27995
L21908 27995
L21987 28043
L22039 28091
L22065 28138
" />
<path d="M21908 27543
L21908 27495
L21935 27448
L21961 27424
L22013 27400
L22118 27376
L22249 27376
L22354 27400
L22406 27424
L22432 27448
L22458 27495
L22458 27543
L22432 27591
L22406 27614
L22354 27638
L22249 27662
L22118 27662
L22013 27638
L21961 27614
L21935 27591
L21908 27543
" />
<path d="M21908 27067
L21908 27019
L21935 26972
L21961 26948
L22013 26924
L22118 26900
L22249 26900
L22354 26924
L22406 26948
L22432 26972
L22458 27019
L22458 27067
L22432 27114
L22406 27138
L22354 27162
L22249 27186
L22118 27186
L22013 27162
L21961 27138
L21935 27114
L21908 27067
" />
<path d="M15458 24853
L15458 25138
" />
<path d="M15458 24995
L14908 24995
L14987 25043
L15039 25091
L15065 25138
" />
<path d="M14908 24543
L14908 24495
L14935 24448
L14961 24424
L15013 24400
L15118 24376
L15249 24376
L15354 24400
L15406 24424
L15432 24448
L15458 24495
L15458 24543
L15432 24591
L15406 24614
L15354 24638
L15249 24662
L15118 24662
L15013 24638
L14961 24614
L14935 24591
L14908 24543
" />
<path d="M14908 24067
L14908 24019
L14935 23972
L14961 23948
L15013 23924
L15118 23900
L15249 23900
L15354 23924
L15406 23948
L15432 23972
L15458 24019
L15458 24067
L15432 24114
L15406 24138
L15354 24162
L15249 24186
L15118 24186
L15013 24162
L14961 24138
L14935 24114
L14908 24067
" />
<path d="M54058 6353
L54058 6638
" />
<path d="M54058 6495
L53508 6495
L53587 6543
L53639 6591
L53665 6638
" />
<path d="M53508 6043
L53508 5995
L53535 5948
L53561 5924
L53613 5900
L53718 5876
L53849 5876
L53954 5900
L54006 5924
L54032 5948
L54058 5995
L54058 6043
L54032 6091
L54006 6114
L53954 6138
L53849 6162
L53718 6162
L53613 6138
L53561 6114
L53535 6091
L53508 6043
" />
<path d="M53508 5567
L53508 5519
L53535 5472
L53561 5448
L53613 5424
L53718 5400
L53849 5400
L53954 5424
L54006 5448
L54032 5472
L54058 5519
L54058 5567
L54032 5614
L54006 5638
L53954 5662
L53849 5686
L53718 5686
L53613 5662
L53561 5638
L53535 5614
L53508 5567
" />
<path d="M46058 3353
L46058 3638
" />
<path d="M46058 3495
L45508 3495
L45587 3543
L45639 3591
L45665 3638
" />
<path d="M45508 3043
L45508 2995
L45535 2948
L45561 2924
L45613 2900
L45718 2876
L45849 2876
L45954 2900
L46006 2924
L46032 2948
L46058 2995
L46058 3043
L46032 3091
L46006 3114
L45954 3138
L45849 3162
L45718 3162
L45613 3138
L45561 3114
L45535 3091
L45508 3043
" />
<path d="M45508 2567
L45508 2519
L45535 2472
L45561 2448
L45613 2424
L45718 2400
L45849 2400
L45954 2424
L46006 2448
L46032 2472
L46058 2519
L46058 2567
L46032 2614
L46006 2638
L45954 2662
L45849 2686
L45718 2686
L45613 2662
L45561 2638
L45535 2614
L45508 2567
" />
<path d="M16462 22268
L16176 22268
" />
<path d="M16319 22268
L16319 21718
L16271 21797
L16224 21849
L16176 21875
" />
<path d="M16771 21718
L16819 21718
L16867 21744
L16890 21770
L16914 21823
L16938 21928
L16938 22058
L16914 22163
L16890 22216
L16867 22242
L16819 22268
L16771 22268
L16724 22242
L16700 22216
L16676 22163
L16652 22058
L16652 21928
L16676 21823
L16700 21770
L16724 21744
L16771 21718
" />
<path d="M17152 22268
L17152 21718
" />
<path d="M17200 22058
L17343 22268
" />
<path d="M17343 21901
L17152 22111
" />
<path d="M20462 25218
L20176 25218
" />
<path d="M20319 25218
L20319 24668
L20271 24747
L20224 24799
L20176 24825
" />
<path d="M20771 24668
L20819 24668
L20867 24694
L20890 24720
L20914 24773
L20938 24878
L20938 25008
L20914 25113
L20890 25166
L20867 25192
L20819 25218
L20771 25218
L20724 25192
L20700 25166
L20676 25113
L20652 25008
L20652 24878
L20676 24773
L20700 24720
L20724 24694
L20771 24668
" />
<path d="M21152 25218
L21152 24668
" />
<path d="M21200 25008
L21343 25218
" />
<path d="M21343 24851
L21152 25061
" />
<path d="M24158 19900
L24158 19995
L24185 20043
L24211 20067
L24289 20114
L24394 20138
L24604 20138
L24656 20114
L24682 20091
L24708 20043
L24708 19948
L24682 19900
L24656 19876
L24604 19853
L24473 19853
L24420 19876
L24394 19900
L24368 19948
L24368 20043
L24394 20091
L24420 20114
L24473 20138
" />
<path d="M24342 19424
L24708 19424
" />
<path d="M24132 19543
L24525 19662
L24525 19353
" />
<path d="M24708 19138
L24708 19043
L24682 18995
L24656 18972
L24577 18924
L24473 18900
L24263 18900
L24211 18924
L24185 18948
L24158 18995
L24158 19091
L24185 19138
L24211 19162
L24263 19186
L24394 19186
L24446 19162
L24473 19138
L24499 19091
L24499 18995
L24473 18948
L24446 18924
L24394 18900
" />
</g>
<g style="fill:#008484; fill-opacity:0.0; 
stroke:#008484; stroke-width:60; stroke-opacity:1; 
stroke-linecap:round; stroke-linejoin:round;">
<path d="M46538 11405
L46538 11105
L46652 11105
L46681 11119
L46695 11133
L46710 11162
L46710 11205
L46695 11233
L46681 11248
L46652 11262
L46538 11262
" />
<path d="M46981 11105
L46838 11105
L46824 11248
L46838 11233
L46867 11219
L46938 11219
L46967 11233
L46981 11248
L46995 11276
L46995 11348
L46981 11376
L46967 11391
L46938 11405
L46867 11405
L46838 11391
L46824 11376
" />
<path d="M21788 17405
L21788 17105
L21902 17105
L21931 17119
L21945 17133
L21960 17162
L21960 17205
L21945 17233
L21931 17248
L21902 17262
L21788 17262
" />
<path d="M22074 17133
L22088 17119
L22117 17105
L22188 17105
L22217 17119
L22231 17133
L22245 17162
L22245 17191
L22231 17233
L22060 17405
L22245 17405
" />
</g>
<g style="fill:#008484; fill-opacity:0.0; 
stroke:#008484; stroke-width:80; stroke-opacity:1; 
stroke-linecap:round; stroke-linejoin:round;">
<path d="M32917 9495
L32917 9900
L32938 9948
L32960 9972
L33002 9995
L33088 9995
L33131 9972
L33152 9948
L33174 9900
L33174 9495
" />
<path d="M33581 9662
L33581 9995
" />
<path d="M33474 9472
L33367 9829
L33645 9829
" />
<path d="M33986 9076
L33486 9076
L33986 8848
L33486 8848
" />
<path d="M33724 8657
L33724 8524
" />
<path d="M33986 8467
L33986 8657
L33486 8657
L33486 8467
" />
<path d="M33486 8105
L33486 8295
L33724 8314
L33700 8295
L33676 8257
L33676 8162
L33700 8124
L33724 8105
L33771 8086
L33890 8086
L33938 8105
L33962 8124
L33986 8162
L33986 8257
L33962 8295
L33938 8314
" />
<path d="M33486 7724
L33486 7914
L33724 7933
L33700 7914
L33676 7876
L33676 7781
L33700 7743
L33724 7724
L33771 7705
L33890 7705
L33938 7724
L33962 7743
L33986 7781
L33986 7876
L33962 7914
L33938 7933
" />
<path d="M33486 7572
L33486 7324
L33676 7457
L33676 7400
L33700 7362
L33724 7343
L33771 7324
L33890 7324
L33938 7343
L33962 7362
L33986 7400
L33986 7514
L33962 7553
L33938 7572
" />
<path d="M33533 7172
L33510 7153
L33486 7114
L33486 7019
L33510 6981
L33533 6962
L33581 6943
L33629 6943
L33700 6962
L33986 7191
L33986 6943
" />
<path d="M47417 9495
L47417 9900
L47438 9948
L47460 9972
L47502 9995
L47588 9995
L47631 9972
L47652 9948
L47674 9900
L47674 9495
" />
<path d="M48102 9495
L47888 9495
L47867 9733
L47888 9710
L47931 9686
L48038 9686
L48081 9710
L48102 9733
L48124 9781
L48124 9900
L48102 9948
L48081 9972
L48038 9995
L47931 9995
L47888 9972
L47867 9948
" />
<path d="M48486 9076
L47986 9076
L48486 8848
L47986 8848
" />
<path d="M48224 8657
L48224 8524
" />
<path d="M48486 8467
L48486 8657
L47986 8657
L47986 8467
" />
<path d="M47986 8105
L47986 8295
L48224 8314
L48200 8295
L48176 8257
L48176 8162
L48200 8124
L48224 8105
L48271 8086
L48390 8086
L48438 8105
L48462 8124
L48486 8162
L48486 8257
L48462 8295
L48438 8314
" />
<path d="M47986 7724
L47986 7914
L48224 7933
L48200 7914
L48176 7876
L48176 7781
L48200 7743
L48224 7724
L48271 7705
L48390 7705
L48438 7724
L48462 7743
L48486 7781
L48486 7876
L48462 7914
L48438 7933
" />
<path d="M47986 7572
L47986 7324
L48176 7457
L48176 7400
L48200 7362
L48224 7343
L48271 7324
L48390 7324
L48438 7343
L48462 7362
L48486 7400
L48486 7514
L48462 7553
L48438 7572
" />
<path d="M48033 7172
L48010 7153
L47986 7114
L47986 7019
L48010 6981
L48033 6962
L48081 6943
L48129 6943
L48200 6962
L48486 7191
L48486 6943
" />
<path d="M20417 24745
L20417 25150
L20438 25198
L20460 25222
L20502 25245
L20588 25245
L20631 25222
L20652 25198
L20674 25150
L20674 24745
" />
<path d="M20867 24793
L20888 24769
L20931 24745
L21038 24745
L21081 24769
L21102 24793
L21124 24841
L21124 24888
L21102 24960
L20845 25245
L21124 25245
" />
<path d="M20986 23576
L20486 23576
L20986 23348
L20486 23348
" />
<path d="M20724 23157
L20724 23024
" />
<path d="M20986 22967
L20986 23157
L20486 23157
L20486 22967
" />
<path d="M20486 22605
L20486 22795
L20724 22814
L20700 22795
L20676 22757
L20676 22662
L20700 22624
L20724 22605
L20771 22586
L20890 22586
L20938 22605
L20962 22624
L20986 22662
L20986 22757
L20962 22795
L20938 22814
" />
<path d="M20486 22224
L20486 22414
L20724 22433
L20700 22414
L20676 22376
L20676 22281
L20700 22243
L20724 22224
L20771 22205
L20890 22205
L20938 22224
L20962 22243
L20986 22281
L20986 22376
L20962 22414
L20938 22433
" />
<path d="M20486 22072
L20486 21824
L20676 21957
L20676 21900
L20700 21862
L20724 21843
L20771 21824
L20890 21824
L20938 21843
L20962 21862
L20986 21900
L20986 22014
L20962 22053
L20938 22072
" />
<path d="M20533 21672
L20510 21653
L20486 21614
L20486 21519
L20510 21481
L20533 21462
L20581 21443
L20629 21443
L20700 21462
L20986 21691
L20986 21443
" />
<path d="M17917 9495
L17917 9900
L17938 9948
L17960 9972
L18002 9995
L18088 9995
L18131 9972
L18152 9948
L18174 9900
L18174 9495
" />
<path d="M18345 9495
L18624 9495
L18474 9686
L18538 9686
L18581 9710
L18602 9733
L18624 9781
L18624 9900
L18602 9948
L18581 9972
L18538 9995
L18410 9995
L18367 9972
L18345 9948
" />
<path d="M18986 9076
L18486 9076
L18986 8848
L18486 8848
" />
<path d="M18724 8657
L18724 8524
" />
<path d="M18986 8467
L18986 8657
L18486 8657
L18486 8467
" />
<path d="M18486 8105
L18486 8295
L18724 8314
L18700 8295
L18676 8257
L18676 8162
L18700 8124
L18724 8105
L18771 8086
L18890 8086
L18938 8105
L18962 8124
L18986 8162
L18986 8257
L18962 8295
L18938 8314
" />
<path d="M18486 7724
L18486 7914
L18724 7933
L18700 7914
L18676 7876
L18676 7781
L18700 7743
L18724 7724
L18771 7705
L18890 7705
L18938 7724
L18962 7743
L18986 7781
L18986 7876
L18962 7914
L18938 7933
" />
<path d="M18486 7572
L18486 7324
L18676 7457
L18676 7400
L18700 7362
L18724 7343
L18771 7324
L18890 7324
L18938 7343
L18962 7362
L18986 7400
L18986 7514
L18962 7553
L18938 7572
" />
<path d="M18533 7172
L18510 7153
L18486 7114
L18486 7019
L18510 6981
L18533 6962
L18581 6943
L18629 6943
L18700 6962
L18986 7191
L18986 6943
" />
<path d="M31193 5912
L31174 5931
L31117 5950
L31079 5950
L31021 5931
L30983 5893
L30964 5855
L30945 5779
L30945 5722
L30964 5645
L30983 5607
L31021 5569
L31079 5550
L31117 5550
L31174 5569
L31193 5588
" />
<path d="M31326 5550
L31593 5550
L31421 5950
" />
<path d="M16193 5912
L16174 5931
L16117 5950
L16079 5950
L16021 5931
L15983 5893
L15964 5855
L15945 5779
L15945 5722
L15964 5645
L15983 5607
L16021 5569
L16079 5550
L16117 5550
L16174 5569
L16193 5588
" />
<path d="M16555 5550
L16364 5550
L16345 5741
L16364 5722
L16402 5703
L16498 5703
L16536 5722
L16555 5741
L16574 5779
L16574 5874
L16555 5912
L16536 5931
L16498 5950
L16402 5950
L16364 5931
L16345 5912
" />
<path d="M45693 5912
L45674 5931
L45617 5950
L45579 5950
L45521 5931
L45483 5893
L45464 5855
L45445 5779
L45445 5722
L45464 5645
L45483 5607
L45521 5569
L45579 5550
L45617 5550
L45674 5569
L45693 5588
" />
<path d="M45883 5950
L45960 5950
L45998 5931
L46017 5912
L46055 5855
L46074 5779
L46074 5626
L46055 5588
L46036 5569
L45998 5550
L45921 5550
L45883 5569
L45864 5588
L45845 5626
L45845 5722
L45864 5760
L45883 5779
L45921 5798
L45998 5798
L46036 5779
L46055 5760
L46074 5722
" />
<path d="M23193 25162
L23174 25181
L23117 25200
L23079 25200
L23021 25181
L22983 25143
L22964 25105
L22945 25029
L22945 24972
L22964 24895
L22983 24857
L23021 24819
L23079 24800
L23117 24800
L23174 24819
L23193 24838
" />
<path d="M23326 24800
L23574 24800
L23440 24953
L23498 24953
L23536 24972
L23555 24991
L23574 25029
L23574 25124
L23555 25162
L23536 25181
L23498 25200
L23383 25200
L23345 25181
L23326 25162
" />
<path d="M15758 3091
L15496 3257
" />
<path d="M15758 3376
L15208 3376
L15208 3186
L15235 3138
L15261 3114
L15313 3091
L15392 3091
L15444 3114
L15470 3138
L15496 3186
L15496 3376
" />
<path d="M15261 2900
L15235 2876
L15208 2829
L15208 2710
L15235 2662
L15261 2638
L15313 2614
L15365 2614
L15444 2638
L15758 2924
L15758 2614
" />
<path d="M15208 2448
L15208 2138
L15418 2305
L15418 2233
L15444 2186
L15470 2162
L15523 2138
L15654 2138
L15706 2162
L15732 2186
L15758 2233
L15758 2376
L15732 2424
L15706 2448
" />
<path d="M37193 4912
L37174 4931
L37117 4950
L37079 4950
L37021 4931
L36983 4893
L36964 4855
L36945 4779
L36945 4722
L36964 4645
L36983 4607
L37021 4569
L37079 4550
L37117 4550
L37174 4569
L37193 4588
" />
<path d="M37421 4722
L37383 4703
L37364 4683
L37345 4645
L37345 4626
L37364 4588
L37383 4569
L37421 4550
L37498 4550
L37536 4569
L37555 4588
L37574 4626
L37574 4645
L37555 4683
L37536 4703
L37498 4722
L37421 4722
L37383 4741
L37364 4760
L37345 4798
L37345 4874
L37364 4912
L37383 4931
L37421 4950
L37498 4950
L37536 4931
L37555 4912
L37574 4874
L37574 4798
L37555 4760
L37536 4741
L37498 4722
" />
<path d="M22443 4912
L22424 4931
L22367 4950
L22329 4950
L22271 4931
L22233 4893
L22214 4855
L22195 4779
L22195 4722
L22214 4645
L22233 4607
L22271 4569
L22329 4550
L22367 4550
L22424 4569
L22443 4588
" />
<path d="M22786 4550
L22710 4550
L22671 4569
L22652 4588
L22614 4645
L22595 4722
L22595 4874
L22614 4912
L22633 4931
L22671 4950
L22748 4950
L22786 4931
L22805 4912
L22824 4874
L22824 4779
L22805 4741
L22786 4722
L22748 4703
L22671 4703
L22633 4722
L22614 4741
L22595 4779
" />
<path d="M51752 4912
L51733 4931
L51676 4950
L51638 4950
L51581 4931
L51543 4893
L51524 4855
L51505 4779
L51505 4722
L51524 4645
L51543 4607
L51581 4569
L51638 4550
L51676 4550
L51733 4569
L51752 4588
" />
<path d="M52133 4950
L51905 4950
" />
<path d="M52019 4950
L52019 4550
L51981 4607
L51943 4645
L51905 4664
" />
<path d="M52381 4550
L52419 4550
L52457 4569
L52476 4588
L52495 4626
L52514 4703
L52514 4798
L52495 4874
L52476 4912
L52457 4931
L52419 4950
L52381 4950
L52343 4931
L52324 4912
L52305 4874
L52286 4798
L52286 4703
L52305 4626
L52324 4588
L52343 4569
L52381 4550
" />
<path d="M16943 25912
L16924 25931
L16867 25950
L16829 25950
L16771 25931
L16733 25893
L16714 25855
L16695 25779
L16695 25722
L16714 25645
L16733 25607
L16771 25569
L16829 25550
L16867 25550
L16924 25569
L16943 25588
" />
<path d="M17286 25683
L17286 25950
" />
<path d="M17190 25531
L17095 25817
L17343 25817
" />
<path d="M32193 25412
L32174 25431
L32117 25450
L32079 25450
L32021 25431
L31983 25393
L31964 25355
L31945 25279
L31945 25222
L31964 25145
L31983 25107
L32021 25069
L32079 25050
L32117 25050
L32174 25069
L32193 25088
" />
<path d="M32345 25088
L32364 25069
L32402 25050
L32498 25050
L32536 25069
L32555 25088
L32574 25126
L32574 25164
L32555 25222
L32326 25450
L32574 25450
" />
<path d="M32258 2841
L31996 3007
" />
<path d="M32258 3126
L31708 3126
L31708 2936
L31735 2888
L31761 2864
L31813 2841
L31892 2841
L31944 2864
L31970 2888
L31996 2936
L31996 3126
" />
<path d="M31761 2650
L31735 2626
L31708 2579
L31708 2460
L31735 2412
L31761 2388
L31813 2364
L31865 2364
L31944 2388
L32258 2674
L32258 2364
" />
<path d="M31892 1936
L32258 1936
" />
<path d="M31682 2055
L32075 2174
L32075 1864
" />
</g>
<g style="fill:#008484; fill-opacity:0.0; 
stroke:#008484; stroke-width:59.0551; stroke-opacity:1; 
stroke-linecap:round; stroke-linejoin:round;">
<path d="M23931 16054
L23931 16335
L23913 16391
L23875 16429
L23819 16447
L23781 16447
" />
<path d="M24119 16447
L24119 16054
L24269 16054
L24306 16072
L24325 16091
L24344 16129
L24344 16185
L24325 16222
L24306 16241
L24269 16260
L24119 16260
" />
<path d="M24494 16091
L24513 16072
L24550 16054
L24644 16054
L24681 16072
L24700 16091
L24719 16129
L24719 16166
L24700 16222
L24475 16447
L24719 16447
" />
</g>
<g style="fill:#008484; fill-opacity:0.0; 
stroke:#008484; stroke-width:80; stroke-opacity:1; 
stroke-linecap:round; stroke-linejoin:round;">
<path d="M27105 8218
L27271 8768
L27438 8218
" />
<path d="M27890 8768
L27724 8506
" />
<path d="M27605 8768
L27605 8218
L27795 8218
L27843 8244
L27867 8270
L27890 8323
L27890 8401
L27867 8454
L27843 8480
L27795 8506
L27605 8506
" />
<path d="M28319 8401
L28319 8768
" />
<path d="M28200 8192
L28081 8585
L28390 8585
" />
<path d="M28562 5218
L28276 5218
" />
<path d="M28419 5218
L28419 4668
L28371 4747
L28324 4799
L28276 4825
" />
<path d="M28871 4668
L28919 4668
L28967 4694
L28990 4720
L29014 4773
L29038 4878
L29038 5008
L29014 5113
L28990 5166
L28967 5192
L28919 5218
L28871 5218
L28824 5192
L28800 5166
L28776 5113
L28752 5008
L28752 4878
L28776 4773
L28800 4720
L28824 4694
L28871 4668
" />
<path d="M29252 5218
L29252 4668
" />
<path d="M29300 5008
L29443 5218
" />
<path d="M29443 4851
L29252 5061
" />
<path d="M42355 23218
L42521 23768
L42688 23218
" />
<path d="M43140 23768
L42974 23506
" />
<path d="M42855 23768
L42855 23218
L43045 23218
L43093 23244
L43117 23270
L43140 23323
L43140 23401
L43117 23454
L43093 23480
L43045 23506
L42855 23506
" />
<path d="M43617 23768
L43331 23768
" />
<path d="M43474 23768
L43474 23218
L43426 23297
L43379 23349
L43331 23375
" />
<path d="M40362 25318
L40076 25318
" />
<path d="M40219 25318
L40219 24768
L40171 24847
L40124 24899
L40076 24925
" />
<path d="M40671 24768
L40719 24768
L40767 24794
L40790 24820
L40814 24873
L40838 24978
L40838 25108
L40814 25213
L40790 25266
L40767 25292
L40719 25318
L40671 25318
L40624 25292
L40600 25266
L40576 25213
L40552 25108
L40552 24978
L40576 24873
L40600 24820
L40624 24794
L40671 24768
" />
<path d="M41052 25318
L41052 24768
" />
<path d="M41100 25108
L41243 25318
" />
<path d="M41243 24951
L41052 25161
" />
<path d="M25605 21468
L25771 22018
L25938 21468
" />
<path d="M26390 22018
L26224 21756
" />
<path d="M26105 22018
L26105 21468
L26295 21468
L26343 21494
L26367 21520
L26390 21573
L26390 21651
L26367 21704
L26343 21730
L26295 21756
L26105 21756
" />
<path d="M26581 21520
L26605 21494
L26652 21468
L26771 21468
L26819 21494
L26843 21520
L26867 21573
L26867 21625
L26843 21704
L26557 22018
L26867 22018
" />
<path d="M25362 25818
L25076 25818
" />
<path d="M25219 25818
L25219 25268
L25171 25347
L25124 25399
L25076 25425
" />
<path d="M25671 25268
L25719 25268
L25767 25294
L25790 25320
L25814 25373
L25838 25478
L25838 25608
L25814 25713
L25790 25766
L25767 25792
L25719 25818
L25671 25818
L25624 25792
L25600 25766
L25576 25713
L25552 25608
L25552 25478
L25576 25373
L25600 25320
L25624 25294
L25671 25268
" />
<path d="M26052 25818
L26052 25268
" />
<path d="M26100 25608
L26243 25818
" />
<path d="M26243 25451
L26052 25661
" />
<path d="M41605 8468
L41771 9018
L41938 8468
" />
<path d="M42390 9018
L42224 8756
" />
<path d="M42105 9018
L42105 8468
L42295 8468
L42343 8494
L42367 8520
L42390 8573
L42390 8651
L42367 8704
L42343 8730
L42295 8756
L42105 8756
" />
<path d="M42843 8468
L42605 8468
L42581 8730
L42605 8704
L42652 8678
L42771 8678
L42819 8704
L42843 8730
L42867 8782
L42867 8913
L42843 8966
L42819 8992
L42771 9018
L42652 9018
L42605 8992
L42581 8966
" />
<path d="M43062 5218
L42776 5218
" />
<path d="M42919 5218
L42919 4668
L42871 4747
L42824 4799
L42776 4825
" />
<path d="M43371 4668
L43419 4668
L43467 4694
L43490 4720
L43514 4773
L43538 4878
L43538 5008
L43514 5113
L43490 5166
L43467 5192
L43419 5218
L43371 5218
L43324 5192
L43300 5166
L43276 5113
L43252 5008
L43252 4878
L43276 4773
L43300 4720
L43324 4694
L43371 4668
" />
<path d="M43752 5218
L43752 4668
" />
<path d="M43800 5008
L43943 5218
" />
<path d="M43943 4851
L43752 5061
" />
<path d="M11855 8218
L12021 8768
L12188 8218
" />
<path d="M12640 8768
L12474 8506
" />
<path d="M12355 8768
L12355 8218
L12545 8218
L12593 8244
L12617 8270
L12640 8323
L12640 8401
L12617 8454
L12593 8480
L12545 8506
L12355 8506
" />
<path d="M12807 8218
L13117 8218
L12950 8428
L13021 8428
L13069 8454
L13093 8480
L13117 8532
L13117 8663
L13093 8716
L13069 8742
L13021 8768
L12879 8768
L12831 8742
L12807 8716
" />
<path d="M13562 5218
L13276 5218
" />
<path d="M13419 5218
L13419 4668
L13371 4747
L13324 4799
L13276 4825
" />
<path d="M13871 4668
L13919 4668
L13967 4694
L13990 4720
L14014 4773
L14038 4878
L14038 5008
L14014 5113
L13990 5166
L13967 5192
L13919 5218
L13871 5218
L13824 5192
L13800 5166
L13776 5113
L13752 5008
L13752 4878
L13776 4773
L13800 4720
L13824 4694
L13871 4668
" />
<path d="M14252 5218
L14252 4668
" />
<path d="M14300 5008
L14443 5218
" />
<path d="M14443 4851
L14252 5061
" />
</g>
<g style="fill:#008484; fill-opacity:0.0; 
stroke:#008484; stroke-width:60; stroke-opacity:1; 
stroke-linecap:round; stroke-linejoin:round;">
<path d="M15788 11405
L15788 11105
L15902 11105
L15931 11119
L15945 11133
L15960 11162
L15960 11205
L15945 11233
L15931 11248
L15902 11262
L15788 11262
" />
<path d="M16060 11105
L16245 11105
L16145 11219
L16188 11219
L16217 11233
L16231 11248
L16245 11276
L16245 11348
L16231 11376
L16217 11391
L16188 11405
L16102 11405
L16074 11391
L16060 11376
" />
</g>
<g style="fill:#008484; fill-opacity:0.0; 
stroke:#008484; stroke-width:120; stroke-opacity:1; 
stroke-linecap:round; stroke-linejoin:round;">
<path d="M1781 16462
L1181 16462
L1181 16233
L1210 16176
L1238 16148
L1295 16119
L1381 16119
L1438 16148
L1467 16176
L1495 16233
L1495 16462
" />
<path d="M1181 15919
L1181 15519
L1781 15776
" />
<path d="M5252 18833
L5281 18748
L5281 18605
L5252 18548
L5224 18519
L5167 18491
L5110 18491
L5052 18519
L5024 18548
L4995 18605
L4967 18719
L4938 18776
L4910 18805
L4852 18833
L4795 18833
L4738 18805
L4710 18776
L4681 18719
L4681 18576
L4710 18491
" />
<path d="M4681 18233
L5167 18233
L5224 18205
L5252 18176
L5281 18119
L5281 18005
L5252 17948
L5224 17919
L5167 17891
L4681 17891
" />
<path d="M4967 17405
L4995 17319
L5024 17291
L5081 17262
L5167 17262
L5224 17291
L5252 17319
L5281 17376
L5281 17605
L4681 17605
L4681 17405
L4710 17348
L4738 17319
L4795 17291
L4852 17291
L4910 17319
L4938 17348
L4967 17405
L4967 17605
" />
<path d="M5052 17005
L5052 16548
" />
<path d="M5281 16262
L4681 16262
L4681 16119
L4710 16033
L4767 15976
L4824 15948
L4938 15919
L5024 15919
L5138 15948
L5195 15976
L5252 16033
L5281 16119
L5281 16262
" />
<path d="M4738 15691
L4710 15662
L4681 15605
L4681 15462
L4710 15405
L4738 15376
L4795 15348
L4852 15348
L4938 15376
L5281 15719
L5281 15348
" />
<path d="M4681 14805
L4681 15091
L4967 15119
L4938 15091
L4910 15033
L4910 14891
L4938 14833
L4967 14805
L5024 14776
L5167 14776
L5224 14805
L5252 14833
L5281 14891
L5281 15033
L5252 15091
L5224 15119
" />
<path d="M4967 13862
L4967 14062
" />
<path d="M5281 14062
L4681 14062
L4681 13776
" />
<path d="M5224 13205
L5252 13233
L5281 13319
L5281 13376
L5252 13462
L5195 13519
L5138 13548
L5024 13576
L4938 13576
L4824 13548
L4767 13519
L4710 13462
L4681 13376
L4681 13319
L4710 13233
L4738 13205
" />
</g>
<g style="fill:#008484; fill-opacity:0.0; 
stroke:#008484; stroke-width:60; stroke-opacity:1; 
stroke-linecap:round; stroke-linejoin:round;">
<path d="M34788 16905
L34788 16605
L34902 16605
L34931 16619
L34945 16633
L34960 16662
L34960 16705
L34945 16733
L34931 16748
L34902 16762
L34788 16762
" />
<path d="M35217 16605
L35160 16605
L35131 16619
L35117 16633
L35088 16676
L35074 16733
L35074 16848
L35088 16876
L35102 16891
L35131 16905
L35188 16905
L35217 16891
L35231 16876
L35245 16848
L35245 16776
L35231 16748
L35217 16733
L35188 16719
L35131 16719
L35102 16733
L35088 16748
L35074 16776
" />
</g>
<g style="fill:#008484; fill-opacity:0.0; 
stroke:#008484; stroke-width:59.0551; stroke-opacity:1; 
stroke-linecap:round; stroke-linejoin:round;">
<path d="M17681 10804
L17681 11085
L17663 11141
L17625 11179
L17569 11197
L17531 11197
" />
<path d="M17869 11197
L17869 10804
L18019 10804
L18056 10822
L18075 10841
L18094 10879
L18094 10935
L18075 10972
L18056 10991
L18019 11010
L17869 11010
" />
<path d="M18450 10804
L18263 10804
L18244 10991
L18263 10972
L18300 10954
L18394 10954
L18431 10972
L18450 10991
L18469 11029
L18469 11122
L18450 11160
L18431 11179
L18394 11197
L18300 11197
L18263 11179
L18244 11160
" />
<path d="M32931 10304
L32931 10585
L32913 10641
L32875 10679
L32819 10697
L32781 10697
" />
<path d="M33119 10697
L33119 10304
L33269 10304
L33306 10322
L33325 10341
L33344 10379
L33344 10435
L33325 10472
L33306 10491
L33269 10510
L33119 10510
" />
<path d="M33681 10304
L33606 10304
L33569 10322
L33550 10341
L33513 10397
L33494 10472
L33494 10622
L33513 10660
L33531 10679
L33569 10697
L33644 10697
L33681 10679
L33700 10660
L33719 10622
L33719 10529
L33700 10491
L33681 10472
L33644 10454
L33569 10454
L33531 10472
L33513 10491
L33494 10529
" />
<path d="M8931 15304
L8931 15585
L8913 15641
L8875 15679
L8819 15697
L8781 15697
" />
<path d="M9119 15697
L9119 15304
L9269 15304
L9306 15322
L9325 15341
L9344 15379
L9344 15435
L9325 15472
L9306 15491
L9269 15510
L9119 15510
" />
<path d="M9719 15697
L9494 15697
" />
<path d="M9606 15697
L9606 15304
L9569 15360
L9531 15397
L9494 15416
" />
<path d="M26681 20304
L26681 20585
L26663 20641
L26625 20679
L26569 20697
L26531 20697
" />
<path d="M26869 20697
L26869 20304
L27019 20304
L27056 20322
L27075 20341
L27094 20379
L27094 20435
L27075 20472
L27056 20491
L27019 20510
L26869 20510
" />
<path d="M27225 20304
L27469 20304
L27338 20454
L27394 20454
L27431 20472
L27450 20491
L27469 20529
L27469 20622
L27450 20660
L27431 20679
L27394 20697
L27281 20697
L27244 20679
L27225 20660
" />
</g>
<g style="fill:#008484; fill-opacity:0.0; 
stroke:#008484; stroke-width:50; stroke-opacity:1; 
stroke-linecap:round; stroke-linejoin:round;">
<path d="M28567 17877
L28552 17892
L28510 17906
L28481 17906
L28438 17892
L28410 17863
L28395 17834
L28381 17777
L28381 17734
L28395 17677
L28410 17649
L28438 17620
L28481 17606
L28510 17606
L28552 17620
L28567 17634
" />
<path d="M28681 17634
L28695 17620
L28724 17606
L28795 17606
L28824 17620
L28838 17634
L28852 17663
L28852 17692
L28838 17734
L28667 17906
L28852 17906
" />
<path d="M29138 17906
L28967 17906
" />
<path d="M29052 17906
L29052 17606
L29024 17649
L28995 17677
L28967 17692
" />
<path d="M28355 18905
L28212 18905
" />
<path d="M28283 18905
L28283 18605
L28260 18648
L28236 18676
L28212 18691
" />
<path d="M28510 18605
L28533 18605
L28557 18619
L28569 18633
L28581 18662
L28593 18719
L28593 18791
L28581 18848
L28569 18876
L28557 18891
L28533 18905
L28510 18905
L28486 18891
L28474 18876
L28462 18848
L28450 18791
L28450 18719
L28462 18662
L28474 18633
L28486 18619
L28510 18605
" />
<path d="M28748 18605
L28771 18605
L28795 18619
L28807 18633
L28819 18662
L28831 18719
L28831 18791
L28819 18848
L28807 18876
L28795 18891
L28771 18905
L28748 18905
L28724 18891
L28712 18876
L28700 18848
L28688 18791
L28688 18719
L28700 18662
L28712 18633
L28724 18619
L28748 18605
" />
<path d="M28938 18705
L28938 19005
" />
<path d="M29057 18862
L29069 18891
L29093 18905
" />
<path d="M28938 18862
L28950 18891
L28974 18905
L29021 18905
L29045 18891
L29057 18862
L29057 18705
" />
<path d="M29283 18748
L29200 18748
" />
<path d="M29200 18905
L29200 18605
L29319 18605
" />
</g>
<g style="fill:#008484; fill-opacity:0.0; 
stroke:#008484; stroke-width:80; stroke-opacity:1; 
stroke-linecap:round; stroke-linejoin:round;">
</g>
<g style="fill:#008484; fill-opacity:0.0; 
stroke:#008484; stroke-width:75; stroke-opacity:1; 
stroke-linecap:round; stroke-linejoin:round;">
<path d="M27745 18291
L27974 18291
" />
<path d="M27860 18405
L27860 18176
" />
</g>
<g style="fill:#008484; fill-opacity:0.0; 
stroke:#008484; stroke-width:80; stroke-opacity:1; 
stroke-linecap:round; stroke-linejoin:round;">
</g>
<g style="fill:#008484; fill-opacity:0.0; 
stroke:#008484; stroke-width:50; stroke-opacity:1; 
stroke-linecap:round; stroke-linejoin:round;">
<path d="M26317 17876
L26302 17891
L26260 17905
L26231 17905
L26188 17891
L26160 17862
L26145 17833
L26131 17776
L26131 17733
L26145 17676
L26160 17648
L26188 17619
L26231 17605
L26260 17605
L26302 17619
L26317 17633
" />
<path d="M26431 17633
L26445 17619
L26474 17605
L26545 17605
L26574 17619
L26588 17633
L26602 17662
L26602 17691
L26588 17733
L26417 17905
L26602 17905
" />
<path d="M26717 17633
L26731 17619
L26760 17605
L26831 17605
L26860 17619
L26874 17633
L26888 17662
L26888 17691
L26874 17733
L26702 17905
L26888 17905
" />
<path d="M26105 18905
L25962 18905
" />
<path d="M26033 18905
L26033 18605
L26010 18648
L25986 18676
L25962 18691
" />
<path d="M26260 18605
L26283 18605
L26307 18619
L26319 18633
L26331 18662
L26343 18719
L26343 18791
L26331 18848
L26319 18876
L26307 18891
L26283 18905
L26260 18905
L26236 18891
L26224 18876
L26212 18848
L26200 18791
L26200 18719
L26212 18662
L26224 18633
L26236 18619
L26260 18605
" />
<path d="M26498 18605
L26521 18605
L26545 18619
L26557 18633
L26569 18662
L26581 18719
L26581 18791
L26569 18848
L26557 18876
L26545 18891
L26521 18905
L26498 18905
L26474 18891
L26462 18876
L26450 18848
L26438 18791
L26438 18719
L26450 18662
L26462 18633
L26474 18619
L26498 18605
" />
<path d="M26688 18705
L26688 19005
" />
<path d="M26807 18862
L26819 18891
L26843 18905
" />
<path d="M26688 18862
L26700 18891
L26724 18905
L26771 18905
L26795 18891
L26807 18862
L26807 18705
" />
<path d="M27033 18748
L26950 18748
" />
<path d="M26950 18905
L26950 18605
L27069 18605
" />
</g>
<g style="fill:#008484; fill-opacity:0.0; 
stroke:#008484; stroke-width:80; stroke-opacity:1; 
stroke-linecap:round; stroke-linejoin:round;">
</g>
<g style="fill:#008484; fill-opacity:0.0; 
stroke:#008484; stroke-width:75; stroke-opacity:1; 
stroke-linecap:round; stroke-linejoin:round;">
<path d="M25495 18291
L25724 18291
" />
<path d="M25610 18405
L25610 18176
" />
</g>
<g style="fill:#008484; fill-opacity:0.0; 
stroke:#008484; stroke-width:80; stroke-opacity:1; 
stroke-linecap:round; stroke-linejoin:round;">
<path d="M45502 10412
L45483 10431
L45426 10450
L45388 10450
L45331 10431
L45293 10393
L45274 10355
L45255 10279
L45255 10222
L45274 10145
L45293 10107
L45331 10069
L45388 10050
L45426 10050
L45483 10069
L45502 10088
" />
<path d="M45655 10088
L45674 10069
L45712 10050
L45807 10050
L45845 10069
L45864 10088
L45883 10126
L45883 10164
L45864 10222
L45636 10450
L45883 10450
" />
<path d="M46131 10050
L46169 10050
L46207 10069
L46226 10088
L46245 10126
L46264 10203
L46264 10298
L46245 10374
L46226 10412
L46207 10431
L46169 10450
L46131 10450
L46093 10431
L46074 10412
L46055 10374
L46036 10298
L46036 10203
L46055 10126
L46074 10088
L46093 10069
L46131 10050
" />
<path d="M16002 10412
L15983 10431
L15926 10450
L15888 10450
L15831 10431
L15793 10393
L15774 10355
L15755 10279
L15755 10222
L15774 10145
L15793 10107
L15831 10069
L15888 10050
L15926 10050
L15983 10069
L16002 10088
" />
<path d="M16383 10450
L16155 10450
" />
<path d="M16269 10450
L16269 10050
L16231 10107
L16193 10145
L16155 10164
" />
<path d="M16612 10222
L16574 10203
L16555 10183
L16536 10145
L16536 10126
L16555 10088
L16574 10069
L16612 10050
L16688 10050
L16726 10069
L16745 10088
L16764 10126
L16764 10145
L16745 10183
L16726 10203
L16688 10222
L16612 10222
L16574 10241
L16555 10260
L16536 10298
L16536 10374
L16555 10412
L16574 10431
L16612 10450
L16688 10450
L16726 10431
L16745 10412
L16764 10374
L16764 10298
L16745 10260
L16726 10241
L16688 10222
" />
<path d="M31002 10412
L30983 10431
L30926 10450
L30888 10450
L30831 10431
L30793 10393
L30774 10355
L30755 10279
L30755 10222
L30774 10145
L30793 10107
L30831 10069
L30888 10050
L30926 10050
L30983 10069
L31002 10088
" />
<path d="M31383 10450
L31155 10450
" />
<path d="M31269 10450
L31269 10050
L31231 10107
L31193 10145
L31155 10164
" />
<path d="M31574 10450
L31650 10450
L31688 10431
L31707 10412
L31745 10355
L31764 10279
L31764 10126
L31745 10088
L31726 10069
L31688 10050
L31612 10050
L31574 10069
L31555 10088
L31536 10126
L31536 10222
L31555 10260
L31574 10279
L31612 10298
L31688 10298
L31726 10279
L31745 10260
L31764 10222
" />
<path d="M21002 3912
L20983 3931
L20926 3950
L20888 3950
L20831 3931
L20793 3893
L20774 3855
L20755 3779
L20755 3722
L20774 3645
L20793 3607
L20831 3569
L20888 3550
L20926 3550
L20983 3569
L21002 3588
" />
<path d="M21383 3950
L21155 3950
" />
<path d="M21269 3950
L21269 3550
L21231 3607
L21193 3645
L21155 3664
" />
<path d="M21517 3550
L21764 3550
L21631 3703
L21688 3703
L21726 3722
L21745 3741
L21764 3779
L21764 3874
L21745 3912
L21726 3931
L21688 3950
L21574 3950
L21536 3931
L21517 3912
" />
<path d="M18002 26912
L17983 26931
L17926 26950
L17888 26950
L17831 26931
L17793 26893
L17774 26855
L17755 26779
L17755 26722
L17774 26645
L17793 26607
L17831 26569
L17888 26550
L17926 26550
L17983 26569
L18002 26588
" />
<path d="M18383 26950
L18155 26950
" />
<path d="M18269 26950
L18269 26550
L18231 26607
L18193 26645
L18155 26664
" />
<path d="M18536 26588
L18555 26569
L18593 26550
L18688 26550
L18726 26569
L18745 26588
L18764 26626
L18764 26664
L18745 26722
L18517 26950
L18764 26950
" />
<path d="M33002 26412
L32983 26431
L32926 26450
L32888 26450
L32831 26431
L32793 26393
L32774 26355
L32755 26279
L32755 26222
L32774 26145
L32793 26107
L32831 26069
L32888 26050
L32926 26050
L32983 26069
L33002 26088
" />
<path d="M33383 26450
L33155 26450
" />
<path d="M33269 26450
L33269 26050
L33231 26107
L33193 26145
L33155 26164
" />
<path d="M33764 26450
L33536 26450
" />
<path d="M33650 26450
L33650 26050
L33612 26107
L33574 26145
L33536 26164
" />
<path d="M36002 3912
L35983 3931
L35926 3950
L35888 3950
L35831 3931
L35793 3893
L35774 3855
L35755 3779
L35755 3722
L35774 3645
L35793 3607
L35831 3569
L35888 3550
L35926 3550
L35983 3569
L36002 3588
" />
<path d="M36383 3950
L36155 3950
" />
<path d="M36269 3950
L36269 3550
L36231 3607
L36193 3645
L36155 3664
" />
<path d="M36726 3683
L36726 3950
" />
<path d="M36631 3531
L36536 3817
L36783 3817
" />
<path d="M50502 3912
L50483 3931
L50426 3950
L50388 3950
L50331 3931
L50293 3893
L50274 3855
L50255 3779
L50255 3722
L50274 3645
L50293 3607
L50331 3569
L50388 3550
L50426 3550
L50483 3569
L50502 3588
" />
<path d="M50883 3950
L50655 3950
" />
<path d="M50769 3950
L50769 3550
L50731 3607
L50693 3645
L50655 3664
" />
<path d="M51245 3550
L51055 3550
L51036 3741
L51055 3722
L51093 3703
L51188 3703
L51226 3722
L51245 3741
L51264 3779
L51264 3874
L51245 3912
L51226 3931
L51188 3950
L51093 3950
L51055 3931
L51036 3912
" />
</g>
<g style="fill:#008484; fill-opacity:0.0; 
stroke:#008484; stroke-width:59.0551; stroke-opacity:1; 
stroke-linecap:round; stroke-linejoin:round;">
<path d="M34160 14019
L26560 14019
" />
<path d="M26560 14019
L26560 16819
" />
<path d="M26560 16819
L34160 16819
" />
<path d="M34160 16819
L34160 14019
" />
</g>
<g style="fill:#008484; fill-opacity:0.0; 
stroke:#008484; stroke-width:60; stroke-opacity:1; 
stroke-linecap:round; stroke-linejoin:round;">
<path d="M32760 11519
L32760 12519
" />
<path d="M32760 12519
L30760 12519
" />
<path d="M30760 12519
L30760 11519
" />
<path d="M30760 11519
L32760 11519
" />
<path d="M36760 18519
L36760 17519
" />
<path d="M36760 17519
L38760 17519
" />
<path d="M38760 17519
L38760 18519
" />
<path d="M38760 18519
L36760 18519
" />
</g>
<g style="fill:#008484; fill-opacity:0.0; 
stroke:#008484; stroke-width:100; stroke-opacity:1; 
stroke-linecap:round; stroke-linejoin:round;">
<path d="M35260 24019
L35260 23519
" />
<path d="M35260 23519
L36260 23519
" />
<path d="M36260 23519
L36260 24019
" />
<path d="M34760 24019
L34760 20019
" />
<path d="M34760 20019
L36760 20019
" />
<path d="M36760 20019
L36760 24019
" />
<path d="M36760 24019
L34760 24019
" />
</g>
<g style="fill:#008484; fill-opacity:0.0; 
stroke:#008484; stroke-width:120; stroke-opacity:1; 
stroke-linecap:round; stroke-linejoin:round;">
<path d="M38760 22039
L38760 24019
" />
<path d="M38760 24019
L37760 24019
" />
<path d="M37760 24019
L37760 22019
" />
<path d="M37760 22019
L38760 22019
" />
<path d="M38510 22019
L38760 22269
" />
</g>
<g style="fill:#008484; fill-opacity:0.0; 
stroke:#008484; stroke-width:80; stroke-opacity:1; 
stroke-linecap:round; stroke-linejoin:round;">
<path d="M40760 18019
L40760 18219
" />
<path d="M40760 21019
L40760 20819
" />
<path d="M40760 20819
L41160 20819
" />
<path d="M41160 20819
L41160 18219
" />
<path d="M41160 18219
L40360 18219
" />
<path d="M40360 18219
L40360 20819
" />
<path d="M40360 20819
L40760 20819
" />
<path d="M40960 18219
L41160 18419
" />
<path d="M30260 22519
L30260 22719
" />
<path d="M30260 25519
L30260 25319
" />
<path d="M30260 25319
L30660 25319
" />
<path d="M30660 25319
L30660 22719
" />
<path d="M30660 22719
L29860 22719
" />
<path d="M29860 22719
L29860 25319
" />
<path d="M29860 25319
L30260 25319
" />
<path d="M30460 22719
L30660 22919
" />
<path d="M37260 27019
L37060 27019
" />
<path d="M34260 27019
L34460 27019
" />
<path d="M34460 27019
L34460 27419
" />
<path d="M34460 27419
L37060 27419
" />
<path d="M37060 27419
L37060 26619
" />
<path d="M37060 26619
L34460 26619
" />
<path d="M34460 26619
L34460 27019
" />
<path d="M37060 27219
L36860 27419
" />
<path d="M37260 24519
L37060 24519
" />
<path d="M34260 24519
L34460 24519
" />
<path d="M34460 24519
L34460 24919
" />
<path d="M34460 24919
L37060 24919
" />
<path d="M37060 24919
L37060 24119
" />
<path d="M37060 24119
L34460 24119
" />
<path d="M34460 24119
L34460 24519
" />
<path d="M37060 24719
L36860 24919
" />
<path d="M33260 21519
L33060 21519
" />
<path d="M30260 21519
L30460 21519
" />
<path d="M30460 21519
L30460 21919
" />
<path d="M30460 21919
L33060 21919
" />
<path d="M33060 21919
L33060 21119
" />
<path d="M33060 21119
L30460 21119
" />
<path d="M30460 21119
L30460 21519
" />
<path d="M33060 21719
L32860 21919
" />
</g>
<g style="fill:#008484; fill-opacity:0.0; 
stroke:#008484; stroke-width:120; stroke-opacity:1; 
stroke-linecap:round; stroke-linejoin:round;">
<path d="M38760 20039
L38760 22019
" />
<path d="M38760 22019
L37760 22019
" />
<path d="M37760 22019
L37760 20019
" />
<path d="M37760 20019
L38760 20019
" />
<path d="M38510 20019
L38760 20269
" />
<path d="M23760 20539
L23760 22519
" />
<path d="M23760 22519
L22760 22519
" />
<path d="M22760 22519
L22760 20519
" />
<path d="M22760 20519
L23760 20519
" />
<path d="M23510 20519
L23760 20769
" />
</g>
<g style="fill:#008484; fill-opacity:0.0; 
stroke:#008484; stroke-width:80; stroke-opacity:1; 
stroke-linecap:round; stroke-linejoin:round;">
<path d="M21260 8519
L21460 8519
" />
<path d="M24260 8519
L24060 8519
" />
<path d="M24060 8519
L24060 8119
" />
<path d="M24060 8119
L21460 8119
" />
<path d="M21460 8119
L21460 8919
" />
<path d="M21460 8919
L24060 8919
" />
<path d="M24060 8919
L24060 8519
" />
<path d="M21460 8319
L21660 8119
" />
<path d="M38660 7519
L38660 7319
" />
<path d="M38660 4519
L38660 4719
" />
<path d="M38660 4719
L38260 4719
" />
<path d="M38260 4719
L38260 7319
" />
<path d="M38260 7319
L39060 7319
" />
<path d="M39060 7319
L39060 4719
" />
<path d="M39060 4719
L38660 4719
" />
<path d="M38460 7319
L38260 7119
" />
<path d="M43260 12019
L43260 11819
" />
<path d="M43260 9019
L43260 9219
" />
<path d="M43260 9219
L42860 9219
" />
<path d="M42860 9219
L42860 11819
" />
<path d="M42860 11819
L43660 11819
" />
<path d="M43660 11819
L43660 9219
" />
<path d="M43660 9219
L43260 9219
" />
<path d="M43060 11819
L42860 11619
" />
<path d="M36260 8519
L36460 8519
" />
<path d="M39260 8519
L39060 8519
" />
<path d="M39060 8519
L39060 8119
" />
<path d="M39060 8119
L36460 8119
" />
<path d="M36460 8119
L36460 8919
" />
<path d="M36460 8919
L39060 8919
" />
<path d="M39060 8919
L39060 8519
" />
<path d="M36460 8319
L36660 8119
" />
<path d="M32260 5519
L32460 5519
" />
<path d="M35260 5519
L35060 5519
" />
<path d="M35060 5519
L35060 5119
" />
<path d="M35060 5119
L32460 5119
" />
<path d="M32460 5119
L32460 5919
" />
<path d="M32460 5919
L35060 5919
" />
<path d="M35060 5919
L35060 5519
" />
<path d="M32460 5319
L32660 5119
" />
<path d="M28760 12019
L28760 11819
" />
<path d="M28760 9019
L28760 9219
" />
<path d="M28760 9219
L28360 9219
" />
<path d="M28360 9219
L28360 11819
" />
<path d="M28360 11819
L29160 11819
" />
<path d="M29160 11819
L29160 9219
" />
<path d="M29160 9219
L28760 9219
" />
<path d="M28560 11819
L28360 11619
" />
<path d="M24260 7519
L24260 7319
" />
<path d="M24260 4519
L24260 4719
" />
<path d="M24260 4719
L23860 4719
" />
<path d="M23860 4719
L23860 7319
" />
<path d="M23860 7319
L24660 7319
" />
<path d="M24660 7319
L24660 4719
" />
<path d="M24660 4719
L24260 4719
" />
<path d="M24060 7319
L23860 7119
" />
<path d="M46760 5519
L46960 5519
" />
<path d="M49760 5519
L49560 5519
" />
<path d="M49560 5519
L49560 5119
" />
<path d="M49560 5119
L46960 5119
" />
<path d="M46960 5119
L46960 5919
" />
<path d="M46960 5919
L49560 5919
" />
<path d="M49560 5919
L49560 5519
" />
<path d="M46960 5319
L47160 5119
" />
<path d="M17260 5519
L17460 5519
" />
<path d="M20260 5519
L20060 5519
" />
<path d="M20060 5519
L20060 5119
" />
<path d="M20060 5119
L17460 5119
" />
<path d="M17460 5119
L17460 5919
" />
<path d="M17460 5919
L20060 5919
" />
<path d="M20060 5919
L20060 5519
" />
<path d="M17460 5319
L17660 5119
" />
<path d="M13760 12019
L13760 11819
" />
<path d="M13760 9019
L13760 9219
" />
<path d="M13760 9219
L13360 9219
" />
<path d="M13360 9219
L13360 11819
" />
<path d="M13360 11819
L14160 11819
" />
<path d="M14160 11819
L14160 9219
" />
<path d="M14160 9219
L13760 9219
" />
<path d="M13560 11819
L13360 11619
" />
<path d="M50760 8519
L50960 8519
" />
<path d="M53760 8519
L53560 8519
" />
<path d="M53560 8519
L53560 8119
" />
<path d="M53560 8119
L50960 8119
" />
<path d="M50960 8119
L50960 8919
" />
<path d="M50960 8919
L53560 8919
" />
<path d="M53560 8919
L53560 8519
" />
<path d="M50960 8319
L51160 8119
" />
<path d="M22260 26019
L22260 26219
" />
<path d="M22260 29019
L22260 28819
" />
<path d="M22260 28819
L22660 28819
" />
<path d="M22660 28819
L22660 26219
" />
<path d="M22660 26219
L21860 26219
" />
<path d="M21860 26219
L21860 28819
" />
<path d="M21860 28819
L22260 28819
" />
<path d="M22460 26219
L22660 26419
" />
<path d="M15260 23019
L15260 23219
" />
<path d="M15260 26019
L15260 25819
" />
<path d="M15260 25819
L15660 25819
" />
<path d="M15660 25819
L15660 23219
" />
<path d="M15660 23219
L14860 23219
" />
<path d="M14860 23219
L14860 25819
" />
<path d="M14860 25819
L15260 25819
" />
<path d="M15460 23219
L15660 23419
" />
<path d="M53760 7519
L53760 7319
" />
<path d="M53760 4519
L53760 4719
" />
<path d="M53760 4719
L53360 4719
" />
<path d="M53360 4719
L53360 7319
" />
<path d="M53360 7319
L54160 7319
" />
<path d="M54160 7319
L54160 4719
" />
<path d="M54160 4719
L53760 4719
" />
<path d="M53560 7319
L53360 7119
" />
<path d="M45760 4519
L45760 4319
" />
<path d="M45760 1519
L45760 1719
" />
<path d="M45760 1719
L45360 1719
" />
<path d="M45360 1719
L45360 4319
" />
<path d="M45360 4319
L46160 4319
" />
<path d="M46160 4319
L46160 1719
" />
<path d="M46160 1719
L45760 1719
" />
<path d="M45560 4319
L45360 4119
" />
<path d="M18260 22019
L18060 22019
" />
<path d="M15260 22019
L15460 22019
" />
<path d="M15460 22019
L15460 22419
" />
<path d="M15460 22419
L18060 22419
" />
<path d="M18060 22419
L18060 21619
" />
<path d="M18060 21619
L15460 21619
" />
<path d="M15460 21619
L15460 22019
" />
<path d="M18060 22219
L17860 22419
" />
<path d="M22260 25019
L22060 25019
" />
<path d="M19260 25019
L19460 25019
" />
<path d="M19460 25019
L19460 25419
" />
<path d="M19460 25419
L22060 25419
" />
<path d="M22060 25419
L22060 24619
" />
<path d="M22060 24619
L19460 24619
" />
<path d="M19460 24619
L19460 25019
" />
<path d="M22060 25219
L21860 25419
" />
<path d="M24510 18019
L24510 18219
" />
<path d="M24510 21019
L24510 20819
" />
<path d="M24510 20819
L24910 20819
" />
<path d="M24910 20819
L24910 18219
" />
<path d="M24910 18219
L24110 18219
" />
<path d="M24110 18219
L24110 20819
" />
<path d="M24110 20819
L24510 20819
" />
<path d="M24710 18219
L24910 18419
" />
</g>
<g style="fill:#008484; fill-opacity:0.0; 
stroke:#008484; stroke-width:60; stroke-opacity:1; 
stroke-linecap:round; stroke-linejoin:round;">
<path d="M47260 11519
L47260 12519
" />
<path d="M47260 12519
L45260 12519
" />
<path d="M45260 12519
L45260 11519
" />
<path d="M45260 11519
L47260 11519
" />
<path d="M21760 18519
L21760 17519
" />
<path d="M21760 17519
L23760 17519
" />
<path d="M23760 17519
L23760 18519
" />
<path d="M23760 18519
L21760 18519
" />
</g>
<g style="fill:#008484; fill-opacity:0.0; 
stroke:#008484; stroke-width:100; stroke-opacity:1; 
stroke-linecap:round; stroke-linejoin:round;">
<path d="M34260 6019
L34260 6519
" />
<path d="M34260 6519
L33260 6519
" />
<path d="M33260 6519
L33260 6019
" />
<path d="M34760 6019
L34760 10019
" />
<path d="M34760 10019
L32760 10019
" />
<path d="M32760 10019
L32760 6019
" />
<path d="M32760 6019
L34760 6019
" />
<path d="M48760 6019
L48760 6519
" />
<path d="M48760 6519
L47760 6519
" />
<path d="M47760 6519
L47760 6019
" />
<path d="M49260 6019
L49260 10019
" />
<path d="M49260 10019
L47260 10019
" />
<path d="M47260 10019
L47260 6019
" />
<path d="M47260 6019
L49260 6019
" />
<path d="M20260 24519
L20260 24019
" />
<path d="M20260 24019
L21260 24019
" />
<path d="M21260 24019
L21260 24519
" />
<path d="M19760 24519
L19760 20519
" />
<path d="M19760 20519
L21760 20519
" />
<path d="M21760 20519
L21760 24519
" />
<path d="M21760 24519
L19760 24519
" />
<path d="M19260 6019
L19260 6519
" />
<path d="M19260 6519
L18260 6519
" />
<path d="M18260 6519
L18260 6019
" />
<path d="M19760 6019
L19760 10019
" />
<path d="M19760 10019
L17760 10019
" />
<path d="M17760 10019
L17760 6019
" />
<path d="M17760 6019
L19760 6019
" />
</g>
<g style="fill:#008484; fill-opacity:0.0; 
stroke:#008484; stroke-width:120; stroke-opacity:1; 
stroke-linecap:round; stroke-linejoin:round;">
<path d="M30760 7999
L30760 6019
" />
<path d="M30760 6019
L31760 6019
" />
<path d="M31760 6019
L31760 8019
" />
<path d="M31760 8019
L30760 8019
" />
<path d="M31010 8019
L30760 7769
" />
<path d="M15760 7999
L15760 6019
" />
<path d="M15760 6019
L16760 6019
" />
<path d="M16760 6019
L16760 8019
" />
<path d="M16760 8019
L15760 8019
" />
<path d="M16010 8019
L15760 7769
" />
<path d="M45260 7999
L45260 6019
" />
<path d="M45260 6019
L46260 6019
" />
<path d="M46260 6019
L46260 8019
" />
<path d="M46260 8019
L45260 8019
" />
<path d="M45510 8019
L45260 7769
" />
<path d="M23760 22539
L23760 24519
" />
<path d="M23760 24519
L22760 24519
" />
<path d="M22760 24519
L22760 22519
" />
<path d="M22760 22519
L23760 22519
" />
<path d="M23510 22519
L23760 22769
" />
<path d="M16260 4769
L16260 4369
" />
<path d="M16260 4369
L15860 4369
" />
<path d="M15860 4369
L15860 1169
" />
<path d="M15860 1169
L16660 1169
" />
<path d="M16660 1169
L16660 4369
" />
<path d="M16660 4369
L16260 4369
" />
<path d="M16060 4369
L15860 4169
" />
<path d="M16260 769
L16260 1169
" />
<path d="M37660 5119
L37660 7919
" />
<path d="M37660 7919
L36860 7919
" />
<path d="M36860 7919
L36860 5119
" />
<path d="M36860 5119
L37660 5119
" />
<path d="M37460 5119
L37660 5319
" />
<path d="M22910 5119
L22910 7919
" />
<path d="M22910 7919
L22110 7919
" />
<path d="M22110 7919
L22110 5119
" />
<path d="M22110 5119
L22910 5119
" />
<path d="M22710 5119
L22910 5319
" />
<path d="M52410 5119
L52410 7919
" />
<path d="M52410 7919
L51610 7919
" />
<path d="M51610 7919
L51610 5119
" />
<path d="M51610 5119
L52410 5119
" />
<path d="M52210 5119
L52410 5319
" />
<path d="M16610 25419
L16610 22619
" />
<path d="M16610 22619
L17410 22619
" />
<path d="M17410 22619
L17410 25419
" />
<path d="M17410 25419
L16610 25419
" />
<path d="M16810 25419
L16610 25219
" />
<path d="M31860 24919
L31860 22119
" />
<path d="M31860 22119
L32660 22119
" />
<path d="M32660 22119
L32660 24919
" />
<path d="M32660 24919
L31860 24919
" />
<path d="M32060 24919
L31860 24719
" />
<path d="M31260 4519
L31260 4119
" />
<path d="M31260 4119
L30860 4119
" />
<path d="M30860 4119
L30860 919
" />
<path d="M30860 919
L31660 919
" />
<path d="M31660 919
L31660 4119
" />
<path d="M31660 4119
L31260 4119
" />
<path d="M31060 4119
L30860 3919
" />
<path d="M31260 519
L31260 919
" />
</g>
<g style="fill:#008484; fill-opacity:0.0; 
stroke:#008484; stroke-width:80; stroke-opacity:1; 
stroke-linecap:round; stroke-linejoin:round;">
<circle cx="28760" cy="6869.69" r="1400" /> 
<circle cx="40760" cy="23169.7" r="1400" /> 
<circle cx="25760" cy="23669.7" r="1400" /> 
<circle cx="43260" cy="6869.69" r="1400" /> 
<circle cx="13760" cy="6869.69" r="1400" /> 
</g>
<g style="fill:#008484; fill-opacity:0.0; 
stroke:#008484; stroke-width:60; stroke-opacity:1; 
stroke-linecap:round; stroke-linejoin:round;">
<path d="M17760 11519
L17760 12519
" />
<path d="M17760 12519
L15760 12519
" />
<path d="M15760 12519
L15760 11519
" />
<path d="M15760 11519
L17760 11519
" />
</g>
<g style="fill:#008484; fill-opacity:0.0; 
stroke:#008484; stroke-width:120; stroke-opacity:1; 
stroke-linecap:round; stroke-linejoin:round;">
<path d="M3010 5519
L8510 5519
" />
<path d="M5010 8519
L8510 8519
" />
<path d="M3010 7769
L5010 7769
" />
<path d="M3010 24269
L5010 24269
" />
<path d="M5010 23519
L8510 23519
" />
<path d="M8510 26519
L3010 26519
" />
<path d="M5010 5519
L5010 8519
" />
<path d="M5010 26519
L5010 23519
" />
<path d="M4260 8019
L3010 8019
" />
<path d="M4260 24019
L3010 24019
" />
<path d="M260 8019
L2510 8019
" />
<path d="M260 24019
L2510 24019
" />
<path d="M3010 5519
L2510 5519
" />
<path d="M2510 5519
L2510 26519
" />
<path d="M2510 26519
L3010 26519
" />
<path d="M3010 26519
L3010 5519
" />
<path d="M8510 8519
L8510 5519
" />
<path d="M4260 24019
L4260 8019
" />
<path d="M260 24019
L260 8019
" />
<path d="M8510 26519
L8510 23519
" />
</g>
<g style="fill:#008484; fill-opacity:0.0; 
stroke:#008484; stroke-width:60; stroke-opacity:1; 
stroke-linecap:round; stroke-linejoin:round;">
<path d="M34510 14519
L35510 14519
" />
<path d="M35510 14519
L35510 16519
" />
<path d="M35510 16519
L34510 16519
" />
<path d="M34510 16519
L34510 14519
" />
</g>
<g style="fill:#008484; fill-opacity:0.0; 
stroke:#008484; stroke-width:50; stroke-opacity:1; 
stroke-linecap:round; stroke-linejoin:round;">
<circle cx="28760" cy="18269.7" r="1001.25" /> 
<circle cx="26510" cy="18269.7" r="1001.25" /> 
</g>
<g style="fill:#008484; fill-opacity:0.0; 
stroke:#008484; stroke-width:120; stroke-opacity:1; 
stroke-linecap:round; stroke-linejoin:round;">
<path d="M45260 9999
L45260 8019
" />
<path d="M45260 8019
L46260 8019
" />
<path d="M46260 8019
L46260 10019
" />
<path d="M46260 10019
L45260 10019
" />
<path d="M45510 10019
L45260 9769
" />
<path d="M15760 9999
L15760 8019
" />
<path d="M15760 8019
L16760 8019
" />
<path d="M16760 8019
L16760 10019
" />
<path d="M16760 10019
L15760 10019
" />
<path d="M16010 10019
L15760 9769
" />
<path d="M30760 9999
L30760 8019
" />
<path d="M30760 8019
L31760 8019
" />
<path d="M31760 8019
L31760 10019
" />
<path d="M31760 10019
L30760 10019
" />
<path d="M31010 10019
L30760 9769
" />
<path d="M21660 4119
L21660 6919
" />
<path d="M21660 6919
L20860 6919
" />
<path d="M20860 6919
L20860 4119
" />
<path d="M20860 4119
L21660 4119
" />
<path d="M21460 4119
L21660 4319
" />
<path d="M17860 26419
L17860 23619
" />
<path d="M17860 23619
L18660 23619
" />
<path d="M18660 23619
L18660 26419
" />
<path d="M18660 26419
L17860 26419
" />
<path d="M18060 26419
L17860 26219
" />
<path d="M32860 25919
L32860 23119
" />
<path d="M32860 23119
L33660 23119
" />
<path d="M33660 23119
L33660 25919
" />
<path d="M33660 25919
L32860 25919
" />
<path d="M33060 25919
L32860 25719
" />
<path d="M36660 4119
L36660 6919
" />
<path d="M36660 6919
L35860 6919
" />
<path d="M35860 6919
L35860 4119
" />
<path d="M35860 4119
L36660 4119
" />
<path d="M36460 4119
L36660 4319
" />
<path d="M51160 4119
L51160 6919
" />
<path d="M51160 6919
L50360 6919
" />
<path d="M50360 6919
L50360 4119
" />
<path d="M50360 4119
L51160 4119
" />
<path d="M50960 4119
L51160 4319
" />
</g>
<g style="fill:#840000; fill-opacity:0.0; 
stroke:#840000; stroke-width:39.3701; stroke-opacity:1; 
stroke-linecap:round; stroke-linejoin:round;">
</g>
<g style="fill:#840000; fill-opacity:1.0; 
stroke:#840000; stroke-width:39.3701; stroke-opacity:1; 
stroke-linecap:round; stroke-linejoin:round;">
<circle cx="33260" cy="16019.7" r="275.591" /> 
<circle cx="32260" cy="16019.7" r="275.591" /> 
<circle cx="30260" cy="16019.7" r="275.591" /> 
<circle cx="29260" cy="16019.7" r="275.591" /> 
<circle cx="28260" cy="16019.7" r="275.591" /> 
<circle cx="27260" cy="13519.7" r="275.591" /> 
<circle cx="27260" cy="12019.7" r="275.591" /> 
<polyline style="fill-rule:evenodd;"
points="32540,11739
32540,12300
31979,12300
31979,11739
32540,11739
" /> 
<circle cx="31260" cy="12019.7" r="280.315" /> 
<polyline style="fill-rule:evenodd;"
points="36979,18300
36979,17739
37540,17739
37540,18300
36979,18300
" /> 
<circle cx="38260" cy="18019.7" r="280.315" /> 
<polyline style="fill-rule:evenodd;"
points="37515,23775
37004,23775
37004,23264
37515,23264
37515,23775
" /> 
<circle cx="37260" cy="22519.7" r="255.315" /> 
<circle cx="37260" cy="21519.7" r="255.315" /> 
<circle cx="37260" cy="20519.7" r="255.315" /> 
<circle cx="34260" cy="20519.7" r="255.315" /> 
<circle cx="34260" cy="21519.7" r="255.315" /> 
<circle cx="34260" cy="22519.7" r="255.315" /> 
<circle cx="34260" cy="23519.7" r="255.315" /> 
<circle cx="38260" cy="22519.7" r="255.315" /> 
<circle cx="38260" cy="23519.7" r="255.315" /> 
<circle cx="40760" cy="18019.7" r="255.315" /> 
<circle cx="40760" cy="21019.7" r="255.315" /> 
<circle cx="30260" cy="22519.7" r="255.315" /> 
<circle cx="30260" cy="25519.7" r="255.315" /> 
<circle cx="37260" cy="27019.7" r="255.315" /> 
<circle cx="34260" cy="27019.7" r="255.315" /> 
<circle cx="37260" cy="24519.7" r="255.315" /> 
<circle cx="34260" cy="24519.7" r="255.315" /> 
<circle cx="33260" cy="21519.7" r="255.315" /> 
<circle cx="30260" cy="21519.7" r="255.315" /> 
<circle cx="38260" cy="20519.7" r="255.315" /> 
<circle cx="38260" cy="21519.7" r="255.315" /> 
<circle cx="23260" cy="21019.7" r="255.315" /> 
<circle cx="23260" cy="22019.7" r="255.315" /> 
<circle cx="21260" cy="8519.69" r="255.315" /> 
<circle cx="24260" cy="8519.69" r="255.315" /> 
<circle cx="38660" cy="7519.69" r="255.315" /> 
<circle cx="38660" cy="4519.69" r="255.315" /> 
<circle cx="43260" cy="12019.7" r="255.315" /> 
<circle cx="43260" cy="9019.69" r="255.315" /> 
<circle cx="36260" cy="8519.69" r="255.315" /> 
<circle cx="39260" cy="8519.69" r="255.315" /> 
<circle cx="32260" cy="5519.69" r="255.315" /> 
<circle cx="35260" cy="5519.69" r="255.315" /> 
<circle cx="28760" cy="12019.7" r="255.315" /> 
<circle cx="28760" cy="9019.69" r="255.315" /> 
<circle cx="24260" cy="7519.69" r="255.315" /> 
<circle cx="24260" cy="4519.69" r="255.315" /> 
<circle cx="46760" cy="5519.69" r="255.315" /> 
<circle cx="49760" cy="5519.69" r="255.315" /> 
<circle cx="17260" cy="5519.69" r="255.315" /> 
<circle cx="20260" cy="5519.69" r="255.315" /> 
<circle cx="13760" cy="12019.7" r="255.315" /> 
<circle cx="13760" cy="9019.69" r="255.315" /> 
<circle cx="50760" cy="8519.69" r="255.315" /> 
<circle cx="53760" cy="8519.69" r="255.315" /> 
<circle cx="22260" cy="26019.7" r="255.315" /> 
<circle cx="22260" cy="29019.7" r="255.315" /> 
<circle cx="15260" cy="23019.7" r="255.315" /> 
<circle cx="15260" cy="26019.7" r="255.315" /> 
<circle cx="53760" cy="7519.69" r="255.315" /> 
<circle cx="53760" cy="4519.69" r="255.315" /> 
<circle cx="45760" cy="4519.69" r="255.315" /> 
<circle cx="45760" cy="1519.69" r="255.315" /> 
<circle cx="18260" cy="22019.7" r="255.315" /> 
<circle cx="15260" cy="22019.7" r="255.315" /> 
<circle cx="22260" cy="25019.7" r="255.315" /> 
<circle cx="19260" cy="25019.7" r="255.315" /> 
<circle cx="24510" cy="18019.7" r="255.315" /> 
<circle cx="24510" cy="21019.7" r="255.315" /> 
<polyline style="fill-rule:evenodd;"
points="47040,11739
47040,12300
46479,12300
46479,11739
47040,11739
" /> 
<circle cx="45760" cy="12019.7" r="280.315" /> 
<polyline style="fill-rule:evenodd;"
points="21979,18300
21979,17739
22540,17739
22540,18300
21979,18300
" /> 
<circle cx="23260" cy="18019.7" r="280.315" /> 
<polyline style="fill-rule:evenodd;"
points="32004,6264
32515,6264
32515,6775
32004,6775
32004,6264
" /> 
<circle cx="32260" cy="7519.69" r="255.315" /> 
<circle cx="32260" cy="8519.69" r="255.315" /> 
<circle cx="32260" cy="9519.69" r="255.315" /> 
<circle cx="35260" cy="9519.69" r="255.315" /> 
<circle cx="35260" cy="8519.69" r="255.315" /> 
<circle cx="35260" cy="7519.69" r="255.315" /> 
<circle cx="35260" cy="6519.69" r="255.315" /> 
<polyline style="fill-rule:evenodd;"
points="46504,6264
47015,6264
47015,6775
46504,6775
46504,6264
" /> 
<circle cx="46760" cy="7519.69" r="255.315" /> 
<circle cx="46760" cy="8519.69" r="255.315" /> 
<circle cx="46760" cy="9519.69" r="255.315" /> 
<circle cx="49760" cy="9519.69" r="255.315" /> 
<circle cx="49760" cy="8519.69" r="255.315" /> 
<circle cx="49760" cy="7519.69" r="255.315" /> 
<circle cx="49760" cy="6519.69" r="255.315" /> 
<polyline style="fill-rule:evenodd;"
points="22515,24275
22004,24275
22004,23764
22515,23764
22515,24275
" /> 
<circle cx="22260" cy="23019.7" r="255.315" /> 
<circle cx="22260" cy="22019.7" r="255.315" /> 
<circle cx="22260" cy="21019.7" r="255.315" /> 
<circle cx="19260" cy="21019.7" r="255.315" /> 
<circle cx="19260" cy="22019.7" r="255.315" /> 
<circle cx="19260" cy="23019.7" r="255.315" /> 
<circle cx="19260" cy="24019.7" r="255.315" /> 
<polyline style="fill-rule:evenodd;"
points="17004,6264
17515,6264
17515,6775
17004,6775
17004,6264
" /> 
<circle cx="17260" cy="7519.69" r="255.315" /> 
<circle cx="17260" cy="8519.69" r="255.315" /> 
<circle cx="17260" cy="9519.69" r="255.315" /> 
<circle cx="20260" cy="9519.69" r="255.315" /> 
<circle cx="20260" cy="8519.69" r="255.315" /> 
<circle cx="20260" cy="7519.69" r="255.315" /> 
<circle cx="20260" cy="6519.69" r="255.315" /> 
<circle cx="31260" cy="7519.69" r="255.315" /> 
<circle cx="31260" cy="6519.69" r="255.315" /> 
<circle cx="16260" cy="7519.69" r="255.315" /> 
<circle cx="16260" cy="6519.69" r="255.315" /> 
<circle cx="45760" cy="7519.69" r="255.315" /> 
<circle cx="45760" cy="6519.69" r="255.315" /> 
<circle cx="23260" cy="23019.7" r="255.315" /> 
<circle cx="23260" cy="24019.7" r="255.315" /> 
<circle cx="16260" cy="4769.69" r="280.315" /> 
<circle cx="16260" cy="769.685" r="280.315" /> 
<circle cx="37260" cy="5519.69" r="255.315" /> 
<circle cx="37260" cy="7519.69" r="255.315" /> 
<circle cx="22510" cy="5519.69" r="255.315" /> 
<circle cx="22510" cy="7519.69" r="255.315" /> 
<circle cx="52010" cy="5519.69" r="255.315" /> 
<circle cx="52010" cy="7519.69" r="255.315" /> 
<circle cx="17010" cy="25019.7" r="255.315" /> 
<circle cx="17010" cy="23019.7" r="255.315" /> 
<circle cx="32260" cy="24519.7" r="255.315" /> 
<circle cx="32260" cy="22519.7" r="255.315" /> 
<circle cx="31260" cy="4519.69" r="280.315" /> 
<circle cx="31260" cy="519.685" r="280.315" /> 
<circle cx="24260" cy="17019.7" r="275.591" /> 
<circle cx="29260" cy="17019.7" r="275.591" /> 
<circle cx="29760" cy="6519.69" r="280.315" /> 
<circle cx="28760" cy="7519.69" r="280.315" /> 
<circle cx="27760" cy="6519.69" r="280.315" /> 
<circle cx="28760" cy="6519.69" r="275.591" /> 
<circle cx="39760" cy="23519.7" r="280.315" /> 
<circle cx="40760" cy="22519.7" r="280.315" /> 
<circle cx="41760" cy="23519.7" r="280.315" /> 
<circle cx="40760" cy="23519.7" r="275.591" /> 
<circle cx="24760" cy="24019.7" r="280.315" /> 
<circle cx="25760" cy="23019.7" r="280.315" /> 
<circle cx="26760" cy="24019.7" r="280.315" /> 
<circle cx="25760" cy="24019.7" r="275.591" /> 
<circle cx="44260" cy="6519.69" r="280.315" /> 
<circle cx="43260" cy="7519.69" r="280.315" /> 
<circle cx="42260" cy="6519.69" r="280.315" /> 
<circle cx="43260" cy="6519.69" r="275.591" /> 
<circle cx="14760" cy="6519.69" r="280.315" /> 
<circle cx="13760" cy="7519.69" r="280.315" /> 
<circle cx="12760" cy="6519.69" r="280.315" /> 
<circle cx="13760" cy="6519.69" r="275.591" /> 
<polyline style="fill-rule:evenodd;"
points="17540,11739
17540,12300
16979,12300
16979,11739
17540,11739
" /> 
<circle cx="16260" cy="12019.7" r="280.315" /> 
<circle cx="7010" cy="6769.69" r="730.315" /> 
<circle cx="7010" cy="25269.7" r="730.315" /> 
<polyline style="fill-rule:evenodd;"
points="8290,22800
7729,22800
7729,22239
8290,22239
8290,22800
" /> 
<circle cx="8010" cy="21419.7" r="280.315" /> 
<circle cx="8010" cy="20369.7" r="280.315" /> 
<circle cx="8010" cy="19269.7" r="280.315" /> 
<circle cx="8010" cy="18169.7" r="280.315" /> 
<circle cx="8010" cy="17069.7" r="280.315" /> 
<circle cx="8010" cy="16019.7" r="280.315" /> 
<circle cx="8010" cy="14919.7" r="280.315" /> 
<circle cx="8010" cy="13819.7" r="280.315" /> 
<circle cx="8010" cy="12719.7" r="280.315" /> 
<circle cx="8010" cy="11669.7" r="280.315" /> 
<circle cx="8010" cy="10569.7" r="280.315" /> 
<circle cx="8010" cy="9469.69" r="280.315" /> 
<circle cx="7010" cy="21899.7" r="280.315" /> 
<circle cx="7010" cy="20899.7" r="280.315" /> 
<circle cx="7010" cy="19799.7" r="280.315" /> 
<circle cx="7010" cy="18719.7" r="280.315" /> 
<circle cx="7010" cy="17639.7" r="280.315" /> 
<circle cx="7010" cy="16539.7" r="280.315" /> 
<circle cx="7010" cy="15459.7" r="280.315" /> 
<circle cx="7010" cy="14379.7" r="280.315" /> 
<circle cx="7010" cy="13259.7" r="280.315" /> 
<circle cx="7010" cy="12199.7" r="280.315" /> 
<circle cx="7010" cy="11119.7" r="280.315" /> 
<circle cx="7010" cy="10019.7" r="280.315" /> 
<polyline style="fill-rule:evenodd;"
points="34729,14739
35290,14739
35290,15300
34729,15300
34729,14739
" /> 
<circle cx="35010" cy="16019.7" r="280.315" /> 
<circle cx="17260" cy="10519.7" r="275.591" /> 
<circle cx="27260" cy="10519.7" r="275.591" /> 
<circle cx="32260" cy="10519.7" r="275.591" /> 
<circle cx="42260" cy="10519.7" r="275.591" /> 
<circle cx="9260" cy="14769.7" r="275.591" /> 
<circle cx="14260" cy="14769.7" r="275.591" /> 
<circle cx="27260" cy="19519.7" r="275.591" /> 
<circle cx="37260" cy="19519.7" r="275.591" /> 
<polyline style="fill-rule:evenodd;"
points="28004,18525
28004,18014
28515,18014
28515,18525
28004,18525
" /> 
<circle cx="29260" cy="18269.7" r="255.315" /> 
<polyline style="fill-rule:evenodd;"
points="25754,18525
25754,18014
26265,18014
26265,18525
25754,18525
" /> 
<circle cx="27010" cy="18269.7" r="255.315" /> 
<circle cx="45760" cy="9519.69" r="255.315" /> 
<circle cx="45760" cy="8519.69" r="255.315" /> 
<circle cx="16260" cy="9519.69" r="255.315" /> 
<circle cx="16260" cy="8519.69" r="255.315" /> 
<circle cx="31260" cy="9519.69" r="255.315" /> 
<circle cx="31260" cy="8519.69" r="255.315" /> 
<circle cx="21260" cy="4519.69" r="255.315" /> 
<circle cx="21260" cy="6519.69" r="255.315" /> 
<circle cx="18260" cy="26019.7" r="255.315" /> 
<circle cx="18260" cy="24019.7" r="255.315" /> 
<circle cx="33260" cy="25519.7" r="255.315" /> 
<circle cx="33260" cy="23519.7" r="255.315" /> 
<circle cx="36260" cy="4519.69" r="255.315" /> 
<circle cx="36260" cy="6519.69" r="255.315" /> 
<circle cx="50760" cy="4519.69" r="255.315" /> 
<circle cx="50760" cy="6519.69" r="255.315" /> 
</g> 
</svg>
