G04 (created by PCBNEW (2013-mar-13)-testing) date Tue 07 May 2013 12:39:09 CEST*
%MOIN*%
G04 Gerber Fmt 3.4, Leading zero omitted, Abs format*
%FSLAX34Y34*%
G01*
G70*
G90*
G04 APERTURE LIST*
%ADD10C,0.011811*%
%ADD11C,0.00393701*%
%ADD12C,0.0590551*%
%ADD13R,0.06X0.06*%
%ADD14C,0.06*%
%ADD15R,0.055X0.055*%
%ADD16C,0.055*%
%ADD17C,0.15*%
%ADD18C,0.02*%
%ADD19C,0.01*%
G04 APERTURE END LIST*
G54D10*
X67017Y-33875D02*
X67017Y-33537D01*
X67017Y-33706D02*
X66426Y-33706D01*
X66510Y-33650D01*
X66567Y-33593D01*
X66595Y-33537D01*
X66426Y-34240D02*
X66426Y-34296D01*
X66454Y-34353D01*
X66482Y-34381D01*
X66539Y-34409D01*
X66651Y-34437D01*
X66792Y-34437D01*
X66904Y-34409D01*
X66960Y-34381D01*
X66989Y-34353D01*
X67017Y-34296D01*
X67017Y-34240D01*
X66989Y-34184D01*
X66960Y-34156D01*
X66904Y-34128D01*
X66792Y-34100D01*
X66651Y-34100D01*
X66539Y-34128D01*
X66482Y-34156D01*
X66454Y-34184D01*
X66426Y-34240D01*
X67017Y-35140D02*
X66623Y-35140D01*
X66679Y-35140D02*
X66651Y-35168D01*
X66623Y-35224D01*
X66623Y-35309D01*
X66651Y-35365D01*
X66707Y-35393D01*
X67017Y-35393D01*
X66707Y-35393D02*
X66651Y-35421D01*
X66623Y-35478D01*
X66623Y-35562D01*
X66651Y-35618D01*
X66707Y-35646D01*
X67017Y-35646D01*
X67017Y-35928D02*
X66623Y-35928D01*
X66679Y-35928D02*
X66651Y-35956D01*
X66623Y-36012D01*
X66623Y-36096D01*
X66651Y-36152D01*
X66707Y-36181D01*
X67017Y-36181D01*
X66707Y-36181D02*
X66651Y-36209D01*
X66623Y-36265D01*
X66623Y-36349D01*
X66651Y-36406D01*
X66707Y-36434D01*
X67017Y-36434D01*
X65767Y-28453D02*
X65767Y-28116D01*
X65767Y-28284D02*
X65176Y-28284D01*
X65260Y-28228D01*
X65317Y-28172D01*
X65345Y-28116D01*
X65767Y-29156D02*
X65373Y-29156D01*
X65176Y-29156D02*
X65204Y-29128D01*
X65232Y-29156D01*
X65204Y-29184D01*
X65176Y-29156D01*
X65232Y-29156D01*
X65373Y-29437D02*
X65767Y-29437D01*
X65429Y-29437D02*
X65401Y-29465D01*
X65373Y-29522D01*
X65373Y-29606D01*
X65401Y-29662D01*
X65457Y-29690D01*
X65767Y-29690D01*
X65739Y-30225D02*
X65767Y-30169D01*
X65767Y-30056D01*
X65739Y-30000D01*
X65710Y-29972D01*
X65654Y-29944D01*
X65485Y-29944D01*
X65429Y-29972D01*
X65401Y-30000D01*
X65373Y-30056D01*
X65373Y-30169D01*
X65401Y-30225D01*
X65767Y-30478D02*
X65176Y-30478D01*
X65767Y-30731D02*
X65457Y-30731D01*
X65401Y-30703D01*
X65373Y-30647D01*
X65373Y-30562D01*
X65401Y-30506D01*
X65429Y-30478D01*
X65457Y-31462D02*
X65457Y-31912D01*
X65626Y-31912D02*
X65626Y-31462D01*
X65232Y-32615D02*
X65204Y-32643D01*
X65176Y-32699D01*
X65176Y-32840D01*
X65204Y-32896D01*
X65232Y-32924D01*
X65289Y-32953D01*
X65345Y-32953D01*
X65429Y-32924D01*
X65767Y-32587D01*
X65767Y-32953D01*
X65176Y-33487D02*
X65176Y-33206D01*
X65457Y-33178D01*
X65429Y-33206D01*
X65401Y-33262D01*
X65401Y-33402D01*
X65429Y-33459D01*
X65457Y-33487D01*
X65514Y-33515D01*
X65654Y-33515D01*
X65710Y-33487D01*
X65739Y-33459D01*
X65767Y-33402D01*
X65767Y-33262D01*
X65739Y-33206D01*
X65710Y-33178D01*
X65739Y-33796D02*
X65767Y-33796D01*
X65823Y-33768D01*
X65851Y-33740D01*
X65373Y-34302D02*
X65767Y-34302D01*
X65148Y-34162D02*
X65570Y-34021D01*
X65570Y-34387D01*
X65767Y-35062D02*
X65373Y-35062D01*
X65429Y-35062D02*
X65401Y-35090D01*
X65373Y-35146D01*
X65373Y-35230D01*
X65401Y-35287D01*
X65457Y-35315D01*
X65767Y-35315D01*
X65457Y-35315D02*
X65401Y-35343D01*
X65373Y-35399D01*
X65373Y-35483D01*
X65401Y-35540D01*
X65457Y-35568D01*
X65767Y-35568D01*
X65767Y-35849D02*
X65373Y-35849D01*
X65429Y-35849D02*
X65401Y-35877D01*
X65373Y-35933D01*
X65373Y-36018D01*
X65401Y-36074D01*
X65457Y-36102D01*
X65767Y-36102D01*
X65457Y-36102D02*
X65401Y-36130D01*
X65373Y-36187D01*
X65373Y-36271D01*
X65401Y-36327D01*
X65457Y-36355D01*
X65767Y-36355D01*
X62624Y-41767D02*
X62962Y-41767D01*
X62793Y-41767D02*
X62793Y-41176D01*
X62849Y-41260D01*
X62906Y-41317D01*
X62962Y-41345D01*
X62259Y-41176D02*
X62203Y-41176D01*
X62146Y-41204D01*
X62118Y-41232D01*
X62090Y-41289D01*
X62062Y-41401D01*
X62062Y-41542D01*
X62090Y-41654D01*
X62118Y-41710D01*
X62146Y-41739D01*
X62203Y-41767D01*
X62259Y-41767D01*
X62315Y-41739D01*
X62343Y-41710D01*
X62371Y-41654D01*
X62399Y-41542D01*
X62399Y-41401D01*
X62371Y-41289D01*
X62343Y-41232D01*
X62315Y-41204D01*
X62259Y-41176D01*
X61359Y-41767D02*
X61359Y-41373D01*
X61359Y-41429D02*
X61331Y-41401D01*
X61275Y-41373D01*
X61190Y-41373D01*
X61134Y-41401D01*
X61106Y-41457D01*
X61106Y-41767D01*
X61106Y-41457D02*
X61078Y-41401D01*
X61021Y-41373D01*
X60937Y-41373D01*
X60881Y-41401D01*
X60853Y-41457D01*
X60853Y-41767D01*
X60571Y-41767D02*
X60571Y-41373D01*
X60571Y-41429D02*
X60543Y-41401D01*
X60487Y-41373D01*
X60403Y-41373D01*
X60347Y-41401D01*
X60318Y-41457D01*
X60318Y-41767D01*
X60318Y-41457D02*
X60290Y-41401D01*
X60234Y-41373D01*
X60150Y-41373D01*
X60093Y-41401D01*
X60065Y-41457D01*
X60065Y-41767D01*
X62546Y-40267D02*
X62883Y-40267D01*
X62715Y-40267D02*
X62715Y-39676D01*
X62771Y-39760D01*
X62827Y-39817D01*
X62883Y-39845D01*
X61843Y-40267D02*
X61843Y-39873D01*
X61843Y-39676D02*
X61871Y-39704D01*
X61843Y-39732D01*
X61815Y-39704D01*
X61843Y-39676D01*
X61843Y-39732D01*
X61562Y-39873D02*
X61562Y-40267D01*
X61562Y-39929D02*
X61534Y-39901D01*
X61477Y-39873D01*
X61393Y-39873D01*
X61337Y-39901D01*
X61309Y-39957D01*
X61309Y-40267D01*
X60774Y-40239D02*
X60830Y-40267D01*
X60943Y-40267D01*
X60999Y-40239D01*
X61027Y-40210D01*
X61055Y-40154D01*
X61055Y-39985D01*
X61027Y-39929D01*
X60999Y-39901D01*
X60943Y-39873D01*
X60830Y-39873D01*
X60774Y-39901D01*
X60521Y-40267D02*
X60521Y-39676D01*
X60268Y-40267D02*
X60268Y-39957D01*
X60296Y-39901D01*
X60352Y-39873D01*
X60437Y-39873D01*
X60493Y-39901D01*
X60521Y-39929D01*
X59537Y-39957D02*
X59087Y-39957D01*
X59087Y-40126D02*
X59537Y-40126D01*
X58384Y-39732D02*
X58356Y-39704D01*
X58300Y-39676D01*
X58159Y-39676D01*
X58103Y-39704D01*
X58075Y-39732D01*
X58046Y-39789D01*
X58046Y-39845D01*
X58075Y-39929D01*
X58412Y-40267D01*
X58046Y-40267D01*
X57512Y-39676D02*
X57793Y-39676D01*
X57821Y-39957D01*
X57793Y-39929D01*
X57737Y-39901D01*
X57597Y-39901D01*
X57540Y-39929D01*
X57512Y-39957D01*
X57484Y-40014D01*
X57484Y-40154D01*
X57512Y-40210D01*
X57540Y-40239D01*
X57597Y-40267D01*
X57737Y-40267D01*
X57793Y-40239D01*
X57821Y-40210D01*
X57203Y-40239D02*
X57203Y-40267D01*
X57231Y-40323D01*
X57259Y-40351D01*
X56697Y-39873D02*
X56697Y-40267D01*
X56837Y-39648D02*
X56978Y-40070D01*
X56612Y-40070D01*
X55937Y-40267D02*
X55937Y-39873D01*
X55937Y-39929D02*
X55909Y-39901D01*
X55853Y-39873D01*
X55769Y-39873D01*
X55712Y-39901D01*
X55684Y-39957D01*
X55684Y-40267D01*
X55684Y-39957D02*
X55656Y-39901D01*
X55600Y-39873D01*
X55516Y-39873D01*
X55459Y-39901D01*
X55431Y-39957D01*
X55431Y-40267D01*
X55150Y-40267D02*
X55150Y-39873D01*
X55150Y-39929D02*
X55122Y-39901D01*
X55066Y-39873D01*
X54981Y-39873D01*
X54925Y-39901D01*
X54897Y-39957D01*
X54897Y-40267D01*
X54897Y-39957D02*
X54869Y-39901D01*
X54812Y-39873D01*
X54728Y-39873D01*
X54672Y-39901D01*
X54644Y-39957D01*
X54644Y-40267D01*
G54D11*
X14250Y-12500D02*
X14250Y-13250D01*
X68000Y-12500D02*
X14250Y-12500D01*
X68000Y-42500D02*
X68000Y-12500D01*
X14250Y-42500D02*
X68000Y-42500D01*
X14250Y-13000D02*
X14250Y-42500D01*
G54D10*
X62299Y-29856D02*
X62674Y-29856D01*
X62674Y-29068D01*
X61699Y-29856D02*
X61699Y-29443D01*
X61737Y-29368D01*
X61812Y-29331D01*
X61962Y-29331D01*
X62037Y-29368D01*
X61699Y-29818D02*
X61774Y-29856D01*
X61962Y-29856D01*
X62037Y-29818D01*
X62074Y-29743D01*
X62074Y-29668D01*
X62037Y-29593D01*
X61962Y-29556D01*
X61774Y-29556D01*
X61699Y-29518D01*
X61362Y-29818D02*
X61287Y-29856D01*
X61137Y-29856D01*
X61062Y-29818D01*
X61024Y-29743D01*
X61024Y-29706D01*
X61062Y-29631D01*
X61137Y-29593D01*
X61249Y-29593D01*
X61324Y-29556D01*
X61362Y-29481D01*
X61362Y-29443D01*
X61324Y-29368D01*
X61249Y-29331D01*
X61137Y-29331D01*
X61062Y-29368D01*
X60387Y-29818D02*
X60462Y-29856D01*
X60612Y-29856D01*
X60687Y-29818D01*
X60724Y-29743D01*
X60724Y-29443D01*
X60687Y-29368D01*
X60612Y-29331D01*
X60462Y-29331D01*
X60387Y-29368D01*
X60349Y-29443D01*
X60349Y-29518D01*
X60724Y-29593D01*
X60012Y-29856D02*
X60012Y-29331D01*
X60012Y-29481D02*
X59974Y-29406D01*
X59937Y-29368D01*
X59862Y-29331D01*
X59787Y-29331D01*
X58925Y-29856D02*
X58925Y-29068D01*
X58737Y-29068D01*
X58625Y-29106D01*
X58550Y-29181D01*
X58512Y-29256D01*
X58475Y-29406D01*
X58475Y-29518D01*
X58512Y-29668D01*
X58550Y-29743D01*
X58625Y-29818D01*
X58737Y-29856D01*
X58925Y-29856D01*
X58137Y-29856D02*
X58137Y-29331D01*
X58137Y-29481D02*
X58100Y-29406D01*
X58062Y-29368D01*
X57987Y-29331D01*
X57912Y-29331D01*
X57312Y-29856D02*
X57312Y-29443D01*
X57350Y-29368D01*
X57425Y-29331D01*
X57575Y-29331D01*
X57650Y-29368D01*
X57312Y-29818D02*
X57387Y-29856D01*
X57575Y-29856D01*
X57650Y-29818D01*
X57687Y-29743D01*
X57687Y-29668D01*
X57650Y-29593D01*
X57575Y-29556D01*
X57387Y-29556D01*
X57312Y-29518D01*
X57012Y-29331D02*
X56862Y-29856D01*
X56712Y-29481D01*
X56562Y-29856D01*
X56412Y-29331D01*
X55812Y-29818D02*
X55887Y-29856D01*
X56037Y-29856D01*
X56112Y-29818D01*
X56150Y-29743D01*
X56150Y-29443D01*
X56112Y-29368D01*
X56037Y-29331D01*
X55887Y-29331D01*
X55812Y-29368D01*
X55775Y-29443D01*
X55775Y-29518D01*
X56150Y-29593D01*
X55437Y-29856D02*
X55437Y-29331D01*
X55437Y-29481D02*
X55400Y-29406D01*
X55362Y-29368D01*
X55287Y-29331D01*
X55212Y-29331D01*
X63686Y-30851D02*
X63311Y-30851D01*
X63761Y-31076D02*
X63499Y-30289D01*
X63236Y-31076D01*
X62974Y-30551D02*
X62974Y-31076D01*
X62974Y-30626D02*
X62937Y-30589D01*
X62862Y-30551D01*
X62749Y-30551D01*
X62674Y-30589D01*
X62637Y-30664D01*
X62637Y-31076D01*
X62374Y-30551D02*
X62074Y-30551D01*
X62262Y-30289D02*
X62262Y-30964D01*
X62224Y-31039D01*
X62149Y-31076D01*
X62074Y-31076D01*
X61699Y-31076D02*
X61774Y-31039D01*
X61812Y-31001D01*
X61849Y-30926D01*
X61849Y-30701D01*
X61812Y-30626D01*
X61774Y-30589D01*
X61699Y-30551D01*
X61587Y-30551D01*
X61512Y-30589D01*
X61474Y-30626D01*
X61437Y-30701D01*
X61437Y-30926D01*
X61474Y-31001D01*
X61512Y-31039D01*
X61587Y-31076D01*
X61699Y-31076D01*
X61099Y-31076D02*
X61099Y-30551D01*
X61099Y-30289D02*
X61137Y-30326D01*
X61099Y-30364D01*
X61062Y-30326D01*
X61099Y-30289D01*
X61099Y-30364D01*
X60724Y-30551D02*
X60724Y-31076D01*
X60724Y-30626D02*
X60687Y-30589D01*
X60612Y-30551D01*
X60499Y-30551D01*
X60424Y-30589D01*
X60387Y-30664D01*
X60387Y-31076D01*
X59712Y-31039D02*
X59787Y-31076D01*
X59937Y-31076D01*
X60012Y-31039D01*
X60049Y-30964D01*
X60049Y-30664D01*
X60012Y-30589D01*
X59937Y-30551D01*
X59787Y-30551D01*
X59712Y-30589D01*
X59674Y-30664D01*
X59674Y-30739D01*
X60049Y-30814D01*
X58850Y-30289D02*
X58587Y-31076D01*
X58325Y-30289D01*
X58062Y-31076D02*
X58062Y-30551D01*
X58062Y-30289D02*
X58100Y-30326D01*
X58062Y-30364D01*
X58025Y-30326D01*
X58062Y-30289D01*
X58062Y-30364D01*
X57575Y-31076D02*
X57650Y-31039D01*
X57687Y-30964D01*
X57687Y-30289D01*
X57162Y-31076D02*
X57237Y-31039D01*
X57275Y-30964D01*
X57275Y-30289D01*
X56562Y-31039D02*
X56637Y-31076D01*
X56787Y-31076D01*
X56862Y-31039D01*
X56900Y-30964D01*
X56900Y-30664D01*
X56862Y-30589D01*
X56787Y-30551D01*
X56637Y-30551D01*
X56562Y-30589D01*
X56525Y-30664D01*
X56525Y-30739D01*
X56900Y-30814D01*
X56187Y-31076D02*
X56187Y-30551D01*
X56187Y-30701D02*
X56150Y-30626D01*
X56112Y-30589D01*
X56037Y-30551D01*
X55962Y-30551D01*
X55400Y-31039D02*
X55475Y-31076D01*
X55625Y-31076D01*
X55700Y-31039D01*
X55737Y-30964D01*
X55737Y-30664D01*
X55700Y-30589D01*
X55625Y-30551D01*
X55475Y-30551D01*
X55400Y-30589D01*
X55362Y-30664D01*
X55362Y-30739D01*
X55737Y-30814D01*
X55137Y-30551D02*
X54838Y-30551D01*
X55025Y-30289D02*
X55025Y-30964D01*
X54988Y-31039D01*
X54913Y-31076D01*
X54838Y-31076D01*
X63855Y-32259D02*
X63930Y-32297D01*
X64080Y-32297D01*
X64155Y-32259D01*
X64193Y-32184D01*
X64193Y-31884D01*
X64155Y-31809D01*
X64080Y-31772D01*
X63930Y-31772D01*
X63855Y-31809D01*
X63818Y-31884D01*
X63818Y-31959D01*
X64193Y-32034D01*
X63480Y-31772D02*
X63480Y-32297D01*
X63480Y-31847D02*
X63443Y-31809D01*
X63368Y-31772D01*
X63255Y-31772D01*
X63180Y-31809D01*
X63143Y-31884D01*
X63143Y-32297D01*
X62805Y-32259D02*
X62730Y-32297D01*
X62580Y-32297D01*
X62505Y-32259D01*
X62468Y-32184D01*
X62468Y-32147D01*
X62505Y-32072D01*
X62580Y-32034D01*
X62693Y-32034D01*
X62768Y-31997D01*
X62805Y-31922D01*
X62805Y-31884D01*
X62768Y-31809D01*
X62693Y-31772D01*
X62580Y-31772D01*
X62505Y-31809D01*
X61793Y-32297D02*
X61793Y-31884D01*
X61830Y-31809D01*
X61905Y-31772D01*
X62055Y-31772D01*
X62130Y-31809D01*
X61793Y-32259D02*
X61868Y-32297D01*
X62055Y-32297D01*
X62130Y-32259D01*
X62168Y-32184D01*
X62168Y-32109D01*
X62130Y-32034D01*
X62055Y-31997D01*
X61868Y-31997D01*
X61793Y-31959D01*
X61080Y-32297D02*
X61080Y-31509D01*
X61080Y-32259D02*
X61155Y-32297D01*
X61305Y-32297D01*
X61380Y-32259D01*
X61418Y-32222D01*
X61455Y-32147D01*
X61455Y-31922D01*
X61418Y-31847D01*
X61380Y-31809D01*
X61305Y-31772D01*
X61155Y-31772D01*
X61080Y-31809D01*
X60331Y-32297D02*
X60706Y-32297D01*
X60706Y-31509D01*
X59731Y-32297D02*
X59731Y-31884D01*
X59768Y-31809D01*
X59843Y-31772D01*
X59993Y-31772D01*
X60068Y-31809D01*
X59731Y-32259D02*
X59806Y-32297D01*
X59993Y-32297D01*
X60068Y-32259D01*
X60106Y-32184D01*
X60106Y-32109D01*
X60068Y-32034D01*
X59993Y-31997D01*
X59806Y-31997D01*
X59731Y-31959D01*
X59356Y-32297D02*
X59356Y-31509D01*
X59356Y-31809D02*
X59281Y-31772D01*
X59131Y-31772D01*
X59056Y-31809D01*
X59018Y-31847D01*
X58981Y-31922D01*
X58981Y-32147D01*
X59018Y-32222D01*
X59056Y-32259D01*
X59131Y-32297D01*
X59281Y-32297D01*
X59356Y-32259D01*
X58043Y-31997D02*
X57443Y-31997D01*
X56506Y-31584D02*
X56469Y-31547D01*
X56394Y-31509D01*
X56206Y-31509D01*
X56131Y-31547D01*
X56094Y-31584D01*
X56056Y-31659D01*
X56056Y-31734D01*
X56094Y-31847D01*
X56544Y-32297D01*
X56056Y-32297D01*
X55569Y-31509D02*
X55494Y-31509D01*
X55419Y-31547D01*
X55381Y-31584D01*
X55344Y-31659D01*
X55306Y-31809D01*
X55306Y-31997D01*
X55344Y-32147D01*
X55381Y-32222D01*
X55419Y-32259D01*
X55494Y-32297D01*
X55569Y-32297D01*
X55644Y-32259D01*
X55681Y-32222D01*
X55719Y-32147D01*
X55756Y-31997D01*
X55756Y-31809D01*
X55719Y-31659D01*
X55681Y-31584D01*
X55644Y-31547D01*
X55569Y-31509D01*
X54556Y-32297D02*
X55006Y-32297D01*
X54781Y-32297D02*
X54781Y-31509D01*
X54856Y-31622D01*
X54931Y-31697D01*
X55006Y-31734D01*
X54294Y-31509D02*
X53806Y-31509D01*
X54069Y-31809D01*
X53956Y-31809D01*
X53881Y-31847D01*
X53844Y-31884D01*
X53806Y-31959D01*
X53806Y-32147D01*
X53844Y-32222D01*
X53881Y-32259D01*
X53956Y-32297D01*
X54181Y-32297D01*
X54256Y-32259D01*
X54294Y-32222D01*
X27317Y-25767D02*
X27514Y-25485D01*
X27654Y-25767D02*
X27654Y-25176D01*
X27429Y-25176D01*
X27373Y-25204D01*
X27345Y-25232D01*
X27317Y-25289D01*
X27317Y-25373D01*
X27345Y-25429D01*
X27373Y-25457D01*
X27429Y-25485D01*
X27654Y-25485D01*
X29449Y-25204D02*
X29506Y-25176D01*
X29590Y-25176D01*
X29674Y-25204D01*
X29731Y-25260D01*
X29759Y-25317D01*
X29787Y-25429D01*
X29787Y-25514D01*
X29759Y-25626D01*
X29731Y-25682D01*
X29674Y-25739D01*
X29590Y-25767D01*
X29534Y-25767D01*
X29449Y-25739D01*
X29421Y-25710D01*
X29421Y-25514D01*
X29534Y-25514D01*
X29168Y-25767D02*
X29168Y-25176D01*
X28831Y-25767D01*
X28831Y-25176D01*
X28550Y-25767D02*
X28550Y-25176D01*
X28409Y-25176D01*
X28325Y-25204D01*
X28268Y-25260D01*
X28240Y-25317D01*
X28212Y-25429D01*
X28212Y-25514D01*
X28240Y-25626D01*
X28268Y-25682D01*
X28325Y-25739D01*
X28409Y-25767D01*
X28550Y-25767D01*
X56957Y-25457D02*
X56873Y-25485D01*
X56845Y-25514D01*
X56817Y-25570D01*
X56817Y-25654D01*
X56845Y-25710D01*
X56873Y-25739D01*
X56929Y-25767D01*
X57154Y-25767D01*
X57154Y-25176D01*
X56957Y-25176D01*
X56901Y-25204D01*
X56873Y-25232D01*
X56845Y-25289D01*
X56845Y-25345D01*
X56873Y-25401D01*
X56901Y-25429D01*
X56957Y-25457D01*
X57154Y-25457D01*
X58949Y-25204D02*
X59006Y-25176D01*
X59090Y-25176D01*
X59174Y-25204D01*
X59231Y-25260D01*
X59259Y-25317D01*
X59287Y-25429D01*
X59287Y-25514D01*
X59259Y-25626D01*
X59231Y-25682D01*
X59174Y-25739D01*
X59090Y-25767D01*
X59034Y-25767D01*
X58949Y-25739D01*
X58921Y-25710D01*
X58921Y-25514D01*
X59034Y-25514D01*
X58668Y-25767D02*
X58668Y-25176D01*
X58331Y-25767D01*
X58331Y-25176D01*
X58050Y-25767D02*
X58050Y-25176D01*
X57909Y-25176D01*
X57825Y-25204D01*
X57768Y-25260D01*
X57740Y-25317D01*
X57712Y-25429D01*
X57712Y-25514D01*
X57740Y-25626D01*
X57768Y-25682D01*
X57825Y-25739D01*
X57909Y-25767D01*
X58050Y-25767D01*
X45199Y-25204D02*
X45256Y-25176D01*
X45340Y-25176D01*
X45424Y-25204D01*
X45481Y-25260D01*
X45509Y-25317D01*
X45537Y-25429D01*
X45537Y-25514D01*
X45509Y-25626D01*
X45481Y-25682D01*
X45424Y-25739D01*
X45340Y-25767D01*
X45284Y-25767D01*
X45199Y-25739D01*
X45171Y-25710D01*
X45171Y-25514D01*
X45284Y-25514D01*
X44918Y-25767D02*
X44918Y-25176D01*
X44581Y-25767D01*
X44581Y-25176D01*
X44300Y-25767D02*
X44300Y-25176D01*
X44159Y-25176D01*
X44075Y-25204D01*
X44018Y-25260D01*
X43990Y-25317D01*
X43962Y-25429D01*
X43962Y-25514D01*
X43990Y-25626D01*
X44018Y-25682D01*
X44075Y-25739D01*
X44159Y-25767D01*
X44300Y-25767D01*
X42345Y-25204D02*
X42401Y-25176D01*
X42485Y-25176D01*
X42570Y-25204D01*
X42626Y-25260D01*
X42654Y-25317D01*
X42682Y-25429D01*
X42682Y-25514D01*
X42654Y-25626D01*
X42626Y-25682D01*
X42570Y-25739D01*
X42485Y-25767D01*
X42429Y-25767D01*
X42345Y-25739D01*
X42317Y-25710D01*
X42317Y-25514D01*
X42429Y-25514D01*
X49696Y-31176D02*
X49303Y-31767D01*
X49303Y-31176D02*
X49696Y-31767D01*
X47449Y-31204D02*
X47506Y-31176D01*
X47590Y-31176D01*
X47674Y-31204D01*
X47731Y-31260D01*
X47759Y-31317D01*
X47787Y-31429D01*
X47787Y-31514D01*
X47759Y-31626D01*
X47731Y-31682D01*
X47674Y-31739D01*
X47590Y-31767D01*
X47534Y-31767D01*
X47449Y-31739D01*
X47421Y-31710D01*
X47421Y-31514D01*
X47534Y-31514D01*
X47168Y-31767D02*
X47168Y-31176D01*
X46831Y-31767D01*
X46831Y-31176D01*
X46550Y-31767D02*
X46550Y-31176D01*
X46409Y-31176D01*
X46325Y-31204D01*
X46268Y-31260D01*
X46240Y-31317D01*
X46212Y-31429D01*
X46212Y-31514D01*
X46240Y-31626D01*
X46268Y-31682D01*
X46325Y-31739D01*
X46409Y-31767D01*
X46550Y-31767D01*
X34500Y-31485D02*
X34500Y-31767D01*
X34696Y-31176D02*
X34500Y-31485D01*
X34303Y-31176D01*
X33449Y-31204D02*
X33506Y-31176D01*
X33590Y-31176D01*
X33674Y-31204D01*
X33731Y-31260D01*
X33759Y-31317D01*
X33787Y-31429D01*
X33787Y-31514D01*
X33759Y-31626D01*
X33731Y-31682D01*
X33674Y-31739D01*
X33590Y-31767D01*
X33534Y-31767D01*
X33449Y-31739D01*
X33421Y-31710D01*
X33421Y-31514D01*
X33534Y-31514D01*
X33168Y-31767D02*
X33168Y-31176D01*
X32831Y-31767D01*
X32831Y-31176D01*
X32550Y-31767D02*
X32550Y-31176D01*
X32409Y-31176D01*
X32325Y-31204D01*
X32268Y-31260D01*
X32240Y-31317D01*
X32212Y-31429D01*
X32212Y-31514D01*
X32240Y-31626D01*
X32268Y-31682D01*
X32325Y-31739D01*
X32409Y-31767D01*
X32550Y-31767D01*
X47204Y-28050D02*
X47176Y-27993D01*
X47176Y-27909D01*
X47204Y-27825D01*
X47260Y-27768D01*
X47317Y-27740D01*
X47429Y-27712D01*
X47514Y-27712D01*
X47626Y-27740D01*
X47682Y-27768D01*
X47739Y-27825D01*
X47767Y-27909D01*
X47767Y-27965D01*
X47739Y-28050D01*
X47710Y-28078D01*
X47514Y-28078D01*
X47514Y-27965D01*
X47767Y-28331D02*
X47176Y-28331D01*
X47767Y-28668D01*
X47176Y-28668D01*
X47767Y-28949D02*
X47176Y-28949D01*
X47176Y-29090D01*
X47204Y-29174D01*
X47260Y-29231D01*
X47317Y-29259D01*
X47429Y-29287D01*
X47514Y-29287D01*
X47626Y-29259D01*
X47682Y-29231D01*
X47739Y-29174D01*
X47767Y-29090D01*
X47767Y-28949D01*
X47542Y-25740D02*
X47542Y-26190D01*
X47767Y-25965D02*
X47317Y-25965D01*
X47176Y-26753D02*
X47176Y-26471D01*
X47457Y-26443D01*
X47429Y-26471D01*
X47401Y-26528D01*
X47401Y-26668D01*
X47429Y-26724D01*
X47457Y-26753D01*
X47514Y-26781D01*
X47654Y-26781D01*
X47710Y-26753D01*
X47739Y-26724D01*
X47767Y-26668D01*
X47767Y-26528D01*
X47739Y-26471D01*
X47710Y-26443D01*
X47176Y-26949D02*
X47767Y-27146D01*
X47176Y-27343D01*
G54D12*
X38500Y-26000D03*
X38500Y-24500D03*
G54D13*
X43500Y-24500D03*
G54D14*
X42500Y-24500D03*
G54D13*
X48500Y-30500D03*
G54D14*
X49500Y-30500D03*
G54D15*
X48500Y-36000D03*
G54D16*
X48500Y-35000D03*
X48500Y-34000D03*
X48500Y-33000D03*
X45500Y-33000D03*
X45500Y-34000D03*
X45500Y-35000D03*
X45500Y-36000D03*
X49500Y-35000D03*
X49500Y-36000D03*
X52000Y-30500D03*
X52000Y-33500D03*
X41500Y-35000D03*
X41500Y-38000D03*
X48500Y-39500D03*
X45500Y-39500D03*
X48500Y-37000D03*
X45500Y-37000D03*
X44500Y-34000D03*
X41500Y-34000D03*
X49500Y-33000D03*
X49500Y-34000D03*
X34500Y-33500D03*
X34500Y-34500D03*
X32500Y-21000D03*
X35500Y-21000D03*
X49900Y-20000D03*
X49900Y-17000D03*
X54500Y-24500D03*
X54500Y-21500D03*
X47500Y-21000D03*
X50500Y-21000D03*
X43500Y-18000D03*
X46500Y-18000D03*
X40000Y-24500D03*
X40000Y-21500D03*
X35500Y-20000D03*
X35500Y-17000D03*
X58000Y-18000D03*
X61000Y-18000D03*
X28500Y-18000D03*
X31500Y-18000D03*
X25000Y-24500D03*
X25000Y-21500D03*
X62000Y-21000D03*
X65000Y-21000D03*
X33500Y-38500D03*
X33500Y-41500D03*
X26500Y-35500D03*
X26500Y-38500D03*
X65000Y-20000D03*
X65000Y-17000D03*
X57000Y-17000D03*
X57000Y-14000D03*
X29500Y-34500D03*
X26500Y-34500D03*
X33500Y-37500D03*
X30500Y-37500D03*
X35750Y-30500D03*
X35750Y-33500D03*
G54D13*
X58000Y-24500D03*
G54D14*
X57000Y-24500D03*
G54D13*
X33500Y-30500D03*
G54D14*
X34500Y-30500D03*
G54D15*
X43500Y-19000D03*
G54D16*
X43500Y-20000D03*
X43500Y-21000D03*
X43500Y-22000D03*
X46500Y-22000D03*
X46500Y-21000D03*
X46500Y-20000D03*
X46500Y-19000D03*
G54D15*
X58000Y-19000D03*
G54D16*
X58000Y-20000D03*
X58000Y-21000D03*
X58000Y-22000D03*
X61000Y-22000D03*
X61000Y-21000D03*
X61000Y-20000D03*
X61000Y-19000D03*
G54D15*
X33500Y-36500D03*
G54D16*
X33500Y-35500D03*
X33500Y-34500D03*
X33500Y-33500D03*
X30500Y-33500D03*
X30500Y-34500D03*
X30500Y-35500D03*
X30500Y-36500D03*
G54D15*
X28500Y-19000D03*
G54D16*
X28500Y-20000D03*
X28500Y-21000D03*
X28500Y-22000D03*
X31500Y-22000D03*
X31500Y-21000D03*
X31500Y-20000D03*
X31500Y-19000D03*
X42500Y-20000D03*
X42500Y-19000D03*
X27500Y-20000D03*
X27500Y-19000D03*
X57000Y-20000D03*
X57000Y-19000D03*
X34500Y-35500D03*
X34500Y-36500D03*
G54D14*
X27500Y-17250D03*
X27500Y-13250D03*
G54D16*
X48500Y-18000D03*
X48500Y-20000D03*
X33750Y-18000D03*
X33750Y-20000D03*
X63250Y-18000D03*
X63250Y-20000D03*
X28250Y-37500D03*
X28250Y-35500D03*
X43500Y-37000D03*
X43500Y-35000D03*
G54D14*
X42500Y-17000D03*
X42500Y-13000D03*
G54D12*
X36500Y-29500D03*
X41500Y-29500D03*
G54D14*
X41000Y-19000D03*
X40000Y-20000D03*
X39000Y-19000D03*
G54D12*
X40000Y-19000D03*
G54D14*
X51000Y-36000D03*
X52000Y-35000D03*
X53000Y-36000D03*
G54D12*
X52000Y-36000D03*
G54D14*
X36000Y-36500D03*
X37000Y-35500D03*
X38000Y-36500D03*
G54D12*
X37000Y-36500D03*
G54D14*
X55500Y-19000D03*
X54500Y-20000D03*
X53500Y-19000D03*
G54D12*
X54500Y-19000D03*
G54D14*
X26000Y-19000D03*
X25000Y-20000D03*
X24000Y-19000D03*
G54D12*
X25000Y-19000D03*
G54D13*
X28500Y-24500D03*
G54D14*
X27500Y-24500D03*
G54D17*
X18250Y-19250D03*
X18250Y-37750D03*
G54D13*
X19250Y-35000D03*
G54D14*
X19250Y-33900D03*
X19250Y-32850D03*
X19250Y-31750D03*
X19250Y-30650D03*
X19250Y-29550D03*
X19250Y-28500D03*
X19250Y-27400D03*
X19250Y-26300D03*
X19250Y-25200D03*
X19250Y-24150D03*
X19250Y-23050D03*
X19250Y-21950D03*
X18250Y-34380D03*
X18250Y-33380D03*
X18250Y-32280D03*
X18250Y-31200D03*
X18250Y-30120D03*
X18250Y-29020D03*
X18250Y-27940D03*
X18250Y-26860D03*
X18250Y-25740D03*
X18250Y-24680D03*
X18250Y-23600D03*
X18250Y-22500D03*
G54D13*
X46500Y-28000D03*
G54D14*
X46500Y-27000D03*
G54D12*
X28500Y-23000D03*
X38500Y-23000D03*
X43500Y-23000D03*
X53500Y-23000D03*
X20500Y-27250D03*
X25500Y-27250D03*
X38500Y-32000D03*
X48500Y-32000D03*
G54D15*
X39500Y-30750D03*
G54D16*
X40500Y-30750D03*
G54D15*
X37250Y-30750D03*
G54D16*
X38250Y-30750D03*
X57000Y-22000D03*
X57000Y-21000D03*
X27500Y-22000D03*
X27500Y-21000D03*
X42500Y-22000D03*
X42500Y-21000D03*
X32500Y-17000D03*
X32500Y-19000D03*
X29500Y-38500D03*
X29500Y-36500D03*
X44500Y-38000D03*
X44500Y-36000D03*
X47500Y-17000D03*
X47500Y-19000D03*
X62000Y-17000D03*
X62000Y-19000D03*
G54D12*
X44500Y-27000D03*
X43500Y-27000D03*
X41500Y-27000D03*
X40500Y-27000D03*
X39500Y-27000D03*
G54D18*
X67322Y-36513D02*
X67322Y-32576D01*
X59118Y-41970D02*
X63055Y-41970D01*
X66000Y-36500D02*
X66000Y-26500D01*
X53000Y-40500D02*
X63000Y-40500D01*
X38500Y-24500D02*
X39000Y-24500D01*
X39000Y-24500D02*
X41500Y-27000D01*
X28500Y-22000D02*
X27500Y-22000D01*
X53500Y-23000D02*
X56000Y-23000D01*
X56000Y-23000D02*
X57000Y-22000D01*
X57000Y-22000D02*
X58000Y-22000D01*
X38500Y-24500D02*
X38500Y-23000D01*
X38500Y-23000D02*
X41500Y-23000D01*
X41500Y-23000D02*
X42500Y-22000D01*
X43500Y-22000D02*
X43500Y-23000D01*
X43500Y-22000D02*
X42500Y-22000D01*
X38500Y-27000D02*
X38500Y-26000D01*
X28500Y-23000D02*
X28500Y-22000D01*
X34500Y-33500D02*
X35500Y-32500D01*
X38000Y-32500D02*
X38500Y-32000D01*
X35500Y-32500D02*
X38000Y-32500D01*
X33500Y-33500D02*
X34500Y-33500D01*
X48500Y-33000D02*
X49500Y-33000D01*
X48500Y-33000D02*
X48500Y-32200D01*
X38250Y-30750D02*
X38500Y-30500D01*
X38500Y-30500D02*
X38500Y-27000D01*
X38500Y-32000D02*
X38500Y-31000D01*
X38500Y-31000D02*
X38250Y-30750D01*
G54D19*
X38250Y-30750D02*
X38250Y-30750D01*
G54D18*
X65000Y-17000D02*
X64400Y-17000D01*
X20900Y-28500D02*
X19250Y-28500D01*
X21400Y-28000D02*
X20900Y-28500D01*
X21400Y-17700D02*
X21400Y-28000D01*
X24100Y-15000D02*
X21400Y-17700D01*
X62400Y-15000D02*
X24100Y-15000D01*
X64400Y-17000D02*
X62400Y-15000D01*
X49900Y-17000D02*
X49900Y-15650D01*
X21700Y-29550D02*
X19250Y-29550D01*
X24750Y-15500D02*
X49750Y-15500D01*
X22250Y-18000D02*
X24750Y-15500D01*
X22250Y-29000D02*
X22250Y-18000D01*
X21700Y-29550D02*
X22250Y-29000D01*
X49900Y-15650D02*
X49750Y-15500D01*
X21925Y-30650D02*
X19250Y-30650D01*
X23000Y-29500D02*
X21925Y-30650D01*
X23000Y-18500D02*
X23000Y-29500D01*
X25250Y-16250D02*
X23000Y-18500D01*
X25500Y-16000D02*
X25250Y-16250D01*
X27000Y-16000D02*
X25500Y-16000D01*
X31250Y-16000D02*
X27000Y-16000D01*
X35500Y-17000D02*
X34500Y-16000D01*
X34500Y-16000D02*
X31250Y-16000D01*
X19250Y-35000D02*
X20400Y-35000D01*
X41500Y-38750D02*
X41500Y-38000D01*
X40000Y-40000D02*
X41500Y-38750D01*
X25550Y-40000D02*
X40000Y-40000D01*
X20400Y-35000D02*
X25550Y-40000D01*
X19250Y-33900D02*
X20600Y-33900D01*
X25250Y-38500D02*
X26500Y-38500D01*
X20600Y-33900D02*
X25250Y-38500D01*
X57000Y-14000D02*
X44300Y-14000D01*
X16750Y-26500D02*
X18250Y-27940D01*
X16750Y-16000D02*
X16750Y-26500D01*
X18250Y-14500D02*
X16750Y-16000D01*
X43800Y-14500D02*
X18250Y-14500D01*
X44300Y-14000D02*
X43800Y-14500D01*
X42500Y-13000D02*
X42500Y-13500D01*
X42500Y-13500D02*
X42000Y-14000D01*
X16250Y-27000D02*
X18250Y-29020D01*
X16250Y-15750D02*
X16250Y-27000D01*
X18000Y-14000D02*
X16250Y-15750D01*
X42000Y-14000D02*
X18000Y-14000D01*
G54D19*
X42000Y-14000D02*
X42000Y-14000D01*
G54D18*
X26600Y-13500D02*
X27250Y-13500D01*
X27250Y-13500D02*
X27500Y-13250D01*
X15800Y-27670D02*
X18250Y-30120D01*
X15800Y-15500D02*
X15800Y-27670D01*
X17800Y-13500D02*
X15800Y-15500D01*
X26600Y-13500D02*
X17800Y-13500D01*
G54D19*
X26600Y-13500D02*
X26600Y-13500D01*
G54D18*
X16750Y-34500D02*
X18130Y-34500D01*
X45500Y-39500D02*
X44250Y-39500D01*
X16750Y-39750D02*
X16750Y-34500D01*
X17750Y-40750D02*
X16750Y-39750D01*
X42000Y-40750D02*
X17750Y-40750D01*
X44250Y-39500D02*
X42000Y-40750D01*
X18130Y-34500D02*
X18250Y-34380D01*
X33500Y-41500D02*
X17500Y-41500D01*
X16870Y-33380D02*
X18250Y-33380D01*
X16000Y-34250D02*
X16870Y-33380D01*
X16000Y-40000D02*
X16000Y-34250D01*
X17500Y-41500D02*
X16000Y-40000D01*
X33500Y-30500D02*
X30500Y-30500D01*
X30500Y-30500D02*
X30500Y-33500D01*
X46500Y-28000D02*
X46500Y-30000D01*
X46500Y-30000D02*
X46000Y-30500D01*
X41500Y-29500D02*
X41750Y-29500D01*
X43250Y-28000D02*
X43500Y-27750D01*
X43500Y-27750D02*
X43500Y-27000D01*
X41750Y-29500D02*
X43250Y-28000D01*
X43500Y-27000D02*
X43500Y-27500D01*
X43500Y-27500D02*
X44000Y-28000D01*
X44000Y-28000D02*
X46500Y-28000D01*
X33500Y-30500D02*
X33500Y-27000D01*
X36500Y-29500D02*
X36500Y-28000D01*
X36500Y-28000D02*
X37500Y-27000D01*
X37250Y-30750D02*
X37250Y-30250D01*
X37250Y-30250D02*
X36500Y-29500D01*
X40500Y-30750D02*
X40500Y-30500D01*
X40500Y-30500D02*
X41500Y-29500D01*
X62000Y-17000D02*
X59750Y-17000D01*
X59000Y-17750D02*
X59000Y-21000D01*
X59750Y-17000D02*
X59000Y-17750D01*
X47500Y-17000D02*
X45500Y-17000D01*
X44500Y-18000D02*
X44500Y-21000D01*
X45500Y-17000D02*
X44500Y-18000D01*
X46500Y-22000D02*
X53000Y-22000D01*
X56000Y-21000D02*
X57000Y-21000D01*
X55750Y-21250D02*
X56000Y-21000D01*
X55750Y-22000D02*
X55750Y-21250D01*
X55500Y-22250D02*
X55750Y-22000D01*
X53250Y-22250D02*
X55500Y-22250D01*
X53000Y-22000D02*
X53250Y-22250D01*
X32500Y-17000D02*
X30250Y-17000D01*
X29500Y-17750D02*
X29500Y-21000D01*
X30250Y-17000D02*
X29500Y-17750D01*
X29500Y-38500D02*
X31500Y-38500D01*
X32250Y-35000D02*
X32750Y-34500D01*
X32250Y-37750D02*
X32250Y-35000D01*
X31500Y-38500D02*
X32250Y-37750D01*
X44500Y-38000D02*
X45750Y-38000D01*
X46750Y-35750D02*
X48500Y-34000D01*
X46750Y-37000D02*
X46750Y-35750D01*
X45750Y-38000D02*
X46750Y-37000D01*
X20500Y-27250D02*
X20500Y-21600D01*
X18250Y-21450D02*
X18250Y-22500D01*
X18650Y-21050D02*
X18250Y-21450D01*
X19950Y-21050D02*
X18650Y-21050D01*
X20500Y-21600D02*
X19950Y-21050D01*
X42500Y-21000D02*
X43500Y-21000D01*
X27500Y-21000D02*
X28500Y-21000D01*
X58000Y-21000D02*
X57000Y-21000D01*
X43500Y-27000D02*
X43500Y-24500D01*
X43500Y-24500D02*
X45000Y-24500D01*
X45000Y-24500D02*
X46500Y-23000D01*
X33500Y-34500D02*
X32750Y-34500D01*
X31750Y-33500D02*
X30500Y-33500D01*
X32750Y-34500D02*
X31750Y-33500D01*
X28500Y-24500D02*
X31000Y-24500D01*
X35500Y-27000D02*
X37500Y-27000D01*
X31000Y-24500D02*
X33500Y-27000D01*
X33500Y-27000D02*
X35500Y-27000D01*
X34500Y-34500D02*
X33500Y-34500D01*
G54D19*
X28500Y-24500D02*
X29500Y-24500D01*
G54D18*
X31500Y-22500D02*
X31500Y-22000D01*
X29500Y-24500D02*
X31500Y-22500D01*
X28500Y-21000D02*
X29500Y-21000D01*
X30500Y-22000D02*
X31500Y-22000D01*
X29500Y-21000D02*
X30500Y-22000D01*
X58000Y-24500D02*
X59500Y-24500D01*
X59500Y-24500D02*
X61000Y-23000D01*
X61000Y-23000D02*
X61000Y-22000D01*
X58000Y-21000D02*
X59000Y-21000D01*
X59000Y-21000D02*
X60000Y-22000D01*
X60000Y-22000D02*
X61000Y-22000D01*
X46500Y-23000D02*
X46500Y-22000D01*
X43500Y-21000D02*
X44500Y-21000D01*
X45500Y-22000D02*
X46500Y-22000D01*
X44500Y-21000D02*
X45500Y-22000D01*
X45500Y-33000D02*
X45500Y-31000D01*
X45500Y-31000D02*
X46000Y-30500D01*
X46000Y-30500D02*
X48500Y-30500D01*
X49500Y-34000D02*
X48500Y-34000D01*
X48500Y-34000D02*
X47500Y-33000D01*
X47500Y-33000D02*
X45500Y-33000D01*
X31500Y-18000D02*
X32500Y-18000D01*
X32500Y-18000D02*
X33750Y-18000D01*
X31500Y-18000D02*
X31250Y-18000D01*
X31250Y-18000D02*
X30500Y-18500D01*
X30500Y-18500D02*
X30500Y-20000D01*
X30500Y-20000D02*
X31500Y-21000D01*
X31500Y-21000D02*
X32500Y-21000D01*
X49900Y-20000D02*
X48500Y-20000D01*
X48500Y-20000D02*
X46500Y-20000D01*
X49900Y-20000D02*
X50500Y-21000D01*
X54500Y-20000D02*
X54500Y-19000D01*
X58000Y-20000D02*
X57000Y-20000D01*
X57000Y-20000D02*
X54500Y-20000D01*
X54500Y-20000D02*
X54500Y-21500D01*
X42500Y-17000D02*
X43500Y-18000D01*
X43500Y-19000D02*
X42500Y-19000D01*
X42500Y-19000D02*
X41000Y-19000D01*
X43500Y-19000D02*
X43500Y-18000D01*
X34500Y-30500D02*
X35750Y-30500D01*
X33500Y-37500D02*
X33500Y-38500D01*
X33500Y-37500D02*
X33500Y-36500D01*
X33500Y-36500D02*
X34500Y-36500D01*
X34500Y-36500D02*
X36000Y-36500D01*
X37000Y-36500D02*
X37000Y-35500D01*
X33500Y-35500D02*
X34500Y-35500D01*
X34500Y-35500D02*
X37000Y-35500D01*
X37000Y-35500D02*
X35750Y-33500D01*
X43500Y-37000D02*
X45000Y-37000D01*
X45000Y-37000D02*
X45500Y-37000D01*
X44500Y-34000D02*
X45500Y-34000D01*
X45500Y-34000D02*
X46250Y-34750D01*
X46250Y-34750D02*
X46250Y-36500D01*
X46250Y-36500D02*
X45500Y-37000D01*
X27500Y-17250D02*
X28250Y-17250D01*
X28250Y-17250D02*
X28500Y-18000D01*
X28500Y-19000D02*
X27500Y-19000D01*
X27500Y-19000D02*
X26000Y-19000D01*
X28500Y-18000D02*
X28500Y-19000D01*
X30500Y-35500D02*
X28250Y-35500D01*
X28250Y-35500D02*
X26500Y-35500D01*
X26500Y-35500D02*
X26500Y-34500D01*
X30500Y-37500D02*
X30750Y-37500D01*
X31250Y-35250D02*
X30500Y-34500D01*
X31250Y-37000D02*
X31250Y-35250D01*
X30750Y-37500D02*
X31250Y-37000D01*
X28250Y-37500D02*
X30500Y-37500D01*
X30500Y-34500D02*
X29500Y-34500D01*
X44500Y-27000D02*
X46500Y-27000D01*
X61000Y-20000D02*
X63250Y-20000D01*
X63250Y-20000D02*
X65000Y-20000D01*
X65000Y-20000D02*
X65000Y-21000D01*
X61000Y-18000D02*
X63250Y-18000D01*
X61000Y-18000D02*
X60500Y-18000D01*
X60500Y-21000D02*
X61000Y-21000D01*
X60250Y-20750D02*
X60500Y-21000D01*
X60250Y-18250D02*
X60250Y-20750D01*
X60500Y-18000D02*
X60250Y-18250D01*
X62000Y-21000D02*
X61000Y-21000D01*
X57000Y-24500D02*
X54500Y-24500D01*
X57000Y-17000D02*
X58000Y-18000D01*
X55500Y-19000D02*
X57000Y-19000D01*
X57000Y-19000D02*
X58000Y-19000D01*
X58000Y-19000D02*
X58000Y-18000D01*
X31500Y-20000D02*
X33750Y-20000D01*
X33750Y-20000D02*
X35500Y-20000D01*
X35500Y-20000D02*
X35500Y-21000D01*
X25000Y-20000D02*
X25000Y-19000D01*
X28500Y-20000D02*
X27500Y-20000D01*
X27500Y-20000D02*
X25000Y-20000D01*
X25000Y-20000D02*
X25000Y-21500D01*
X49500Y-30500D02*
X52000Y-30500D01*
X48500Y-36000D02*
X49500Y-36000D01*
X49500Y-36000D02*
X51000Y-36000D01*
X48500Y-36000D02*
X48500Y-37000D01*
X48500Y-37000D02*
X48500Y-39500D01*
X52000Y-36000D02*
X52000Y-35000D01*
X48500Y-35000D02*
X49500Y-35000D01*
X49500Y-35000D02*
X52000Y-35000D01*
X52000Y-35000D02*
X52000Y-33500D01*
X40000Y-20000D02*
X40000Y-19000D01*
X43500Y-20000D02*
X42500Y-20000D01*
X42500Y-20000D02*
X40000Y-20000D01*
X40000Y-20000D02*
X40000Y-21500D01*
X45500Y-35000D02*
X43500Y-35000D01*
X43500Y-35000D02*
X41500Y-35000D01*
X41500Y-34000D02*
X41500Y-35000D01*
X40000Y-24500D02*
X42500Y-24500D01*
X25000Y-24500D02*
X27500Y-24500D01*
X46500Y-18000D02*
X48500Y-18000D01*
X46500Y-21000D02*
X45750Y-21000D01*
X45750Y-18000D02*
X46500Y-18000D01*
X45500Y-18250D02*
X45750Y-18000D01*
X45500Y-20750D02*
X45500Y-18250D01*
X45750Y-21000D02*
X45500Y-20750D01*
X46500Y-21000D02*
X47500Y-21000D01*
X39500Y-27000D02*
X39500Y-25750D01*
X37000Y-24000D02*
X37000Y-19000D01*
X38250Y-25250D02*
X37000Y-24000D01*
X39000Y-25250D02*
X38250Y-25250D01*
X39500Y-25750D02*
X39000Y-25250D01*
X46500Y-19000D02*
X47500Y-19000D01*
X47500Y-19000D02*
X50500Y-19000D01*
X50500Y-19000D02*
X50500Y-15500D01*
X50500Y-15500D02*
X62000Y-15500D01*
X62000Y-15500D02*
X64250Y-17750D01*
X64250Y-17750D02*
X64250Y-18500D01*
X64250Y-18500D02*
X63750Y-19000D01*
X63750Y-19000D02*
X62000Y-19000D01*
X62000Y-19000D02*
X61000Y-19000D01*
X37000Y-19000D02*
X32500Y-19000D01*
X32500Y-19000D02*
X31500Y-19000D01*
X44500Y-36000D02*
X39000Y-36000D01*
X29500Y-36500D02*
X27750Y-36500D01*
X27750Y-36500D02*
X27500Y-36750D01*
X27500Y-36750D02*
X27500Y-39000D01*
X27500Y-39000D02*
X27750Y-39250D01*
X27750Y-39250D02*
X37250Y-39250D01*
X37250Y-39250D02*
X39000Y-37500D01*
X39000Y-37500D02*
X39000Y-36000D01*
X39500Y-33000D02*
X39500Y-30750D01*
X39000Y-36000D02*
X39000Y-33500D01*
X39000Y-33500D02*
X39500Y-33000D01*
X29500Y-36500D02*
X30500Y-36500D01*
X45500Y-36000D02*
X44500Y-36000D01*
X39500Y-30750D02*
X39500Y-27000D01*
X37000Y-19000D02*
X37000Y-18000D01*
X37000Y-18000D02*
X39000Y-16000D01*
X39000Y-16000D02*
X49250Y-16000D01*
X49250Y-16000D02*
X49250Y-19000D01*
X46500Y-19000D02*
X49250Y-19000D01*
G54D10*
G36*
X23755Y-14850D02*
X21152Y-17452D01*
X21076Y-17566D01*
X21050Y-17700D01*
X21050Y-27329D01*
X21039Y-27113D01*
X20977Y-26964D01*
X20882Y-26938D01*
X20811Y-27008D01*
X20811Y-26867D01*
X20785Y-26772D01*
X20580Y-26699D01*
X20363Y-26710D01*
X20214Y-26772D01*
X20188Y-26867D01*
X20500Y-27179D01*
X20811Y-26867D01*
X20811Y-27008D01*
X20570Y-27250D01*
X20882Y-27561D01*
X20977Y-27535D01*
X21050Y-27330D01*
X21050Y-27855D01*
X20811Y-28093D01*
X20811Y-27632D01*
X20500Y-27320D01*
X20429Y-27391D01*
X20429Y-27250D01*
X20117Y-26938D01*
X20022Y-26964D01*
X19949Y-27169D01*
X19960Y-27386D01*
X20022Y-27535D01*
X20117Y-27561D01*
X20429Y-27250D01*
X20429Y-27391D01*
X20188Y-27632D01*
X20214Y-27727D01*
X20419Y-27800D01*
X20636Y-27789D01*
X20785Y-27727D01*
X20811Y-27632D01*
X20811Y-28093D01*
X20755Y-28150D01*
X19677Y-28150D01*
X19561Y-28034D01*
X19359Y-27950D01*
X19358Y-27950D01*
X19561Y-27866D01*
X19715Y-27711D01*
X19799Y-27509D01*
X19800Y-27291D01*
X19716Y-27088D01*
X19561Y-26934D01*
X19359Y-26850D01*
X19358Y-26850D01*
X19561Y-26766D01*
X19715Y-26611D01*
X19799Y-26409D01*
X19800Y-26191D01*
X19716Y-25988D01*
X19561Y-25834D01*
X19359Y-25750D01*
X19358Y-25750D01*
X19561Y-25666D01*
X19715Y-25511D01*
X19799Y-25309D01*
X19800Y-25091D01*
X19716Y-24888D01*
X19561Y-24734D01*
X19419Y-24674D01*
X19561Y-24616D01*
X19715Y-24461D01*
X19799Y-24259D01*
X19800Y-24041D01*
X19716Y-23838D01*
X19561Y-23684D01*
X19359Y-23600D01*
X19358Y-23600D01*
X19561Y-23516D01*
X19715Y-23361D01*
X19799Y-23159D01*
X19800Y-22941D01*
X19716Y-22738D01*
X19561Y-22584D01*
X19359Y-22500D01*
X19358Y-22500D01*
X19561Y-22416D01*
X19715Y-22261D01*
X19799Y-22059D01*
X19800Y-21841D01*
X19716Y-21638D01*
X19561Y-21484D01*
X19359Y-21400D01*
X19250Y-21400D01*
X19250Y-19051D01*
X19098Y-18684D01*
X18817Y-18402D01*
X18449Y-18250D01*
X18051Y-18249D01*
X17684Y-18401D01*
X17402Y-18682D01*
X17250Y-19050D01*
X17249Y-19448D01*
X17401Y-19815D01*
X17682Y-20097D01*
X18050Y-20249D01*
X18448Y-20250D01*
X18815Y-20098D01*
X19097Y-19817D01*
X19249Y-19449D01*
X19250Y-19051D01*
X19250Y-21400D01*
X19141Y-21399D01*
X18938Y-21483D01*
X18784Y-21638D01*
X18700Y-21840D01*
X18699Y-22058D01*
X18783Y-22261D01*
X18938Y-22415D01*
X19140Y-22499D01*
X19358Y-22500D01*
X19141Y-22499D01*
X18938Y-22583D01*
X18804Y-22717D01*
X18804Y-22581D01*
X18793Y-22363D01*
X18731Y-22212D01*
X18635Y-22184D01*
X18565Y-22255D01*
X18565Y-22114D01*
X18537Y-22018D01*
X18331Y-21945D01*
X18113Y-21956D01*
X17962Y-22018D01*
X17934Y-22114D01*
X18250Y-22429D01*
X18565Y-22114D01*
X18565Y-22255D01*
X18320Y-22500D01*
X18635Y-22815D01*
X18731Y-22787D01*
X18804Y-22581D01*
X18804Y-22717D01*
X18784Y-22738D01*
X18700Y-22940D01*
X18699Y-23158D01*
X18783Y-23361D01*
X18938Y-23515D01*
X19140Y-23599D01*
X19358Y-23600D01*
X19141Y-23599D01*
X18938Y-23683D01*
X18784Y-23838D01*
X18700Y-24040D01*
X18699Y-24258D01*
X18783Y-24461D01*
X18938Y-24615D01*
X19080Y-24675D01*
X18938Y-24733D01*
X18784Y-24888D01*
X18700Y-25090D01*
X18699Y-25308D01*
X18783Y-25511D01*
X18938Y-25665D01*
X19140Y-25749D01*
X19358Y-25750D01*
X19141Y-25749D01*
X18938Y-25833D01*
X18800Y-25971D01*
X18800Y-25631D01*
X18716Y-25428D01*
X18561Y-25274D01*
X18407Y-25209D01*
X18561Y-25146D01*
X18715Y-24991D01*
X18799Y-24789D01*
X18800Y-24571D01*
X18716Y-24368D01*
X18561Y-24214D01*
X18383Y-24139D01*
X18561Y-24066D01*
X18715Y-23911D01*
X18799Y-23709D01*
X18800Y-23491D01*
X18716Y-23288D01*
X18561Y-23134D01*
X18359Y-23050D01*
X18263Y-23050D01*
X18386Y-23043D01*
X18537Y-22981D01*
X18565Y-22885D01*
X18250Y-22570D01*
X18179Y-22641D01*
X18179Y-22500D01*
X17864Y-22184D01*
X17768Y-22212D01*
X17695Y-22418D01*
X17706Y-22636D01*
X17768Y-22787D01*
X17864Y-22815D01*
X18179Y-22500D01*
X18179Y-22641D01*
X17934Y-22885D01*
X17962Y-22981D01*
X18154Y-23049D01*
X18141Y-23049D01*
X17938Y-23133D01*
X17784Y-23288D01*
X17700Y-23490D01*
X17699Y-23708D01*
X17783Y-23911D01*
X17938Y-24065D01*
X18116Y-24140D01*
X17938Y-24213D01*
X17784Y-24368D01*
X17700Y-24570D01*
X17699Y-24788D01*
X17783Y-24991D01*
X17938Y-25145D01*
X18092Y-25210D01*
X17938Y-25273D01*
X17784Y-25428D01*
X17700Y-25630D01*
X17699Y-25848D01*
X17783Y-26051D01*
X17938Y-26205D01*
X18140Y-26289D01*
X18358Y-26290D01*
X18561Y-26206D01*
X18715Y-26051D01*
X18799Y-25849D01*
X18800Y-25631D01*
X18800Y-25971D01*
X18784Y-25988D01*
X18700Y-26190D01*
X18699Y-26408D01*
X18783Y-26611D01*
X18938Y-26765D01*
X19140Y-26849D01*
X19358Y-26850D01*
X19141Y-26849D01*
X18938Y-26933D01*
X18784Y-27088D01*
X18700Y-27290D01*
X18699Y-27508D01*
X18783Y-27711D01*
X18938Y-27865D01*
X19140Y-27949D01*
X19358Y-27950D01*
X19141Y-27949D01*
X18938Y-28033D01*
X18784Y-28188D01*
X18700Y-28390D01*
X18699Y-28608D01*
X18783Y-28811D01*
X18938Y-28965D01*
X19080Y-29025D01*
X18938Y-29083D01*
X18784Y-29238D01*
X18700Y-29440D01*
X18699Y-29658D01*
X18783Y-29861D01*
X18938Y-30015D01*
X19140Y-30099D01*
X19358Y-30100D01*
X19141Y-30099D01*
X18938Y-30183D01*
X18784Y-30338D01*
X18700Y-30540D01*
X18699Y-30758D01*
X18783Y-30961D01*
X18938Y-31115D01*
X19140Y-31199D01*
X19358Y-31200D01*
X19141Y-31199D01*
X18938Y-31283D01*
X18784Y-31438D01*
X18700Y-31640D01*
X18699Y-31858D01*
X18783Y-32061D01*
X18938Y-32215D01*
X19140Y-32299D01*
X19358Y-32300D01*
X19141Y-32299D01*
X18938Y-32383D01*
X18784Y-32538D01*
X18700Y-32740D01*
X18699Y-32958D01*
X18783Y-33161D01*
X18938Y-33315D01*
X19080Y-33375D01*
X18938Y-33433D01*
X18784Y-33588D01*
X18700Y-33790D01*
X18699Y-34008D01*
X18783Y-34211D01*
X18938Y-34365D01*
X19140Y-34449D01*
X19200Y-34449D01*
X18900Y-34449D01*
X18808Y-34487D01*
X18795Y-34501D01*
X18799Y-34489D01*
X18800Y-34271D01*
X18716Y-34068D01*
X18561Y-33914D01*
X18480Y-33880D01*
X18561Y-33846D01*
X18715Y-33691D01*
X18799Y-33489D01*
X18800Y-33271D01*
X18716Y-33068D01*
X18561Y-32914D01*
X18359Y-32830D01*
X18358Y-32830D01*
X18561Y-32746D01*
X18715Y-32591D01*
X18799Y-32389D01*
X18800Y-32171D01*
X18716Y-31968D01*
X18561Y-31814D01*
X18383Y-31739D01*
X18561Y-31666D01*
X18715Y-31511D01*
X18799Y-31309D01*
X18800Y-31091D01*
X18716Y-30888D01*
X18561Y-30734D01*
X18383Y-30659D01*
X18561Y-30586D01*
X18715Y-30431D01*
X18799Y-30229D01*
X18800Y-30011D01*
X18716Y-29808D01*
X18561Y-29654D01*
X18359Y-29570D01*
X18358Y-29570D01*
X18561Y-29486D01*
X18715Y-29331D01*
X18799Y-29129D01*
X18800Y-28911D01*
X18716Y-28708D01*
X18561Y-28554D01*
X18383Y-28479D01*
X18561Y-28406D01*
X18715Y-28251D01*
X18799Y-28049D01*
X18800Y-27831D01*
X18716Y-27628D01*
X18561Y-27474D01*
X18383Y-27399D01*
X18561Y-27326D01*
X18715Y-27171D01*
X18799Y-26969D01*
X18800Y-26751D01*
X18716Y-26548D01*
X18561Y-26394D01*
X18359Y-26310D01*
X18141Y-26309D01*
X17938Y-26393D01*
X17784Y-26548D01*
X17700Y-26750D01*
X17699Y-26926D01*
X17100Y-26350D01*
X17100Y-16144D01*
X18394Y-14850D01*
X23755Y-14850D01*
X23755Y-14850D01*
G37*
G54D19*
X23755Y-14850D02*
X21152Y-17452D01*
X21076Y-17566D01*
X21050Y-17700D01*
X21050Y-27329D01*
X21039Y-27113D01*
X20977Y-26964D01*
X20882Y-26938D01*
X20811Y-27008D01*
X20811Y-26867D01*
X20785Y-26772D01*
X20580Y-26699D01*
X20363Y-26710D01*
X20214Y-26772D01*
X20188Y-26867D01*
X20500Y-27179D01*
X20811Y-26867D01*
X20811Y-27008D01*
X20570Y-27250D01*
X20882Y-27561D01*
X20977Y-27535D01*
X21050Y-27330D01*
X21050Y-27855D01*
X20811Y-28093D01*
X20811Y-27632D01*
X20500Y-27320D01*
X20429Y-27391D01*
X20429Y-27250D01*
X20117Y-26938D01*
X20022Y-26964D01*
X19949Y-27169D01*
X19960Y-27386D01*
X20022Y-27535D01*
X20117Y-27561D01*
X20429Y-27250D01*
X20429Y-27391D01*
X20188Y-27632D01*
X20214Y-27727D01*
X20419Y-27800D01*
X20636Y-27789D01*
X20785Y-27727D01*
X20811Y-27632D01*
X20811Y-28093D01*
X20755Y-28150D01*
X19677Y-28150D01*
X19561Y-28034D01*
X19359Y-27950D01*
X19358Y-27950D01*
X19561Y-27866D01*
X19715Y-27711D01*
X19799Y-27509D01*
X19800Y-27291D01*
X19716Y-27088D01*
X19561Y-26934D01*
X19359Y-26850D01*
X19358Y-26850D01*
X19561Y-26766D01*
X19715Y-26611D01*
X19799Y-26409D01*
X19800Y-26191D01*
X19716Y-25988D01*
X19561Y-25834D01*
X19359Y-25750D01*
X19358Y-25750D01*
X19561Y-25666D01*
X19715Y-25511D01*
X19799Y-25309D01*
X19800Y-25091D01*
X19716Y-24888D01*
X19561Y-24734D01*
X19419Y-24674D01*
X19561Y-24616D01*
X19715Y-24461D01*
X19799Y-24259D01*
X19800Y-24041D01*
X19716Y-23838D01*
X19561Y-23684D01*
X19359Y-23600D01*
X19358Y-23600D01*
X19561Y-23516D01*
X19715Y-23361D01*
X19799Y-23159D01*
X19800Y-22941D01*
X19716Y-22738D01*
X19561Y-22584D01*
X19359Y-22500D01*
X19358Y-22500D01*
X19561Y-22416D01*
X19715Y-22261D01*
X19799Y-22059D01*
X19800Y-21841D01*
X19716Y-21638D01*
X19561Y-21484D01*
X19359Y-21400D01*
X19250Y-21400D01*
X19250Y-19051D01*
X19098Y-18684D01*
X18817Y-18402D01*
X18449Y-18250D01*
X18051Y-18249D01*
X17684Y-18401D01*
X17402Y-18682D01*
X17250Y-19050D01*
X17249Y-19448D01*
X17401Y-19815D01*
X17682Y-20097D01*
X18050Y-20249D01*
X18448Y-20250D01*
X18815Y-20098D01*
X19097Y-19817D01*
X19249Y-19449D01*
X19250Y-19051D01*
X19250Y-21400D01*
X19141Y-21399D01*
X18938Y-21483D01*
X18784Y-21638D01*
X18700Y-21840D01*
X18699Y-22058D01*
X18783Y-22261D01*
X18938Y-22415D01*
X19140Y-22499D01*
X19358Y-22500D01*
X19141Y-22499D01*
X18938Y-22583D01*
X18804Y-22717D01*
X18804Y-22581D01*
X18793Y-22363D01*
X18731Y-22212D01*
X18635Y-22184D01*
X18565Y-22255D01*
X18565Y-22114D01*
X18537Y-22018D01*
X18331Y-21945D01*
X18113Y-21956D01*
X17962Y-22018D01*
X17934Y-22114D01*
X18250Y-22429D01*
X18565Y-22114D01*
X18565Y-22255D01*
X18320Y-22500D01*
X18635Y-22815D01*
X18731Y-22787D01*
X18804Y-22581D01*
X18804Y-22717D01*
X18784Y-22738D01*
X18700Y-22940D01*
X18699Y-23158D01*
X18783Y-23361D01*
X18938Y-23515D01*
X19140Y-23599D01*
X19358Y-23600D01*
X19141Y-23599D01*
X18938Y-23683D01*
X18784Y-23838D01*
X18700Y-24040D01*
X18699Y-24258D01*
X18783Y-24461D01*
X18938Y-24615D01*
X19080Y-24675D01*
X18938Y-24733D01*
X18784Y-24888D01*
X18700Y-25090D01*
X18699Y-25308D01*
X18783Y-25511D01*
X18938Y-25665D01*
X19140Y-25749D01*
X19358Y-25750D01*
X19141Y-25749D01*
X18938Y-25833D01*
X18800Y-25971D01*
X18800Y-25631D01*
X18716Y-25428D01*
X18561Y-25274D01*
X18407Y-25209D01*
X18561Y-25146D01*
X18715Y-24991D01*
X18799Y-24789D01*
X18800Y-24571D01*
X18716Y-24368D01*
X18561Y-24214D01*
X18383Y-24139D01*
X18561Y-24066D01*
X18715Y-23911D01*
X18799Y-23709D01*
X18800Y-23491D01*
X18716Y-23288D01*
X18561Y-23134D01*
X18359Y-23050D01*
X18263Y-23050D01*
X18386Y-23043D01*
X18537Y-22981D01*
X18565Y-22885D01*
X18250Y-22570D01*
X18179Y-22641D01*
X18179Y-22500D01*
X17864Y-22184D01*
X17768Y-22212D01*
X17695Y-22418D01*
X17706Y-22636D01*
X17768Y-22787D01*
X17864Y-22815D01*
X18179Y-22500D01*
X18179Y-22641D01*
X17934Y-22885D01*
X17962Y-22981D01*
X18154Y-23049D01*
X18141Y-23049D01*
X17938Y-23133D01*
X17784Y-23288D01*
X17700Y-23490D01*
X17699Y-23708D01*
X17783Y-23911D01*
X17938Y-24065D01*
X18116Y-24140D01*
X17938Y-24213D01*
X17784Y-24368D01*
X17700Y-24570D01*
X17699Y-24788D01*
X17783Y-24991D01*
X17938Y-25145D01*
X18092Y-25210D01*
X17938Y-25273D01*
X17784Y-25428D01*
X17700Y-25630D01*
X17699Y-25848D01*
X17783Y-26051D01*
X17938Y-26205D01*
X18140Y-26289D01*
X18358Y-26290D01*
X18561Y-26206D01*
X18715Y-26051D01*
X18799Y-25849D01*
X18800Y-25631D01*
X18800Y-25971D01*
X18784Y-25988D01*
X18700Y-26190D01*
X18699Y-26408D01*
X18783Y-26611D01*
X18938Y-26765D01*
X19140Y-26849D01*
X19358Y-26850D01*
X19141Y-26849D01*
X18938Y-26933D01*
X18784Y-27088D01*
X18700Y-27290D01*
X18699Y-27508D01*
X18783Y-27711D01*
X18938Y-27865D01*
X19140Y-27949D01*
X19358Y-27950D01*
X19141Y-27949D01*
X18938Y-28033D01*
X18784Y-28188D01*
X18700Y-28390D01*
X18699Y-28608D01*
X18783Y-28811D01*
X18938Y-28965D01*
X19080Y-29025D01*
X18938Y-29083D01*
X18784Y-29238D01*
X18700Y-29440D01*
X18699Y-29658D01*
X18783Y-29861D01*
X18938Y-30015D01*
X19140Y-30099D01*
X19358Y-30100D01*
X19141Y-30099D01*
X18938Y-30183D01*
X18784Y-30338D01*
X18700Y-30540D01*
X18699Y-30758D01*
X18783Y-30961D01*
X18938Y-31115D01*
X19140Y-31199D01*
X19358Y-31200D01*
X19141Y-31199D01*
X18938Y-31283D01*
X18784Y-31438D01*
X18700Y-31640D01*
X18699Y-31858D01*
X18783Y-32061D01*
X18938Y-32215D01*
X19140Y-32299D01*
X19358Y-32300D01*
X19141Y-32299D01*
X18938Y-32383D01*
X18784Y-32538D01*
X18700Y-32740D01*
X18699Y-32958D01*
X18783Y-33161D01*
X18938Y-33315D01*
X19080Y-33375D01*
X18938Y-33433D01*
X18784Y-33588D01*
X18700Y-33790D01*
X18699Y-34008D01*
X18783Y-34211D01*
X18938Y-34365D01*
X19140Y-34449D01*
X19200Y-34449D01*
X18900Y-34449D01*
X18808Y-34487D01*
X18795Y-34501D01*
X18799Y-34489D01*
X18800Y-34271D01*
X18716Y-34068D01*
X18561Y-33914D01*
X18480Y-33880D01*
X18561Y-33846D01*
X18715Y-33691D01*
X18799Y-33489D01*
X18800Y-33271D01*
X18716Y-33068D01*
X18561Y-32914D01*
X18359Y-32830D01*
X18358Y-32830D01*
X18561Y-32746D01*
X18715Y-32591D01*
X18799Y-32389D01*
X18800Y-32171D01*
X18716Y-31968D01*
X18561Y-31814D01*
X18383Y-31739D01*
X18561Y-31666D01*
X18715Y-31511D01*
X18799Y-31309D01*
X18800Y-31091D01*
X18716Y-30888D01*
X18561Y-30734D01*
X18383Y-30659D01*
X18561Y-30586D01*
X18715Y-30431D01*
X18799Y-30229D01*
X18800Y-30011D01*
X18716Y-29808D01*
X18561Y-29654D01*
X18359Y-29570D01*
X18358Y-29570D01*
X18561Y-29486D01*
X18715Y-29331D01*
X18799Y-29129D01*
X18800Y-28911D01*
X18716Y-28708D01*
X18561Y-28554D01*
X18383Y-28479D01*
X18561Y-28406D01*
X18715Y-28251D01*
X18799Y-28049D01*
X18800Y-27831D01*
X18716Y-27628D01*
X18561Y-27474D01*
X18383Y-27399D01*
X18561Y-27326D01*
X18715Y-27171D01*
X18799Y-26969D01*
X18800Y-26751D01*
X18716Y-26548D01*
X18561Y-26394D01*
X18359Y-26310D01*
X18141Y-26309D01*
X17938Y-26393D01*
X17784Y-26548D01*
X17700Y-26750D01*
X17699Y-26926D01*
X17100Y-26350D01*
X17100Y-16144D01*
X18394Y-14850D01*
X23755Y-14850D01*
G54D10*
G36*
X67730Y-42230D02*
X67672Y-42230D01*
X67672Y-36513D01*
X67672Y-32576D01*
X67646Y-32442D01*
X67570Y-32329D01*
X67456Y-32253D01*
X67322Y-32226D01*
X67188Y-32253D01*
X67075Y-32329D01*
X66999Y-32442D01*
X66972Y-32576D01*
X66972Y-33116D01*
X66350Y-33116D01*
X66350Y-26500D01*
X66323Y-26366D01*
X66247Y-26252D01*
X66133Y-26176D01*
X66000Y-26150D01*
X65866Y-26176D01*
X65752Y-26252D01*
X65676Y-26366D01*
X65650Y-26500D01*
X65650Y-27694D01*
X64659Y-27694D01*
X64659Y-36805D01*
X65839Y-36805D01*
X65866Y-36823D01*
X65909Y-36831D01*
X65909Y-36883D01*
X67472Y-36883D01*
X67472Y-36826D01*
X67570Y-36761D01*
X67646Y-36647D01*
X67672Y-36513D01*
X67672Y-42230D01*
X64652Y-42230D01*
X64652Y-32801D01*
X64652Y-28521D01*
X61529Y-28521D01*
X61529Y-22075D01*
X61518Y-21867D01*
X61460Y-21727D01*
X61367Y-21702D01*
X61070Y-22000D01*
X61367Y-22297D01*
X61460Y-22272D01*
X61529Y-22075D01*
X61529Y-28521D01*
X61297Y-28521D01*
X61297Y-22367D01*
X61000Y-22070D01*
X60929Y-22141D01*
X60929Y-22000D01*
X60632Y-21702D01*
X60539Y-21727D01*
X60470Y-21924D01*
X60481Y-22132D01*
X60539Y-22272D01*
X60632Y-22297D01*
X60929Y-22000D01*
X60929Y-22141D01*
X60702Y-22367D01*
X60727Y-22460D01*
X60924Y-22529D01*
X61132Y-22518D01*
X61272Y-22460D01*
X61297Y-22367D01*
X61297Y-28521D01*
X59708Y-28521D01*
X59708Y-26222D01*
X59708Y-24659D01*
X58550Y-24659D01*
X58550Y-24249D01*
X58549Y-24150D01*
X58529Y-24101D01*
X58529Y-21075D01*
X58525Y-20987D01*
X58525Y-19896D01*
X58445Y-19703D01*
X58297Y-19555D01*
X58225Y-19525D01*
X58324Y-19525D01*
X58416Y-19487D01*
X58486Y-19416D01*
X58524Y-19324D01*
X58525Y-19225D01*
X58525Y-18675D01*
X58487Y-18583D01*
X58416Y-18513D01*
X58350Y-18485D01*
X58350Y-18392D01*
X58444Y-18297D01*
X58524Y-18104D01*
X58525Y-17896D01*
X58445Y-17703D01*
X58297Y-17555D01*
X58104Y-17475D01*
X57969Y-17474D01*
X57524Y-17029D01*
X57525Y-16896D01*
X57445Y-16703D01*
X57297Y-16555D01*
X57104Y-16475D01*
X56896Y-16474D01*
X56703Y-16554D01*
X56555Y-16702D01*
X56475Y-16895D01*
X56474Y-17103D01*
X56554Y-17297D01*
X56702Y-17444D01*
X56895Y-17524D01*
X57030Y-17525D01*
X57475Y-17970D01*
X57474Y-18103D01*
X57554Y-18297D01*
X57650Y-18392D01*
X57650Y-18485D01*
X57583Y-18512D01*
X57513Y-18583D01*
X57485Y-18650D01*
X57392Y-18650D01*
X57297Y-18555D01*
X57104Y-18475D01*
X56896Y-18474D01*
X56703Y-18554D01*
X56607Y-18650D01*
X55927Y-18650D01*
X55811Y-18534D01*
X55609Y-18450D01*
X55391Y-18449D01*
X55188Y-18533D01*
X55034Y-18688D01*
X54997Y-18776D01*
X54962Y-18691D01*
X54809Y-18538D01*
X54608Y-18454D01*
X54392Y-18454D01*
X54191Y-18537D01*
X54038Y-18690D01*
X54002Y-18776D01*
X53966Y-18688D01*
X53811Y-18534D01*
X53609Y-18450D01*
X53391Y-18449D01*
X53188Y-18533D01*
X53034Y-18688D01*
X52950Y-18890D01*
X52949Y-19108D01*
X53033Y-19311D01*
X53188Y-19465D01*
X53390Y-19549D01*
X53608Y-19550D01*
X53811Y-19466D01*
X53965Y-19311D01*
X54002Y-19223D01*
X54037Y-19308D01*
X54150Y-19421D01*
X54150Y-19572D01*
X54034Y-19688D01*
X53950Y-19890D01*
X53949Y-20108D01*
X54033Y-20311D01*
X54150Y-20427D01*
X54150Y-21107D01*
X54055Y-21202D01*
X53975Y-21395D01*
X53974Y-21603D01*
X54054Y-21797D01*
X54202Y-21944D01*
X54395Y-22024D01*
X54603Y-22025D01*
X54797Y-21945D01*
X54944Y-21797D01*
X55024Y-21604D01*
X55025Y-21396D01*
X54945Y-21203D01*
X54850Y-21107D01*
X54850Y-20427D01*
X54927Y-20350D01*
X56607Y-20350D01*
X56702Y-20444D01*
X56828Y-20497D01*
X56727Y-20539D01*
X56702Y-20632D01*
X57000Y-20929D01*
X57297Y-20632D01*
X57272Y-20539D01*
X57162Y-20500D01*
X57297Y-20445D01*
X57392Y-20350D01*
X57607Y-20350D01*
X57702Y-20444D01*
X57828Y-20497D01*
X57727Y-20539D01*
X57702Y-20632D01*
X58000Y-20929D01*
X58297Y-20632D01*
X58272Y-20539D01*
X58162Y-20500D01*
X58297Y-20445D01*
X58444Y-20297D01*
X58524Y-20104D01*
X58525Y-19896D01*
X58525Y-20987D01*
X58518Y-20867D01*
X58460Y-20727D01*
X58367Y-20702D01*
X58070Y-21000D01*
X58367Y-21297D01*
X58460Y-21272D01*
X58529Y-21075D01*
X58529Y-24101D01*
X58525Y-24090D01*
X58525Y-21896D01*
X58445Y-21703D01*
X58297Y-21555D01*
X58171Y-21502D01*
X58272Y-21460D01*
X58297Y-21367D01*
X58000Y-21070D01*
X57929Y-21141D01*
X57929Y-21000D01*
X57632Y-20702D01*
X57539Y-20727D01*
X57503Y-20830D01*
X57460Y-20727D01*
X57367Y-20702D01*
X57070Y-21000D01*
X57367Y-21297D01*
X57460Y-21272D01*
X57496Y-21169D01*
X57539Y-21272D01*
X57632Y-21297D01*
X57929Y-21000D01*
X57929Y-21141D01*
X57702Y-21367D01*
X57727Y-21460D01*
X57837Y-21499D01*
X57703Y-21554D01*
X57607Y-21650D01*
X57392Y-21650D01*
X57297Y-21555D01*
X57171Y-21502D01*
X57272Y-21460D01*
X57297Y-21367D01*
X57000Y-21070D01*
X56929Y-21141D01*
X56929Y-21000D01*
X56632Y-20702D01*
X56539Y-20727D01*
X56470Y-20924D01*
X56481Y-21132D01*
X56539Y-21272D01*
X56632Y-21297D01*
X56929Y-21000D01*
X56929Y-21141D01*
X56702Y-21367D01*
X56727Y-21460D01*
X56837Y-21499D01*
X56703Y-21554D01*
X56555Y-21702D01*
X56475Y-21895D01*
X56474Y-22030D01*
X55855Y-22650D01*
X53921Y-22650D01*
X53809Y-22538D01*
X53608Y-22454D01*
X53392Y-22454D01*
X53191Y-22537D01*
X53038Y-22690D01*
X52954Y-22891D01*
X52954Y-23107D01*
X53037Y-23308D01*
X53190Y-23461D01*
X53391Y-23545D01*
X53607Y-23545D01*
X53808Y-23462D01*
X53921Y-23350D01*
X56000Y-23350D01*
X56133Y-23323D01*
X56133Y-23323D01*
X56247Y-23247D01*
X56970Y-22524D01*
X57103Y-22525D01*
X57297Y-22445D01*
X57392Y-22350D01*
X57607Y-22350D01*
X57702Y-22444D01*
X57895Y-22524D01*
X58103Y-22525D01*
X58297Y-22445D01*
X58444Y-22297D01*
X58524Y-22104D01*
X58525Y-21896D01*
X58525Y-24090D01*
X58511Y-24058D01*
X58441Y-23987D01*
X58349Y-23949D01*
X58112Y-23950D01*
X58050Y-24012D01*
X58050Y-24450D01*
X58487Y-24450D01*
X58550Y-24387D01*
X58550Y-24249D01*
X58550Y-24659D01*
X58550Y-24659D01*
X58550Y-24612D01*
X58487Y-24550D01*
X58050Y-24550D01*
X58050Y-24557D01*
X57950Y-24557D01*
X57950Y-24550D01*
X57942Y-24550D01*
X57942Y-24450D01*
X57950Y-24450D01*
X57950Y-24012D01*
X57887Y-23950D01*
X57650Y-23949D01*
X57558Y-23987D01*
X57488Y-24058D01*
X57450Y-24150D01*
X57450Y-24172D01*
X57311Y-24034D01*
X57109Y-23950D01*
X56891Y-23949D01*
X56688Y-24033D01*
X56572Y-24150D01*
X54892Y-24150D01*
X54797Y-24055D01*
X54604Y-23975D01*
X54396Y-23974D01*
X54203Y-24054D01*
X54055Y-24202D01*
X53975Y-24395D01*
X53974Y-24603D01*
X54054Y-24797D01*
X54202Y-24944D01*
X54395Y-25024D01*
X54603Y-25025D01*
X54797Y-24945D01*
X54892Y-24850D01*
X56395Y-24850D01*
X56395Y-26222D01*
X57291Y-26222D01*
X57604Y-26222D01*
X59708Y-26222D01*
X59708Y-28521D01*
X53347Y-28521D01*
X53347Y-32801D01*
X64652Y-32801D01*
X64652Y-42230D01*
X63284Y-42230D01*
X63295Y-42222D01*
X63383Y-42222D01*
X63383Y-42077D01*
X63405Y-41970D01*
X63383Y-41863D01*
X63383Y-40659D01*
X63306Y-40659D01*
X63323Y-40633D01*
X63350Y-40500D01*
X63323Y-40366D01*
X63305Y-40339D01*
X63305Y-39159D01*
X54194Y-39159D01*
X54194Y-40150D01*
X53550Y-40150D01*
X53550Y-35891D01*
X53466Y-35688D01*
X53311Y-35534D01*
X53109Y-35450D01*
X52891Y-35449D01*
X52688Y-35533D01*
X52534Y-35688D01*
X52497Y-35776D01*
X52462Y-35691D01*
X52350Y-35578D01*
X52350Y-35427D01*
X52465Y-35311D01*
X52549Y-35109D01*
X52550Y-34891D01*
X52466Y-34688D01*
X52350Y-34572D01*
X52350Y-33892D01*
X52444Y-33797D01*
X52524Y-33604D01*
X52525Y-33396D01*
X52525Y-30396D01*
X52445Y-30203D01*
X52297Y-30055D01*
X52104Y-29975D01*
X51896Y-29974D01*
X51703Y-30054D01*
X51607Y-30150D01*
X49927Y-30150D01*
X49811Y-30034D01*
X49609Y-29950D01*
X49391Y-29949D01*
X49188Y-30033D01*
X49049Y-30172D01*
X49049Y-30150D01*
X49011Y-30058D01*
X48941Y-29987D01*
X48849Y-29949D01*
X48612Y-29950D01*
X48550Y-30012D01*
X48550Y-30450D01*
X48557Y-30450D01*
X48557Y-30550D01*
X48550Y-30550D01*
X48550Y-30987D01*
X48612Y-31050D01*
X48849Y-31050D01*
X48909Y-31025D01*
X48909Y-31638D01*
X48809Y-31538D01*
X48608Y-31454D01*
X48392Y-31454D01*
X48208Y-31530D01*
X48208Y-31050D01*
X48387Y-31050D01*
X48450Y-30987D01*
X48450Y-30550D01*
X48450Y-30450D01*
X48450Y-30012D01*
X48387Y-29950D01*
X48222Y-29949D01*
X48222Y-29708D01*
X48222Y-27708D01*
X48222Y-27291D01*
X48222Y-25291D01*
X47029Y-25291D01*
X47029Y-22075D01*
X47018Y-21867D01*
X46960Y-21727D01*
X46867Y-21702D01*
X46570Y-22000D01*
X46867Y-22297D01*
X46960Y-22272D01*
X47029Y-22075D01*
X47029Y-25291D01*
X46797Y-25291D01*
X46797Y-22367D01*
X46500Y-22070D01*
X46429Y-22141D01*
X46429Y-22000D01*
X46132Y-21702D01*
X46039Y-21727D01*
X45970Y-21924D01*
X45981Y-22132D01*
X46039Y-22272D01*
X46132Y-22297D01*
X46429Y-22000D01*
X46429Y-22141D01*
X46202Y-22367D01*
X46227Y-22460D01*
X46424Y-22529D01*
X46632Y-22518D01*
X46772Y-22460D01*
X46797Y-22367D01*
X46797Y-25291D01*
X46659Y-25291D01*
X46659Y-26470D01*
X46609Y-26450D01*
X46391Y-26449D01*
X46188Y-26533D01*
X46072Y-26650D01*
X45958Y-26650D01*
X45958Y-26222D01*
X45958Y-24659D01*
X44050Y-24659D01*
X44050Y-24249D01*
X44049Y-24150D01*
X44011Y-24058D01*
X43941Y-23987D01*
X43849Y-23949D01*
X43612Y-23950D01*
X43550Y-24012D01*
X43550Y-24450D01*
X43987Y-24450D01*
X44050Y-24387D01*
X44050Y-24249D01*
X44050Y-24659D01*
X44050Y-24659D01*
X44050Y-24612D01*
X43987Y-24550D01*
X43550Y-24550D01*
X43550Y-24659D01*
X43541Y-24659D01*
X43541Y-26222D01*
X45958Y-26222D01*
X45958Y-26650D01*
X44921Y-26650D01*
X44809Y-26538D01*
X44608Y-26454D01*
X44392Y-26454D01*
X44191Y-26537D01*
X44038Y-26690D01*
X44002Y-26775D01*
X43977Y-26714D01*
X43882Y-26688D01*
X43811Y-26758D01*
X43811Y-26617D01*
X43785Y-26522D01*
X43580Y-26449D01*
X43363Y-26460D01*
X43214Y-26522D01*
X43188Y-26617D01*
X43500Y-26929D01*
X43811Y-26617D01*
X43811Y-26758D01*
X43570Y-27000D01*
X43882Y-27311D01*
X43977Y-27285D01*
X44000Y-27219D01*
X44037Y-27308D01*
X44190Y-27461D01*
X44391Y-27545D01*
X44607Y-27545D01*
X44808Y-27462D01*
X44921Y-27350D01*
X46072Y-27350D01*
X46172Y-27450D01*
X46150Y-27450D01*
X46058Y-27488D01*
X45987Y-27558D01*
X45949Y-27650D01*
X45950Y-27887D01*
X46012Y-27950D01*
X46450Y-27950D01*
X46450Y-27942D01*
X46550Y-27942D01*
X46550Y-27950D01*
X46557Y-27950D01*
X46557Y-28050D01*
X46550Y-28050D01*
X46550Y-28487D01*
X46612Y-28550D01*
X46659Y-28550D01*
X46659Y-29708D01*
X48222Y-29708D01*
X48222Y-29949D01*
X48150Y-29949D01*
X48058Y-29987D01*
X47988Y-30058D01*
X47950Y-30150D01*
X47949Y-30249D01*
X47950Y-30387D01*
X48012Y-30450D01*
X48450Y-30450D01*
X48450Y-30550D01*
X48012Y-30550D01*
X47950Y-30612D01*
X47949Y-30659D01*
X46450Y-30659D01*
X46450Y-28487D01*
X46450Y-28050D01*
X46012Y-28050D01*
X45950Y-28112D01*
X45949Y-28349D01*
X45987Y-28441D01*
X46058Y-28511D01*
X46150Y-28549D01*
X46249Y-28550D01*
X46387Y-28550D01*
X46450Y-28487D01*
X46450Y-30659D01*
X45791Y-30659D01*
X45791Y-32222D01*
X48001Y-32222D01*
X48037Y-32308D01*
X48150Y-32421D01*
X48150Y-32607D01*
X48055Y-32702D01*
X47975Y-32895D01*
X47974Y-33103D01*
X48054Y-33297D01*
X48202Y-33444D01*
X48328Y-33497D01*
X48227Y-33539D01*
X48202Y-33632D01*
X48500Y-33929D01*
X48797Y-33632D01*
X48772Y-33539D01*
X48662Y-33500D01*
X48797Y-33445D01*
X48892Y-33350D01*
X49107Y-33350D01*
X49202Y-33444D01*
X49328Y-33497D01*
X49227Y-33539D01*
X49202Y-33632D01*
X49500Y-33929D01*
X49797Y-33632D01*
X49772Y-33539D01*
X49662Y-33500D01*
X49797Y-33445D01*
X49944Y-33297D01*
X50024Y-33104D01*
X50025Y-32896D01*
X49945Y-32703D01*
X49797Y-32555D01*
X49604Y-32475D01*
X49396Y-32474D01*
X49203Y-32554D01*
X49107Y-32650D01*
X48892Y-32650D01*
X48850Y-32607D01*
X48850Y-32421D01*
X48961Y-32309D01*
X48998Y-32222D01*
X50090Y-32222D01*
X50090Y-30850D01*
X51607Y-30850D01*
X51702Y-30944D01*
X51895Y-31024D01*
X52103Y-31025D01*
X52297Y-30945D01*
X52444Y-30797D01*
X52524Y-30604D01*
X52525Y-30396D01*
X52525Y-33396D01*
X52445Y-33203D01*
X52297Y-33055D01*
X52104Y-32975D01*
X51896Y-32974D01*
X51703Y-33054D01*
X51555Y-33202D01*
X51475Y-33395D01*
X51474Y-33603D01*
X51554Y-33797D01*
X51650Y-33892D01*
X51650Y-34572D01*
X51572Y-34650D01*
X50029Y-34650D01*
X50029Y-34075D01*
X50018Y-33867D01*
X49960Y-33727D01*
X49867Y-33702D01*
X49570Y-34000D01*
X49867Y-34297D01*
X49960Y-34272D01*
X50029Y-34075D01*
X50029Y-34650D01*
X49892Y-34650D01*
X49797Y-34555D01*
X49671Y-34502D01*
X49772Y-34460D01*
X49797Y-34367D01*
X49500Y-34070D01*
X49429Y-34141D01*
X49429Y-34000D01*
X49132Y-33702D01*
X49039Y-33727D01*
X49003Y-33830D01*
X48960Y-33727D01*
X48867Y-33702D01*
X48570Y-34000D01*
X48867Y-34297D01*
X48960Y-34272D01*
X48996Y-34169D01*
X49039Y-34272D01*
X49132Y-34297D01*
X49429Y-34000D01*
X49429Y-34141D01*
X49202Y-34367D01*
X49227Y-34460D01*
X49337Y-34499D01*
X49203Y-34554D01*
X49107Y-34650D01*
X48892Y-34650D01*
X48797Y-34555D01*
X48671Y-34502D01*
X48772Y-34460D01*
X48797Y-34367D01*
X48500Y-34070D01*
X48429Y-34141D01*
X48429Y-34000D01*
X48132Y-33702D01*
X48039Y-33727D01*
X47970Y-33924D01*
X47981Y-34132D01*
X48039Y-34272D01*
X48132Y-34297D01*
X48429Y-34000D01*
X48429Y-34141D01*
X48202Y-34367D01*
X48227Y-34460D01*
X48337Y-34499D01*
X48203Y-34554D01*
X48055Y-34702D01*
X47975Y-34895D01*
X47974Y-35103D01*
X48054Y-35297D01*
X48202Y-35444D01*
X48274Y-35474D01*
X48175Y-35474D01*
X48083Y-35512D01*
X48013Y-35583D01*
X47975Y-35675D01*
X47974Y-35774D01*
X47974Y-36324D01*
X48012Y-36416D01*
X48083Y-36486D01*
X48150Y-36514D01*
X48150Y-36607D01*
X48055Y-36702D01*
X47975Y-36895D01*
X47974Y-37103D01*
X48054Y-37297D01*
X48150Y-37392D01*
X48150Y-39107D01*
X48055Y-39202D01*
X47975Y-39395D01*
X47974Y-39603D01*
X48054Y-39797D01*
X48202Y-39944D01*
X48395Y-40024D01*
X48603Y-40025D01*
X48797Y-39945D01*
X48944Y-39797D01*
X49024Y-39604D01*
X49025Y-39396D01*
X48945Y-39203D01*
X48850Y-39107D01*
X48850Y-37392D01*
X48944Y-37297D01*
X49024Y-37104D01*
X49025Y-36896D01*
X48945Y-36703D01*
X48850Y-36607D01*
X48850Y-36514D01*
X48916Y-36487D01*
X48986Y-36416D01*
X49014Y-36350D01*
X49107Y-36350D01*
X49202Y-36444D01*
X49395Y-36524D01*
X49603Y-36525D01*
X49797Y-36445D01*
X49892Y-36350D01*
X50572Y-36350D01*
X50688Y-36465D01*
X50890Y-36549D01*
X51108Y-36550D01*
X51311Y-36466D01*
X51465Y-36311D01*
X51502Y-36223D01*
X51537Y-36308D01*
X51690Y-36461D01*
X51891Y-36545D01*
X52107Y-36545D01*
X52308Y-36462D01*
X52461Y-36309D01*
X52497Y-36223D01*
X52533Y-36311D01*
X52688Y-36465D01*
X52890Y-36549D01*
X53108Y-36550D01*
X53311Y-36466D01*
X53465Y-36311D01*
X53549Y-36109D01*
X53550Y-35891D01*
X53550Y-40150D01*
X53000Y-40150D01*
X52866Y-40176D01*
X52752Y-40252D01*
X52676Y-40366D01*
X52650Y-40500D01*
X52676Y-40633D01*
X52752Y-40747D01*
X52866Y-40823D01*
X53000Y-40850D01*
X59616Y-40850D01*
X59616Y-41620D01*
X59118Y-41620D01*
X58984Y-41647D01*
X58870Y-41722D01*
X58794Y-41836D01*
X58768Y-41970D01*
X58794Y-42104D01*
X58870Y-42217D01*
X58889Y-42230D01*
X14519Y-42230D01*
X14519Y-13250D01*
X14519Y-13000D01*
X14519Y-12769D01*
X27222Y-12769D01*
X27188Y-12783D01*
X27034Y-12938D01*
X26950Y-13140D01*
X26950Y-13150D01*
X26600Y-13150D01*
X17800Y-13150D01*
X17666Y-13176D01*
X17552Y-13252D01*
X17552Y-13252D01*
X17552Y-13252D01*
X15552Y-15252D01*
X15476Y-15366D01*
X15450Y-15500D01*
X15450Y-27670D01*
X15476Y-27803D01*
X15552Y-27917D01*
X17700Y-30065D01*
X17699Y-30228D01*
X17783Y-30431D01*
X17938Y-30585D01*
X18116Y-30660D01*
X17938Y-30733D01*
X17784Y-30888D01*
X17700Y-31090D01*
X17699Y-31308D01*
X17783Y-31511D01*
X17938Y-31665D01*
X18116Y-31740D01*
X17938Y-31813D01*
X17784Y-31968D01*
X17700Y-32170D01*
X17699Y-32388D01*
X17783Y-32591D01*
X17938Y-32745D01*
X18140Y-32829D01*
X18358Y-32830D01*
X18141Y-32829D01*
X17938Y-32913D01*
X17822Y-33030D01*
X16870Y-33030D01*
X16736Y-33056D01*
X16622Y-33132D01*
X15752Y-34002D01*
X15676Y-34116D01*
X15650Y-34250D01*
X15650Y-40000D01*
X15676Y-40133D01*
X15752Y-40247D01*
X17252Y-41747D01*
X17252Y-41747D01*
X17366Y-41823D01*
X17500Y-41850D01*
X33107Y-41850D01*
X33202Y-41944D01*
X33395Y-42024D01*
X33603Y-42025D01*
X33797Y-41945D01*
X33944Y-41797D01*
X34024Y-41604D01*
X34025Y-41396D01*
X33945Y-41203D01*
X33842Y-41100D01*
X42000Y-41100D01*
X42019Y-41096D01*
X42040Y-41097D01*
X42086Y-41082D01*
X42133Y-41073D01*
X42150Y-41062D01*
X42170Y-41055D01*
X44336Y-39850D01*
X45107Y-39850D01*
X45202Y-39944D01*
X45395Y-40024D01*
X45603Y-40025D01*
X45797Y-39945D01*
X45944Y-39797D01*
X46024Y-39604D01*
X46025Y-39396D01*
X45945Y-39203D01*
X45797Y-39055D01*
X45604Y-38975D01*
X45396Y-38974D01*
X45203Y-39054D01*
X45107Y-39150D01*
X45029Y-39150D01*
X45029Y-38075D01*
X45018Y-37867D01*
X44960Y-37727D01*
X44867Y-37702D01*
X44797Y-37773D01*
X44797Y-37632D01*
X44772Y-37539D01*
X44575Y-37470D01*
X44367Y-37481D01*
X44227Y-37539D01*
X44202Y-37632D01*
X44500Y-37929D01*
X44797Y-37632D01*
X44797Y-37773D01*
X44570Y-38000D01*
X44867Y-38297D01*
X44960Y-38272D01*
X45029Y-38075D01*
X45029Y-39150D01*
X44797Y-39150D01*
X44797Y-38367D01*
X44500Y-38070D01*
X44429Y-38141D01*
X44429Y-38000D01*
X44132Y-37702D01*
X44039Y-37727D01*
X43970Y-37924D01*
X43981Y-38132D01*
X44039Y-38272D01*
X44132Y-38297D01*
X44429Y-38000D01*
X44429Y-38141D01*
X44202Y-38367D01*
X44227Y-38460D01*
X44424Y-38529D01*
X44632Y-38518D01*
X44772Y-38460D01*
X44797Y-38367D01*
X44797Y-39150D01*
X44250Y-39150D01*
X44236Y-39152D01*
X44208Y-39150D01*
X44146Y-39170D01*
X44116Y-39176D01*
X44105Y-39183D01*
X44078Y-39192D01*
X41909Y-40400D01*
X19250Y-40400D01*
X19250Y-37551D01*
X19098Y-37184D01*
X18817Y-36902D01*
X18449Y-36750D01*
X18051Y-36749D01*
X17684Y-36901D01*
X17402Y-37182D01*
X17250Y-37550D01*
X17249Y-37948D01*
X17401Y-38315D01*
X17682Y-38597D01*
X18050Y-38749D01*
X18448Y-38750D01*
X18815Y-38598D01*
X19097Y-38317D01*
X19249Y-37949D01*
X19250Y-37551D01*
X19250Y-40400D01*
X17894Y-40400D01*
X17100Y-39605D01*
X17100Y-34850D01*
X17947Y-34850D01*
X18140Y-34929D01*
X18358Y-34930D01*
X18561Y-34846D01*
X18699Y-34707D01*
X18699Y-34749D01*
X18699Y-35349D01*
X18737Y-35441D01*
X18808Y-35511D01*
X18900Y-35549D01*
X18999Y-35550D01*
X19599Y-35550D01*
X19691Y-35512D01*
X19761Y-35441D01*
X19799Y-35350D01*
X20257Y-35350D01*
X25301Y-40255D01*
X25416Y-40329D01*
X25550Y-40354D01*
X25570Y-40350D01*
X40000Y-40350D01*
X40051Y-40339D01*
X40104Y-40334D01*
X40118Y-40326D01*
X40133Y-40323D01*
X40177Y-40294D01*
X40224Y-40268D01*
X41724Y-39019D01*
X41734Y-39006D01*
X41747Y-38997D01*
X41775Y-38955D01*
X41810Y-38912D01*
X41814Y-38896D01*
X41823Y-38883D01*
X41833Y-38833D01*
X41848Y-38781D01*
X41846Y-38765D01*
X41850Y-38750D01*
X41850Y-38392D01*
X41944Y-38297D01*
X42024Y-38104D01*
X42025Y-37896D01*
X41945Y-37703D01*
X41797Y-37555D01*
X41604Y-37475D01*
X41396Y-37474D01*
X41203Y-37554D01*
X41055Y-37702D01*
X40975Y-37895D01*
X40974Y-38103D01*
X41054Y-38297D01*
X41150Y-38392D01*
X41150Y-38586D01*
X39873Y-39650D01*
X25683Y-39650D01*
X20644Y-34749D01*
X20588Y-34713D01*
X20533Y-34676D01*
X20531Y-34676D01*
X20529Y-34674D01*
X20464Y-34662D01*
X20400Y-34650D01*
X19799Y-34650D01*
X19762Y-34558D01*
X19691Y-34488D01*
X19599Y-34450D01*
X19500Y-34449D01*
X19359Y-34449D01*
X19561Y-34366D01*
X19677Y-34250D01*
X20456Y-34250D01*
X25003Y-38749D01*
X25116Y-38824D01*
X25251Y-38850D01*
X25254Y-38850D01*
X26107Y-38850D01*
X26202Y-38944D01*
X26395Y-39024D01*
X26603Y-39025D01*
X26797Y-38945D01*
X26944Y-38797D01*
X27024Y-38604D01*
X27025Y-38396D01*
X26945Y-38203D01*
X26797Y-38055D01*
X26604Y-37975D01*
X26396Y-37974D01*
X26203Y-38054D01*
X26107Y-38150D01*
X25811Y-38150D01*
X25811Y-27632D01*
X25500Y-27320D01*
X25429Y-27391D01*
X25429Y-27250D01*
X25117Y-26938D01*
X25022Y-26964D01*
X24949Y-27169D01*
X24960Y-27386D01*
X25022Y-27535D01*
X25117Y-27561D01*
X25429Y-27250D01*
X25429Y-27391D01*
X25188Y-27632D01*
X25214Y-27727D01*
X25419Y-27800D01*
X25636Y-27789D01*
X25785Y-27727D01*
X25811Y-27632D01*
X25811Y-38150D01*
X25392Y-38150D01*
X20846Y-33651D01*
X20789Y-33614D01*
X20733Y-33576D01*
X20733Y-33576D01*
X20732Y-33575D01*
X20666Y-33563D01*
X20600Y-33550D01*
X19677Y-33550D01*
X19561Y-33434D01*
X19419Y-33374D01*
X19561Y-33316D01*
X19715Y-33161D01*
X19799Y-32959D01*
X19800Y-32741D01*
X19716Y-32538D01*
X19561Y-32384D01*
X19359Y-32300D01*
X19358Y-32300D01*
X19561Y-32216D01*
X19715Y-32061D01*
X19799Y-31859D01*
X19800Y-31641D01*
X19716Y-31438D01*
X19561Y-31284D01*
X19359Y-31200D01*
X19358Y-31200D01*
X19561Y-31116D01*
X19677Y-31000D01*
X21925Y-31000D01*
X21930Y-30998D01*
X21936Y-30999D01*
X21997Y-30985D01*
X22058Y-30973D01*
X22063Y-30970D01*
X22069Y-30968D01*
X22120Y-30932D01*
X22172Y-30897D01*
X22175Y-30892D01*
X22180Y-30889D01*
X23256Y-29739D01*
X23302Y-29665D01*
X23323Y-29633D01*
X23324Y-29630D01*
X23328Y-29623D01*
X23341Y-29540D01*
X23350Y-29500D01*
X23350Y-29491D01*
X23350Y-29488D01*
X23350Y-29487D01*
X23350Y-18644D01*
X25497Y-16497D01*
X25644Y-16350D01*
X27000Y-16350D01*
X31250Y-16350D01*
X34355Y-16350D01*
X34975Y-16970D01*
X34974Y-17103D01*
X35054Y-17297D01*
X35202Y-17444D01*
X35395Y-17524D01*
X35603Y-17525D01*
X35797Y-17445D01*
X35944Y-17297D01*
X36024Y-17104D01*
X36025Y-16896D01*
X35945Y-16703D01*
X35797Y-16555D01*
X35604Y-16475D01*
X35469Y-16474D01*
X34844Y-15850D01*
X38655Y-15850D01*
X36752Y-17752D01*
X36676Y-17866D01*
X36650Y-18000D01*
X36650Y-18650D01*
X32892Y-18650D01*
X32797Y-18555D01*
X32604Y-18475D01*
X32396Y-18474D01*
X32203Y-18554D01*
X32107Y-18650D01*
X31892Y-18650D01*
X31797Y-18555D01*
X31664Y-18499D01*
X31797Y-18445D01*
X31892Y-18350D01*
X32500Y-18350D01*
X33357Y-18350D01*
X33452Y-18444D01*
X33645Y-18524D01*
X33853Y-18525D01*
X34047Y-18445D01*
X34194Y-18297D01*
X34274Y-18104D01*
X34275Y-17896D01*
X34195Y-17703D01*
X34047Y-17555D01*
X33854Y-17475D01*
X33646Y-17474D01*
X33453Y-17554D01*
X33357Y-17650D01*
X33029Y-17650D01*
X33029Y-17075D01*
X33018Y-16867D01*
X32960Y-16727D01*
X32867Y-16702D01*
X32797Y-16773D01*
X32797Y-16632D01*
X32772Y-16539D01*
X32575Y-16470D01*
X32367Y-16481D01*
X32227Y-16539D01*
X32202Y-16632D01*
X32500Y-16929D01*
X32797Y-16632D01*
X32797Y-16773D01*
X32570Y-17000D01*
X32867Y-17297D01*
X32960Y-17272D01*
X33029Y-17075D01*
X33029Y-17650D01*
X32797Y-17650D01*
X32797Y-17367D01*
X32500Y-17070D01*
X32429Y-17141D01*
X32429Y-17000D01*
X32132Y-16702D01*
X32039Y-16727D01*
X31970Y-16924D01*
X31981Y-17132D01*
X32039Y-17272D01*
X32132Y-17297D01*
X32429Y-17000D01*
X32429Y-17141D01*
X32202Y-17367D01*
X32227Y-17460D01*
X32424Y-17529D01*
X32632Y-17518D01*
X32772Y-17460D01*
X32797Y-17367D01*
X32797Y-17650D01*
X32500Y-17650D01*
X31892Y-17650D01*
X31797Y-17555D01*
X31604Y-17475D01*
X31396Y-17474D01*
X31203Y-17554D01*
X31055Y-17702D01*
X31051Y-17711D01*
X30305Y-18208D01*
X30281Y-18233D01*
X30252Y-18252D01*
X30233Y-18281D01*
X30209Y-18305D01*
X30195Y-18337D01*
X30176Y-18366D01*
X30169Y-18399D01*
X30156Y-18431D01*
X30156Y-18466D01*
X30150Y-18500D01*
X30150Y-20000D01*
X30176Y-20133D01*
X30252Y-20247D01*
X30975Y-20970D01*
X30974Y-21103D01*
X31054Y-21297D01*
X31202Y-21444D01*
X31328Y-21497D01*
X31227Y-21539D01*
X31202Y-21632D01*
X31500Y-21929D01*
X31797Y-21632D01*
X31772Y-21539D01*
X31662Y-21500D01*
X31797Y-21445D01*
X31892Y-21350D01*
X32107Y-21350D01*
X32202Y-21444D01*
X32395Y-21524D01*
X32603Y-21525D01*
X32797Y-21445D01*
X32944Y-21297D01*
X33024Y-21104D01*
X33025Y-20896D01*
X32945Y-20703D01*
X32797Y-20555D01*
X32604Y-20475D01*
X32396Y-20474D01*
X32203Y-20554D01*
X32107Y-20650D01*
X31892Y-20650D01*
X31797Y-20555D01*
X31664Y-20499D01*
X31797Y-20445D01*
X31892Y-20350D01*
X33357Y-20350D01*
X33452Y-20444D01*
X33645Y-20524D01*
X33853Y-20525D01*
X34047Y-20445D01*
X34142Y-20350D01*
X35107Y-20350D01*
X35150Y-20392D01*
X35150Y-20607D01*
X35055Y-20702D01*
X34975Y-20895D01*
X34974Y-21103D01*
X35054Y-21297D01*
X35202Y-21444D01*
X35395Y-21524D01*
X35603Y-21525D01*
X35797Y-21445D01*
X35944Y-21297D01*
X36024Y-21104D01*
X36025Y-20896D01*
X35945Y-20703D01*
X35850Y-20607D01*
X35850Y-20392D01*
X35944Y-20297D01*
X36024Y-20104D01*
X36025Y-19896D01*
X35945Y-19703D01*
X35797Y-19555D01*
X35604Y-19475D01*
X35396Y-19474D01*
X35203Y-19554D01*
X35107Y-19650D01*
X34142Y-19650D01*
X34047Y-19555D01*
X33854Y-19475D01*
X33646Y-19474D01*
X33453Y-19554D01*
X33357Y-19650D01*
X31892Y-19650D01*
X31797Y-19555D01*
X31664Y-19499D01*
X31797Y-19445D01*
X31892Y-19350D01*
X32107Y-19350D01*
X32202Y-19444D01*
X32395Y-19524D01*
X32603Y-19525D01*
X32797Y-19445D01*
X32892Y-19350D01*
X36650Y-19350D01*
X36650Y-24000D01*
X36676Y-24133D01*
X36752Y-24247D01*
X38002Y-25497D01*
X38116Y-25573D01*
X38116Y-25573D01*
X38149Y-25579D01*
X38038Y-25690D01*
X37954Y-25891D01*
X37954Y-26107D01*
X38037Y-26308D01*
X38150Y-26421D01*
X38150Y-27000D01*
X38150Y-30224D01*
X38146Y-30224D01*
X37953Y-30304D01*
X37805Y-30452D01*
X37775Y-30524D01*
X37775Y-30524D01*
X37774Y-30425D01*
X37736Y-30333D01*
X37666Y-30262D01*
X37574Y-30224D01*
X37362Y-30225D01*
X37300Y-30287D01*
X37300Y-30700D01*
X37307Y-30700D01*
X37307Y-30800D01*
X37300Y-30800D01*
X37300Y-31212D01*
X37362Y-31275D01*
X37574Y-31275D01*
X37666Y-31237D01*
X37736Y-31166D01*
X37774Y-31074D01*
X37775Y-30975D01*
X37775Y-30975D01*
X37804Y-31047D01*
X37952Y-31194D01*
X38145Y-31274D01*
X38150Y-31274D01*
X38150Y-31578D01*
X38038Y-31690D01*
X37954Y-31891D01*
X37954Y-32050D01*
X37855Y-32150D01*
X37200Y-32150D01*
X37200Y-31212D01*
X37200Y-30800D01*
X37200Y-30700D01*
X37200Y-30287D01*
X37137Y-30225D01*
X37050Y-30224D01*
X37050Y-29580D01*
X37039Y-29363D01*
X36977Y-29214D01*
X36882Y-29188D01*
X36811Y-29258D01*
X36811Y-29117D01*
X36785Y-29022D01*
X36580Y-28949D01*
X36363Y-28960D01*
X36214Y-29022D01*
X36188Y-29117D01*
X36500Y-29429D01*
X36811Y-29117D01*
X36811Y-29258D01*
X36570Y-29500D01*
X36882Y-29811D01*
X36977Y-29785D01*
X37050Y-29580D01*
X37050Y-30224D01*
X36925Y-30224D01*
X36833Y-30262D01*
X36811Y-30284D01*
X36811Y-29882D01*
X36500Y-29570D01*
X36429Y-29641D01*
X36429Y-29500D01*
X36117Y-29188D01*
X36022Y-29214D01*
X35949Y-29419D01*
X35960Y-29636D01*
X36022Y-29785D01*
X36117Y-29811D01*
X36429Y-29500D01*
X36429Y-29641D01*
X36188Y-29882D01*
X36214Y-29977D01*
X36419Y-30050D01*
X36636Y-30039D01*
X36785Y-29977D01*
X36811Y-29882D01*
X36811Y-30284D01*
X36763Y-30333D01*
X36725Y-30425D01*
X36724Y-30524D01*
X36725Y-30637D01*
X36787Y-30700D01*
X37200Y-30700D01*
X37200Y-30800D01*
X36787Y-30800D01*
X36725Y-30862D01*
X36724Y-30975D01*
X36725Y-31074D01*
X36763Y-31166D01*
X36833Y-31237D01*
X36925Y-31275D01*
X37137Y-31275D01*
X37200Y-31212D01*
X37200Y-32150D01*
X36275Y-32150D01*
X36275Y-30396D01*
X36195Y-30203D01*
X36047Y-30055D01*
X35854Y-29975D01*
X35646Y-29974D01*
X35453Y-30054D01*
X35357Y-30150D01*
X34927Y-30150D01*
X34811Y-30034D01*
X34609Y-29950D01*
X34391Y-29949D01*
X34188Y-30033D01*
X34049Y-30172D01*
X34049Y-30150D01*
X34011Y-30058D01*
X33941Y-29987D01*
X33849Y-29949D01*
X33612Y-29950D01*
X33550Y-30012D01*
X33550Y-30450D01*
X33557Y-30450D01*
X33557Y-30550D01*
X33550Y-30550D01*
X33550Y-30557D01*
X33450Y-30557D01*
X33450Y-30550D01*
X33450Y-30450D01*
X33450Y-30012D01*
X33387Y-29950D01*
X33150Y-29949D01*
X33058Y-29987D01*
X32988Y-30058D01*
X32950Y-30150D01*
X32949Y-30249D01*
X32950Y-30387D01*
X33012Y-30450D01*
X33450Y-30450D01*
X33450Y-30550D01*
X33012Y-30550D01*
X32950Y-30612D01*
X32949Y-30659D01*
X32029Y-30659D01*
X32029Y-22075D01*
X32018Y-21867D01*
X31960Y-21727D01*
X31867Y-21702D01*
X31570Y-22000D01*
X31867Y-22297D01*
X31960Y-22272D01*
X32029Y-22075D01*
X32029Y-30659D01*
X31797Y-30659D01*
X31797Y-22367D01*
X31500Y-22070D01*
X31429Y-22141D01*
X31429Y-22000D01*
X31132Y-21702D01*
X31039Y-21727D01*
X30970Y-21924D01*
X30981Y-22132D01*
X31039Y-22272D01*
X31132Y-22297D01*
X31429Y-22000D01*
X31429Y-22141D01*
X31202Y-22367D01*
X31227Y-22460D01*
X31424Y-22529D01*
X31632Y-22518D01*
X31772Y-22460D01*
X31797Y-22367D01*
X31797Y-30659D01*
X31791Y-30659D01*
X31791Y-32222D01*
X33937Y-32222D01*
X34208Y-32222D01*
X35062Y-32222D01*
X35062Y-30850D01*
X35357Y-30850D01*
X35452Y-30944D01*
X35645Y-31024D01*
X35853Y-31025D01*
X36047Y-30945D01*
X36194Y-30797D01*
X36274Y-30604D01*
X36275Y-30396D01*
X36275Y-32150D01*
X35500Y-32150D01*
X35366Y-32176D01*
X35252Y-32252D01*
X34529Y-32975D01*
X34396Y-32974D01*
X34203Y-33054D01*
X34107Y-33150D01*
X33892Y-33150D01*
X33797Y-33055D01*
X33604Y-32975D01*
X33396Y-32974D01*
X33203Y-33054D01*
X33055Y-33202D01*
X32975Y-33395D01*
X32974Y-33603D01*
X33054Y-33797D01*
X33202Y-33944D01*
X33328Y-33997D01*
X33227Y-34039D01*
X33202Y-34132D01*
X33500Y-34429D01*
X33797Y-34132D01*
X33772Y-34039D01*
X33662Y-34000D01*
X33797Y-33945D01*
X33892Y-33850D01*
X34107Y-33850D01*
X34202Y-33944D01*
X34328Y-33997D01*
X34227Y-34039D01*
X34202Y-34132D01*
X34500Y-34429D01*
X34797Y-34132D01*
X34772Y-34039D01*
X34662Y-34000D01*
X34797Y-33945D01*
X34944Y-33797D01*
X35024Y-33604D01*
X35025Y-33469D01*
X35644Y-32850D01*
X38000Y-32850D01*
X38133Y-32823D01*
X38133Y-32823D01*
X38247Y-32747D01*
X38449Y-32545D01*
X38607Y-32545D01*
X38808Y-32462D01*
X38961Y-32309D01*
X39045Y-32108D01*
X39045Y-31892D01*
X38962Y-31691D01*
X38850Y-31578D01*
X38850Y-31000D01*
X38823Y-30866D01*
X38774Y-30793D01*
X38775Y-30706D01*
X38823Y-30633D01*
X38850Y-30500D01*
X38850Y-27000D01*
X38850Y-26421D01*
X38961Y-26309D01*
X39045Y-26108D01*
X39045Y-25892D01*
X38973Y-25718D01*
X39150Y-25894D01*
X39150Y-26578D01*
X39038Y-26690D01*
X38954Y-26891D01*
X38954Y-27107D01*
X39037Y-27308D01*
X39150Y-27421D01*
X39150Y-30235D01*
X39083Y-30262D01*
X39013Y-30333D01*
X38975Y-30425D01*
X38974Y-30524D01*
X38974Y-31074D01*
X39012Y-31166D01*
X39083Y-31236D01*
X39150Y-31264D01*
X39150Y-32855D01*
X38752Y-33252D01*
X38676Y-33366D01*
X38650Y-33500D01*
X38650Y-36000D01*
X38650Y-37355D01*
X37105Y-38900D01*
X33842Y-38900D01*
X33944Y-38797D01*
X34024Y-38604D01*
X34025Y-38396D01*
X33945Y-38203D01*
X33850Y-38107D01*
X33850Y-37892D01*
X33944Y-37797D01*
X34024Y-37604D01*
X34025Y-37396D01*
X33945Y-37203D01*
X33850Y-37107D01*
X33850Y-37014D01*
X33916Y-36987D01*
X33986Y-36916D01*
X34014Y-36850D01*
X34107Y-36850D01*
X34202Y-36944D01*
X34395Y-37024D01*
X34603Y-37025D01*
X34797Y-36945D01*
X34892Y-36850D01*
X35572Y-36850D01*
X35688Y-36965D01*
X35890Y-37049D01*
X36108Y-37050D01*
X36311Y-36966D01*
X36465Y-36811D01*
X36502Y-36723D01*
X36537Y-36808D01*
X36690Y-36961D01*
X36891Y-37045D01*
X37107Y-37045D01*
X37308Y-36962D01*
X37461Y-36809D01*
X37497Y-36723D01*
X37533Y-36811D01*
X37688Y-36965D01*
X37890Y-37049D01*
X38108Y-37050D01*
X38311Y-36966D01*
X38465Y-36811D01*
X38549Y-36609D01*
X38550Y-36391D01*
X38466Y-36188D01*
X38311Y-36034D01*
X38109Y-35950D01*
X37891Y-35949D01*
X37688Y-36033D01*
X37534Y-36188D01*
X37497Y-36276D01*
X37462Y-36191D01*
X37350Y-36078D01*
X37350Y-35927D01*
X37465Y-35811D01*
X37549Y-35609D01*
X37550Y-35391D01*
X37466Y-35188D01*
X37311Y-35034D01*
X37109Y-34950D01*
X37068Y-34950D01*
X36256Y-33649D01*
X36274Y-33604D01*
X36275Y-33396D01*
X36195Y-33203D01*
X36047Y-33055D01*
X35854Y-32975D01*
X35646Y-32974D01*
X35453Y-33054D01*
X35305Y-33202D01*
X35225Y-33395D01*
X35224Y-33603D01*
X35304Y-33797D01*
X35452Y-33944D01*
X35645Y-34024D01*
X35665Y-34024D01*
X36368Y-35150D01*
X35029Y-35150D01*
X35029Y-34575D01*
X35018Y-34367D01*
X34960Y-34227D01*
X34867Y-34202D01*
X34570Y-34500D01*
X34867Y-34797D01*
X34960Y-34772D01*
X35029Y-34575D01*
X35029Y-35150D01*
X34892Y-35150D01*
X34797Y-35055D01*
X34671Y-35002D01*
X34772Y-34960D01*
X34797Y-34867D01*
X34500Y-34570D01*
X34429Y-34641D01*
X34429Y-34500D01*
X34132Y-34202D01*
X34039Y-34227D01*
X34003Y-34330D01*
X33960Y-34227D01*
X33867Y-34202D01*
X33570Y-34500D01*
X33867Y-34797D01*
X33960Y-34772D01*
X33996Y-34669D01*
X34039Y-34772D01*
X34132Y-34797D01*
X34429Y-34500D01*
X34429Y-34641D01*
X34202Y-34867D01*
X34227Y-34960D01*
X34337Y-34999D01*
X34203Y-35054D01*
X34107Y-35150D01*
X33892Y-35150D01*
X33797Y-35055D01*
X33671Y-35002D01*
X33772Y-34960D01*
X33797Y-34867D01*
X33500Y-34570D01*
X33429Y-34641D01*
X33429Y-34500D01*
X33132Y-34202D01*
X33039Y-34227D01*
X32970Y-34424D01*
X32981Y-34632D01*
X33039Y-34772D01*
X33132Y-34797D01*
X33429Y-34500D01*
X33429Y-34641D01*
X33202Y-34867D01*
X33227Y-34960D01*
X33337Y-34999D01*
X33203Y-35054D01*
X33055Y-35202D01*
X32975Y-35395D01*
X32974Y-35603D01*
X33054Y-35797D01*
X33202Y-35944D01*
X33274Y-35974D01*
X33175Y-35974D01*
X33083Y-36012D01*
X33013Y-36083D01*
X32975Y-36175D01*
X32974Y-36274D01*
X32974Y-36824D01*
X33012Y-36916D01*
X33083Y-36986D01*
X33150Y-37014D01*
X33150Y-37107D01*
X33055Y-37202D01*
X32975Y-37395D01*
X32974Y-37603D01*
X33054Y-37797D01*
X33150Y-37892D01*
X33150Y-38107D01*
X33055Y-38202D01*
X32975Y-38395D01*
X32974Y-38603D01*
X33054Y-38797D01*
X33157Y-38900D01*
X30029Y-38900D01*
X30029Y-38575D01*
X30018Y-38367D01*
X29960Y-38227D01*
X29867Y-38202D01*
X29797Y-38273D01*
X29797Y-38132D01*
X29772Y-38039D01*
X29575Y-37970D01*
X29367Y-37981D01*
X29227Y-38039D01*
X29202Y-38132D01*
X29500Y-38429D01*
X29797Y-38132D01*
X29797Y-38273D01*
X29570Y-38500D01*
X29867Y-38797D01*
X29960Y-38772D01*
X30029Y-38575D01*
X30029Y-38900D01*
X29788Y-38900D01*
X29797Y-38867D01*
X29500Y-38570D01*
X29429Y-38641D01*
X29429Y-38500D01*
X29132Y-38202D01*
X29039Y-38227D01*
X28970Y-38424D01*
X28981Y-38632D01*
X29039Y-38772D01*
X29132Y-38797D01*
X29429Y-38500D01*
X29429Y-38641D01*
X29202Y-38867D01*
X29211Y-38900D01*
X27894Y-38900D01*
X27850Y-38855D01*
X27850Y-37842D01*
X27952Y-37944D01*
X28145Y-38024D01*
X28353Y-38025D01*
X28547Y-37945D01*
X28642Y-37850D01*
X30107Y-37850D01*
X30202Y-37944D01*
X30395Y-38024D01*
X30603Y-38025D01*
X30797Y-37945D01*
X30944Y-37797D01*
X30953Y-37776D01*
X30997Y-37747D01*
X31497Y-37247D01*
X31573Y-37133D01*
X31573Y-37133D01*
X31600Y-37000D01*
X31600Y-35250D01*
X31599Y-35249D01*
X31600Y-35249D01*
X31573Y-35116D01*
X31497Y-35002D01*
X31497Y-35002D01*
X31029Y-34534D01*
X31029Y-33575D01*
X31018Y-33367D01*
X30960Y-33227D01*
X30867Y-33202D01*
X30797Y-33273D01*
X30797Y-33132D01*
X30772Y-33039D01*
X30575Y-32970D01*
X30367Y-32981D01*
X30227Y-33039D01*
X30208Y-33109D01*
X30208Y-26222D01*
X30208Y-24659D01*
X29050Y-24659D01*
X29050Y-24249D01*
X29049Y-24150D01*
X29045Y-24139D01*
X29045Y-22892D01*
X29029Y-22854D01*
X29029Y-21075D01*
X29025Y-20987D01*
X29025Y-19896D01*
X28945Y-19703D01*
X28797Y-19555D01*
X28725Y-19525D01*
X28824Y-19525D01*
X28916Y-19487D01*
X28986Y-19416D01*
X29024Y-19324D01*
X29025Y-19225D01*
X29025Y-18675D01*
X28987Y-18583D01*
X28916Y-18513D01*
X28850Y-18485D01*
X28850Y-18392D01*
X28944Y-18297D01*
X29024Y-18104D01*
X29025Y-17896D01*
X28945Y-17703D01*
X28797Y-17555D01*
X28707Y-17517D01*
X28582Y-17139D01*
X28575Y-17128D01*
X28573Y-17116D01*
X28542Y-17069D01*
X28514Y-17020D01*
X28504Y-17013D01*
X28497Y-17002D01*
X28450Y-16971D01*
X28406Y-16937D01*
X28394Y-16933D01*
X28383Y-16926D01*
X28329Y-16915D01*
X28275Y-16900D01*
X28262Y-16902D01*
X28250Y-16900D01*
X27927Y-16900D01*
X27811Y-16784D01*
X27609Y-16700D01*
X27391Y-16699D01*
X27188Y-16783D01*
X27034Y-16938D01*
X26950Y-17140D01*
X26949Y-17358D01*
X27033Y-17561D01*
X27188Y-17715D01*
X27390Y-17799D01*
X27608Y-17800D01*
X27811Y-17716D01*
X27927Y-17600D01*
X27997Y-17600D01*
X28042Y-17733D01*
X27975Y-17895D01*
X27974Y-18103D01*
X28054Y-18297D01*
X28150Y-18392D01*
X28150Y-18485D01*
X28083Y-18512D01*
X28013Y-18583D01*
X27985Y-18650D01*
X27892Y-18650D01*
X27797Y-18555D01*
X27604Y-18475D01*
X27396Y-18474D01*
X27203Y-18554D01*
X27107Y-18650D01*
X26427Y-18650D01*
X26311Y-18534D01*
X26109Y-18450D01*
X25891Y-18449D01*
X25688Y-18533D01*
X25534Y-18688D01*
X25497Y-18776D01*
X25462Y-18691D01*
X25309Y-18538D01*
X25108Y-18454D01*
X24892Y-18454D01*
X24691Y-18537D01*
X24538Y-18690D01*
X24502Y-18776D01*
X24466Y-18688D01*
X24311Y-18534D01*
X24109Y-18450D01*
X23891Y-18449D01*
X23688Y-18533D01*
X23534Y-18688D01*
X23450Y-18890D01*
X23449Y-19108D01*
X23533Y-19311D01*
X23688Y-19465D01*
X23890Y-19549D01*
X24108Y-19550D01*
X24311Y-19466D01*
X24465Y-19311D01*
X24502Y-19223D01*
X24537Y-19308D01*
X24650Y-19421D01*
X24650Y-19572D01*
X24534Y-19688D01*
X24450Y-19890D01*
X24449Y-20108D01*
X24533Y-20311D01*
X24650Y-20427D01*
X24650Y-21107D01*
X24555Y-21202D01*
X24475Y-21395D01*
X24474Y-21603D01*
X24554Y-21797D01*
X24702Y-21944D01*
X24895Y-22024D01*
X25103Y-22025D01*
X25297Y-21945D01*
X25444Y-21797D01*
X25524Y-21604D01*
X25525Y-21396D01*
X25445Y-21203D01*
X25350Y-21107D01*
X25350Y-20427D01*
X25427Y-20350D01*
X27107Y-20350D01*
X27202Y-20444D01*
X27328Y-20497D01*
X27227Y-20539D01*
X27202Y-20632D01*
X27500Y-20929D01*
X27797Y-20632D01*
X27772Y-20539D01*
X27662Y-20500D01*
X27797Y-20445D01*
X27892Y-20350D01*
X28107Y-20350D01*
X28202Y-20444D01*
X28328Y-20497D01*
X28227Y-20539D01*
X28202Y-20632D01*
X28500Y-20929D01*
X28797Y-20632D01*
X28772Y-20539D01*
X28662Y-20500D01*
X28797Y-20445D01*
X28944Y-20297D01*
X29024Y-20104D01*
X29025Y-19896D01*
X29025Y-20987D01*
X29018Y-20867D01*
X28960Y-20727D01*
X28867Y-20702D01*
X28570Y-21000D01*
X28867Y-21297D01*
X28960Y-21272D01*
X29029Y-21075D01*
X29029Y-22854D01*
X28962Y-22691D01*
X28850Y-22578D01*
X28850Y-22392D01*
X28944Y-22297D01*
X29024Y-22104D01*
X29025Y-21896D01*
X28945Y-21703D01*
X28797Y-21555D01*
X28671Y-21502D01*
X28772Y-21460D01*
X28797Y-21367D01*
X28500Y-21070D01*
X28429Y-21141D01*
X28429Y-21000D01*
X28132Y-20702D01*
X28039Y-20727D01*
X28003Y-20830D01*
X27960Y-20727D01*
X27867Y-20702D01*
X27570Y-21000D01*
X27867Y-21297D01*
X27960Y-21272D01*
X27996Y-21169D01*
X28039Y-21272D01*
X28132Y-21297D01*
X28429Y-21000D01*
X28429Y-21141D01*
X28202Y-21367D01*
X28227Y-21460D01*
X28337Y-21499D01*
X28203Y-21554D01*
X28107Y-21650D01*
X27892Y-21650D01*
X27797Y-21555D01*
X27671Y-21502D01*
X27772Y-21460D01*
X27797Y-21367D01*
X27500Y-21070D01*
X27429Y-21141D01*
X27429Y-21000D01*
X27132Y-20702D01*
X27039Y-20727D01*
X26970Y-20924D01*
X26981Y-21132D01*
X27039Y-21272D01*
X27132Y-21297D01*
X27429Y-21000D01*
X27429Y-21141D01*
X27202Y-21367D01*
X27227Y-21460D01*
X27337Y-21499D01*
X27203Y-21554D01*
X27055Y-21702D01*
X26975Y-21895D01*
X26974Y-22103D01*
X27054Y-22297D01*
X27202Y-22444D01*
X27395Y-22524D01*
X27603Y-22525D01*
X27797Y-22445D01*
X27892Y-22350D01*
X28107Y-22350D01*
X28150Y-22392D01*
X28150Y-22578D01*
X28038Y-22690D01*
X27954Y-22891D01*
X27954Y-23107D01*
X28037Y-23308D01*
X28190Y-23461D01*
X28391Y-23545D01*
X28607Y-23545D01*
X28808Y-23462D01*
X28961Y-23309D01*
X29045Y-23108D01*
X29045Y-22892D01*
X29045Y-24139D01*
X29011Y-24058D01*
X28941Y-23987D01*
X28849Y-23949D01*
X28612Y-23950D01*
X28550Y-24012D01*
X28550Y-24450D01*
X28987Y-24450D01*
X29050Y-24387D01*
X29050Y-24249D01*
X29050Y-24659D01*
X29050Y-24659D01*
X29050Y-24612D01*
X28987Y-24550D01*
X28550Y-24550D01*
X28550Y-24557D01*
X28450Y-24557D01*
X28450Y-24550D01*
X28442Y-24550D01*
X28442Y-24450D01*
X28450Y-24450D01*
X28450Y-24012D01*
X28387Y-23950D01*
X28150Y-23949D01*
X28058Y-23987D01*
X27988Y-24058D01*
X27950Y-24150D01*
X27950Y-24172D01*
X27811Y-24034D01*
X27609Y-23950D01*
X27391Y-23949D01*
X27188Y-24033D01*
X27072Y-24150D01*
X25392Y-24150D01*
X25297Y-24055D01*
X25104Y-23975D01*
X24896Y-23974D01*
X24703Y-24054D01*
X24555Y-24202D01*
X24475Y-24395D01*
X24474Y-24603D01*
X24554Y-24797D01*
X24702Y-24944D01*
X24895Y-25024D01*
X25103Y-25025D01*
X25297Y-24945D01*
X25392Y-24850D01*
X26895Y-24850D01*
X26895Y-26222D01*
X27791Y-26222D01*
X28104Y-26222D01*
X30208Y-26222D01*
X30208Y-33109D01*
X30202Y-33132D01*
X30500Y-33429D01*
X30797Y-33132D01*
X30797Y-33273D01*
X30570Y-33500D01*
X30867Y-33797D01*
X30960Y-33772D01*
X31029Y-33575D01*
X31029Y-34534D01*
X31024Y-34529D01*
X31025Y-34396D01*
X30945Y-34203D01*
X30797Y-34055D01*
X30671Y-34002D01*
X30772Y-33960D01*
X30797Y-33867D01*
X30500Y-33570D01*
X30429Y-33641D01*
X30429Y-33500D01*
X30132Y-33202D01*
X30039Y-33227D01*
X29970Y-33424D01*
X29981Y-33632D01*
X30039Y-33772D01*
X30132Y-33797D01*
X30429Y-33500D01*
X30429Y-33641D01*
X30202Y-33867D01*
X30227Y-33960D01*
X30337Y-33999D01*
X30203Y-34054D01*
X30107Y-34150D01*
X29892Y-34150D01*
X29797Y-34055D01*
X29604Y-33975D01*
X29396Y-33974D01*
X29203Y-34054D01*
X29055Y-34202D01*
X28975Y-34395D01*
X28974Y-34603D01*
X29054Y-34797D01*
X29202Y-34944D01*
X29395Y-35024D01*
X29603Y-35025D01*
X29797Y-34945D01*
X29892Y-34850D01*
X30107Y-34850D01*
X30202Y-34944D01*
X30335Y-35000D01*
X30203Y-35054D01*
X30107Y-35150D01*
X28642Y-35150D01*
X28547Y-35055D01*
X28354Y-34975D01*
X28146Y-34974D01*
X27953Y-35054D01*
X27857Y-35150D01*
X26892Y-35150D01*
X26850Y-35107D01*
X26850Y-34892D01*
X26944Y-34797D01*
X27024Y-34604D01*
X27025Y-34396D01*
X26945Y-34203D01*
X26797Y-34055D01*
X26604Y-33975D01*
X26396Y-33974D01*
X26203Y-34054D01*
X26055Y-34202D01*
X26050Y-34214D01*
X26050Y-27330D01*
X26039Y-27113D01*
X25977Y-26964D01*
X25882Y-26938D01*
X25811Y-27008D01*
X25811Y-26867D01*
X25785Y-26772D01*
X25580Y-26699D01*
X25363Y-26710D01*
X25214Y-26772D01*
X25188Y-26867D01*
X25500Y-27179D01*
X25811Y-26867D01*
X25811Y-27008D01*
X25570Y-27250D01*
X25882Y-27561D01*
X25977Y-27535D01*
X26050Y-27330D01*
X26050Y-34214D01*
X25975Y-34395D01*
X25974Y-34603D01*
X26054Y-34797D01*
X26150Y-34892D01*
X26150Y-35107D01*
X26055Y-35202D01*
X25975Y-35395D01*
X25974Y-35603D01*
X26054Y-35797D01*
X26202Y-35944D01*
X26395Y-36024D01*
X26603Y-36025D01*
X26797Y-35945D01*
X26892Y-35850D01*
X27857Y-35850D01*
X27952Y-35944D01*
X28145Y-36024D01*
X28353Y-36025D01*
X28547Y-35945D01*
X28642Y-35850D01*
X30107Y-35850D01*
X30202Y-35944D01*
X30335Y-36000D01*
X30203Y-36054D01*
X30107Y-36150D01*
X29892Y-36150D01*
X29797Y-36055D01*
X29604Y-35975D01*
X29396Y-35974D01*
X29203Y-36054D01*
X29107Y-36150D01*
X27750Y-36150D01*
X27616Y-36176D01*
X27502Y-36252D01*
X27502Y-36252D01*
X27252Y-36502D01*
X27176Y-36616D01*
X27150Y-36750D01*
X27150Y-39000D01*
X27176Y-39133D01*
X27252Y-39247D01*
X27502Y-39497D01*
X27502Y-39497D01*
X27616Y-39573D01*
X27750Y-39600D01*
X37250Y-39600D01*
X37383Y-39573D01*
X37383Y-39573D01*
X37497Y-39497D01*
X39247Y-37747D01*
X39323Y-37633D01*
X39350Y-37500D01*
X39350Y-36350D01*
X44107Y-36350D01*
X44202Y-36444D01*
X44395Y-36524D01*
X44603Y-36525D01*
X44797Y-36445D01*
X44892Y-36350D01*
X45107Y-36350D01*
X45202Y-36444D01*
X45335Y-36500D01*
X45203Y-36554D01*
X45107Y-36650D01*
X45000Y-36650D01*
X43892Y-36650D01*
X43797Y-36555D01*
X43604Y-36475D01*
X43396Y-36474D01*
X43203Y-36554D01*
X43055Y-36702D01*
X42975Y-36895D01*
X42974Y-37103D01*
X43054Y-37297D01*
X43202Y-37444D01*
X43395Y-37524D01*
X43603Y-37525D01*
X43797Y-37445D01*
X43892Y-37350D01*
X45000Y-37350D01*
X45107Y-37350D01*
X45202Y-37444D01*
X45395Y-37524D01*
X45603Y-37525D01*
X45797Y-37445D01*
X45944Y-37297D01*
X46024Y-37104D01*
X46024Y-37070D01*
X46444Y-36791D01*
X46468Y-36767D01*
X46497Y-36747D01*
X46516Y-36718D01*
X46540Y-36694D01*
X46553Y-36663D01*
X46573Y-36633D01*
X46580Y-36599D01*
X46593Y-36568D01*
X46593Y-36534D01*
X46600Y-36500D01*
X46600Y-34750D01*
X46599Y-34749D01*
X46600Y-34749D01*
X46573Y-34616D01*
X46497Y-34502D01*
X46497Y-34502D01*
X46029Y-34034D01*
X46029Y-33075D01*
X46018Y-32867D01*
X45960Y-32727D01*
X45867Y-32702D01*
X45797Y-32773D01*
X45797Y-32632D01*
X45772Y-32539D01*
X45575Y-32470D01*
X45367Y-32481D01*
X45227Y-32539D01*
X45202Y-32632D01*
X45500Y-32929D01*
X45797Y-32632D01*
X45797Y-32773D01*
X45570Y-33000D01*
X45867Y-33297D01*
X45960Y-33272D01*
X46029Y-33075D01*
X46029Y-34034D01*
X46024Y-34029D01*
X46025Y-33896D01*
X45945Y-33703D01*
X45797Y-33555D01*
X45671Y-33502D01*
X45772Y-33460D01*
X45797Y-33367D01*
X45500Y-33070D01*
X45429Y-33141D01*
X45429Y-33000D01*
X45132Y-32702D01*
X45039Y-32727D01*
X44970Y-32924D01*
X44981Y-33132D01*
X45039Y-33272D01*
X45132Y-33297D01*
X45429Y-33000D01*
X45429Y-33141D01*
X45202Y-33367D01*
X45227Y-33460D01*
X45337Y-33499D01*
X45203Y-33554D01*
X45107Y-33650D01*
X44892Y-33650D01*
X44797Y-33555D01*
X44604Y-33475D01*
X44396Y-33474D01*
X44203Y-33554D01*
X44055Y-33702D01*
X43975Y-33895D01*
X43974Y-34103D01*
X44054Y-34297D01*
X44202Y-34444D01*
X44395Y-34524D01*
X44603Y-34525D01*
X44797Y-34445D01*
X44892Y-34350D01*
X45107Y-34350D01*
X45202Y-34444D01*
X45335Y-34500D01*
X45203Y-34554D01*
X45107Y-34650D01*
X43892Y-34650D01*
X43811Y-34569D01*
X43811Y-27382D01*
X43500Y-27070D01*
X43429Y-27141D01*
X43429Y-27000D01*
X43117Y-26688D01*
X43022Y-26714D01*
X42949Y-26919D01*
X42960Y-27136D01*
X43022Y-27285D01*
X43117Y-27311D01*
X43429Y-27000D01*
X43429Y-27141D01*
X43188Y-27382D01*
X43214Y-27477D01*
X43419Y-27550D01*
X43636Y-27539D01*
X43785Y-27477D01*
X43811Y-27382D01*
X43811Y-34569D01*
X43797Y-34555D01*
X43604Y-34475D01*
X43396Y-34474D01*
X43203Y-34554D01*
X43107Y-34650D01*
X42050Y-34650D01*
X42050Y-29580D01*
X42039Y-29363D01*
X41977Y-29214D01*
X41882Y-29188D01*
X41811Y-29258D01*
X41811Y-29117D01*
X41785Y-29022D01*
X41580Y-28949D01*
X41363Y-28960D01*
X41214Y-29022D01*
X41188Y-29117D01*
X41500Y-29429D01*
X41811Y-29117D01*
X41811Y-29258D01*
X41570Y-29500D01*
X41882Y-29811D01*
X41977Y-29785D01*
X42050Y-29580D01*
X42050Y-34650D01*
X41892Y-34650D01*
X41850Y-34607D01*
X41850Y-34392D01*
X41944Y-34297D01*
X42024Y-34104D01*
X42025Y-33896D01*
X41945Y-33703D01*
X41811Y-33569D01*
X41811Y-29882D01*
X41500Y-29570D01*
X41429Y-29641D01*
X41429Y-29500D01*
X41117Y-29188D01*
X41022Y-29214D01*
X40949Y-29419D01*
X40960Y-29636D01*
X41022Y-29785D01*
X41117Y-29811D01*
X41429Y-29500D01*
X41429Y-29641D01*
X41188Y-29882D01*
X41214Y-29977D01*
X41419Y-30050D01*
X41636Y-30039D01*
X41785Y-29977D01*
X41811Y-29882D01*
X41811Y-33569D01*
X41797Y-33555D01*
X41604Y-33475D01*
X41396Y-33474D01*
X41203Y-33554D01*
X41055Y-33702D01*
X41029Y-33763D01*
X41029Y-30825D01*
X41018Y-30617D01*
X40960Y-30477D01*
X40867Y-30452D01*
X40811Y-30508D01*
X40811Y-27382D01*
X40500Y-27070D01*
X40188Y-27382D01*
X40214Y-27477D01*
X40419Y-27550D01*
X40636Y-27539D01*
X40785Y-27477D01*
X40811Y-27382D01*
X40811Y-30508D01*
X40797Y-30523D01*
X40797Y-30382D01*
X40772Y-30289D01*
X40575Y-30220D01*
X40367Y-30231D01*
X40227Y-30289D01*
X40202Y-30382D01*
X40500Y-30679D01*
X40797Y-30382D01*
X40797Y-30523D01*
X40570Y-30750D01*
X40867Y-31047D01*
X40960Y-31022D01*
X41029Y-30825D01*
X41029Y-33763D01*
X40975Y-33895D01*
X40974Y-34103D01*
X41054Y-34297D01*
X41150Y-34392D01*
X41150Y-34607D01*
X41055Y-34702D01*
X40975Y-34895D01*
X40974Y-35103D01*
X41054Y-35297D01*
X41202Y-35444D01*
X41395Y-35524D01*
X41603Y-35525D01*
X41797Y-35445D01*
X41892Y-35350D01*
X43107Y-35350D01*
X43202Y-35444D01*
X43395Y-35524D01*
X43603Y-35525D01*
X43797Y-35445D01*
X43892Y-35350D01*
X45107Y-35350D01*
X45202Y-35444D01*
X45335Y-35500D01*
X45203Y-35554D01*
X45107Y-35650D01*
X44892Y-35650D01*
X44797Y-35555D01*
X44604Y-35475D01*
X44396Y-35474D01*
X44203Y-35554D01*
X44107Y-35650D01*
X40797Y-35650D01*
X40797Y-31117D01*
X40500Y-30820D01*
X40202Y-31117D01*
X40227Y-31210D01*
X40424Y-31279D01*
X40632Y-31268D01*
X40772Y-31210D01*
X40797Y-31117D01*
X40797Y-35650D01*
X39350Y-35650D01*
X39350Y-33644D01*
X39747Y-33247D01*
X39823Y-33133D01*
X39823Y-33133D01*
X39850Y-33000D01*
X39850Y-31264D01*
X39916Y-31237D01*
X39986Y-31166D01*
X40024Y-31074D01*
X40025Y-30987D01*
X40039Y-31022D01*
X40132Y-31047D01*
X40429Y-30750D01*
X40132Y-30452D01*
X40039Y-30477D01*
X40025Y-30518D01*
X40025Y-30425D01*
X39987Y-30333D01*
X39916Y-30263D01*
X39850Y-30235D01*
X39850Y-27421D01*
X39961Y-27309D01*
X39997Y-27224D01*
X40022Y-27285D01*
X40117Y-27311D01*
X40429Y-27000D01*
X40117Y-26688D01*
X40022Y-26714D01*
X39999Y-26780D01*
X39962Y-26691D01*
X39850Y-26578D01*
X39850Y-25844D01*
X40461Y-26456D01*
X40363Y-26460D01*
X40214Y-26522D01*
X40188Y-26617D01*
X40500Y-26929D01*
X40505Y-26923D01*
X40576Y-26994D01*
X40570Y-27000D01*
X40882Y-27311D01*
X40977Y-27285D01*
X41000Y-27219D01*
X41037Y-27308D01*
X41190Y-27461D01*
X41391Y-27545D01*
X41607Y-27545D01*
X41808Y-27462D01*
X41961Y-27309D01*
X42045Y-27108D01*
X42045Y-26892D01*
X41962Y-26691D01*
X41809Y-26538D01*
X41608Y-26454D01*
X41449Y-26454D01*
X40019Y-25025D01*
X40103Y-25025D01*
X40297Y-24945D01*
X40392Y-24850D01*
X41895Y-24850D01*
X41895Y-26222D01*
X43104Y-26222D01*
X43104Y-25030D01*
X43150Y-25050D01*
X43387Y-25050D01*
X43450Y-24987D01*
X43450Y-24550D01*
X43442Y-24550D01*
X43442Y-24450D01*
X43450Y-24450D01*
X43450Y-24012D01*
X43387Y-23950D01*
X43150Y-23949D01*
X43058Y-23987D01*
X42988Y-24058D01*
X42950Y-24150D01*
X42950Y-24172D01*
X42811Y-24034D01*
X42609Y-23950D01*
X42391Y-23949D01*
X42188Y-24033D01*
X42072Y-24150D01*
X40392Y-24150D01*
X40297Y-24055D01*
X40104Y-23975D01*
X39896Y-23974D01*
X39703Y-24054D01*
X39555Y-24202D01*
X39475Y-24395D01*
X39475Y-24480D01*
X39247Y-24252D01*
X39133Y-24176D01*
X39000Y-24150D01*
X38921Y-24150D01*
X38850Y-24078D01*
X38850Y-23421D01*
X38921Y-23350D01*
X41500Y-23350D01*
X41633Y-23323D01*
X41633Y-23323D01*
X41747Y-23247D01*
X42470Y-22524D01*
X42603Y-22525D01*
X42797Y-22445D01*
X42892Y-22350D01*
X43107Y-22350D01*
X43150Y-22392D01*
X43150Y-22578D01*
X43038Y-22690D01*
X42954Y-22891D01*
X42954Y-23107D01*
X43037Y-23308D01*
X43190Y-23461D01*
X43391Y-23545D01*
X43607Y-23545D01*
X43808Y-23462D01*
X43961Y-23309D01*
X44045Y-23108D01*
X44045Y-22892D01*
X44029Y-22854D01*
X44029Y-21075D01*
X44025Y-20987D01*
X44025Y-19896D01*
X43945Y-19703D01*
X43797Y-19555D01*
X43725Y-19525D01*
X43824Y-19525D01*
X43916Y-19487D01*
X43986Y-19416D01*
X44024Y-19324D01*
X44025Y-19225D01*
X44025Y-18675D01*
X43987Y-18583D01*
X43916Y-18513D01*
X43850Y-18485D01*
X43850Y-18392D01*
X43944Y-18297D01*
X44024Y-18104D01*
X44025Y-17896D01*
X43945Y-17703D01*
X43797Y-17555D01*
X43604Y-17475D01*
X43469Y-17474D01*
X43049Y-17054D01*
X43050Y-16891D01*
X42966Y-16688D01*
X42811Y-16534D01*
X42609Y-16450D01*
X42391Y-16449D01*
X42188Y-16533D01*
X42034Y-16688D01*
X41950Y-16890D01*
X41949Y-17108D01*
X42033Y-17311D01*
X42188Y-17465D01*
X42390Y-17549D01*
X42555Y-17550D01*
X42975Y-17970D01*
X42974Y-18103D01*
X43054Y-18297D01*
X43150Y-18392D01*
X43150Y-18485D01*
X43083Y-18512D01*
X43013Y-18583D01*
X42985Y-18650D01*
X42892Y-18650D01*
X42797Y-18555D01*
X42604Y-18475D01*
X42396Y-18474D01*
X42203Y-18554D01*
X42107Y-18650D01*
X41427Y-18650D01*
X41311Y-18534D01*
X41109Y-18450D01*
X40891Y-18449D01*
X40688Y-18533D01*
X40534Y-18688D01*
X40497Y-18776D01*
X40462Y-18691D01*
X40309Y-18538D01*
X40108Y-18454D01*
X39892Y-18454D01*
X39691Y-18537D01*
X39538Y-18690D01*
X39502Y-18776D01*
X39466Y-18688D01*
X39311Y-18534D01*
X39109Y-18450D01*
X38891Y-18449D01*
X38688Y-18533D01*
X38534Y-18688D01*
X38450Y-18890D01*
X38449Y-19108D01*
X38533Y-19311D01*
X38688Y-19465D01*
X38890Y-19549D01*
X39108Y-19550D01*
X39311Y-19466D01*
X39465Y-19311D01*
X39502Y-19223D01*
X39537Y-19308D01*
X39650Y-19421D01*
X39650Y-19572D01*
X39534Y-19688D01*
X39450Y-19890D01*
X39449Y-20108D01*
X39533Y-20311D01*
X39650Y-20427D01*
X39650Y-21107D01*
X39555Y-21202D01*
X39475Y-21395D01*
X39474Y-21603D01*
X39554Y-21797D01*
X39702Y-21944D01*
X39895Y-22024D01*
X40103Y-22025D01*
X40297Y-21945D01*
X40444Y-21797D01*
X40524Y-21604D01*
X40525Y-21396D01*
X40445Y-21203D01*
X40350Y-21107D01*
X40350Y-20427D01*
X40427Y-20350D01*
X42107Y-20350D01*
X42202Y-20444D01*
X42328Y-20497D01*
X42227Y-20539D01*
X42202Y-20632D01*
X42500Y-20929D01*
X42797Y-20632D01*
X42772Y-20539D01*
X42662Y-20500D01*
X42797Y-20445D01*
X42892Y-20350D01*
X43107Y-20350D01*
X43202Y-20444D01*
X43328Y-20497D01*
X43227Y-20539D01*
X43202Y-20632D01*
X43500Y-20929D01*
X43797Y-20632D01*
X43772Y-20539D01*
X43662Y-20500D01*
X43797Y-20445D01*
X43944Y-20297D01*
X44024Y-20104D01*
X44025Y-19896D01*
X44025Y-20987D01*
X44018Y-20867D01*
X43960Y-20727D01*
X43867Y-20702D01*
X43570Y-21000D01*
X43867Y-21297D01*
X43960Y-21272D01*
X44029Y-21075D01*
X44029Y-22854D01*
X43962Y-22691D01*
X43850Y-22578D01*
X43850Y-22392D01*
X43944Y-22297D01*
X44024Y-22104D01*
X44025Y-21896D01*
X43945Y-21703D01*
X43797Y-21555D01*
X43671Y-21502D01*
X43772Y-21460D01*
X43797Y-21367D01*
X43500Y-21070D01*
X43429Y-21141D01*
X43429Y-21000D01*
X43132Y-20702D01*
X43039Y-20727D01*
X43003Y-20830D01*
X42960Y-20727D01*
X42867Y-20702D01*
X42570Y-21000D01*
X42867Y-21297D01*
X42960Y-21272D01*
X42996Y-21169D01*
X43039Y-21272D01*
X43132Y-21297D01*
X43429Y-21000D01*
X43429Y-21141D01*
X43202Y-21367D01*
X43227Y-21460D01*
X43337Y-21499D01*
X43203Y-21554D01*
X43107Y-21650D01*
X42892Y-21650D01*
X42797Y-21555D01*
X42671Y-21502D01*
X42772Y-21460D01*
X42797Y-21367D01*
X42500Y-21070D01*
X42429Y-21141D01*
X42429Y-21000D01*
X42132Y-20702D01*
X42039Y-20727D01*
X41970Y-20924D01*
X41981Y-21132D01*
X42039Y-21272D01*
X42132Y-21297D01*
X42429Y-21000D01*
X42429Y-21141D01*
X42202Y-21367D01*
X42227Y-21460D01*
X42337Y-21499D01*
X42203Y-21554D01*
X42055Y-21702D01*
X41975Y-21895D01*
X41974Y-22030D01*
X41355Y-22650D01*
X38921Y-22650D01*
X38809Y-22538D01*
X38608Y-22454D01*
X38392Y-22454D01*
X38191Y-22537D01*
X38038Y-22690D01*
X37954Y-22891D01*
X37954Y-23107D01*
X38037Y-23308D01*
X38150Y-23421D01*
X38150Y-24078D01*
X38038Y-24190D01*
X37954Y-24391D01*
X37954Y-24459D01*
X37350Y-23855D01*
X37350Y-19000D01*
X37350Y-18144D01*
X39144Y-16350D01*
X48900Y-16350D01*
X48900Y-17657D01*
X48797Y-17555D01*
X48604Y-17475D01*
X48396Y-17474D01*
X48203Y-17554D01*
X48107Y-17650D01*
X48029Y-17650D01*
X48029Y-17075D01*
X48018Y-16867D01*
X47960Y-16727D01*
X47867Y-16702D01*
X47797Y-16773D01*
X47797Y-16632D01*
X47772Y-16539D01*
X47575Y-16470D01*
X47367Y-16481D01*
X47227Y-16539D01*
X47202Y-16632D01*
X47500Y-16929D01*
X47797Y-16632D01*
X47797Y-16773D01*
X47570Y-17000D01*
X47867Y-17297D01*
X47960Y-17272D01*
X48029Y-17075D01*
X48029Y-17650D01*
X47797Y-17650D01*
X47797Y-17367D01*
X47500Y-17070D01*
X47429Y-17141D01*
X47429Y-17000D01*
X47132Y-16702D01*
X47039Y-16727D01*
X46970Y-16924D01*
X46981Y-17132D01*
X47039Y-17272D01*
X47132Y-17297D01*
X47429Y-17000D01*
X47429Y-17141D01*
X47202Y-17367D01*
X47227Y-17460D01*
X47424Y-17529D01*
X47632Y-17518D01*
X47772Y-17460D01*
X47797Y-17367D01*
X47797Y-17650D01*
X46892Y-17650D01*
X46797Y-17555D01*
X46604Y-17475D01*
X46396Y-17474D01*
X46203Y-17554D01*
X46107Y-17650D01*
X45750Y-17650D01*
X45616Y-17676D01*
X45502Y-17752D01*
X45502Y-17752D01*
X45252Y-18002D01*
X45176Y-18116D01*
X45150Y-18250D01*
X45150Y-20750D01*
X45176Y-20883D01*
X45252Y-20997D01*
X45502Y-21247D01*
X45502Y-21247D01*
X45616Y-21323D01*
X45750Y-21350D01*
X46107Y-21350D01*
X46202Y-21444D01*
X46328Y-21497D01*
X46227Y-21539D01*
X46202Y-21632D01*
X46500Y-21929D01*
X46797Y-21632D01*
X46772Y-21539D01*
X46662Y-21500D01*
X46797Y-21445D01*
X46892Y-21350D01*
X47107Y-21350D01*
X47202Y-21444D01*
X47395Y-21524D01*
X47603Y-21525D01*
X47797Y-21445D01*
X47944Y-21297D01*
X48024Y-21104D01*
X48025Y-20896D01*
X47945Y-20703D01*
X47797Y-20555D01*
X47604Y-20475D01*
X47396Y-20474D01*
X47203Y-20554D01*
X47107Y-20650D01*
X46892Y-20650D01*
X46797Y-20555D01*
X46664Y-20499D01*
X46797Y-20445D01*
X46892Y-20350D01*
X48107Y-20350D01*
X48202Y-20444D01*
X48395Y-20524D01*
X48603Y-20525D01*
X48797Y-20445D01*
X48892Y-20350D01*
X49507Y-20350D01*
X49602Y-20444D01*
X49795Y-20524D01*
X49807Y-20524D01*
X49997Y-20841D01*
X49975Y-20895D01*
X49974Y-21103D01*
X50054Y-21297D01*
X50202Y-21444D01*
X50395Y-21524D01*
X50603Y-21525D01*
X50797Y-21445D01*
X50944Y-21297D01*
X51024Y-21104D01*
X51025Y-20896D01*
X50945Y-20703D01*
X50797Y-20555D01*
X50604Y-20475D01*
X50593Y-20475D01*
X50403Y-20157D01*
X50424Y-20104D01*
X50425Y-19896D01*
X50345Y-19703D01*
X50197Y-19555D01*
X50004Y-19475D01*
X49796Y-19474D01*
X49603Y-19554D01*
X49507Y-19650D01*
X48892Y-19650D01*
X48797Y-19555D01*
X48604Y-19475D01*
X48396Y-19474D01*
X48203Y-19554D01*
X48107Y-19650D01*
X46892Y-19650D01*
X46797Y-19555D01*
X46664Y-19499D01*
X46797Y-19445D01*
X46892Y-19350D01*
X47107Y-19350D01*
X47202Y-19444D01*
X47395Y-19524D01*
X47603Y-19525D01*
X47797Y-19445D01*
X47892Y-19350D01*
X49250Y-19350D01*
X50500Y-19350D01*
X50633Y-19323D01*
X50747Y-19247D01*
X50823Y-19133D01*
X50850Y-19000D01*
X50850Y-15850D01*
X61855Y-15850D01*
X63900Y-17894D01*
X63900Y-18355D01*
X63605Y-18650D01*
X62392Y-18650D01*
X62297Y-18555D01*
X62104Y-18475D01*
X61896Y-18474D01*
X61703Y-18554D01*
X61607Y-18650D01*
X61392Y-18650D01*
X61297Y-18555D01*
X61164Y-18499D01*
X61297Y-18445D01*
X61392Y-18350D01*
X62857Y-18350D01*
X62952Y-18444D01*
X63145Y-18524D01*
X63353Y-18525D01*
X63547Y-18445D01*
X63694Y-18297D01*
X63774Y-18104D01*
X63775Y-17896D01*
X63695Y-17703D01*
X63547Y-17555D01*
X63354Y-17475D01*
X63146Y-17474D01*
X62953Y-17554D01*
X62857Y-17650D01*
X62529Y-17650D01*
X62529Y-17075D01*
X62518Y-16867D01*
X62460Y-16727D01*
X62367Y-16702D01*
X62297Y-16773D01*
X62297Y-16632D01*
X62272Y-16539D01*
X62075Y-16470D01*
X61867Y-16481D01*
X61727Y-16539D01*
X61702Y-16632D01*
X62000Y-16929D01*
X62297Y-16632D01*
X62297Y-16773D01*
X62070Y-17000D01*
X62367Y-17297D01*
X62460Y-17272D01*
X62529Y-17075D01*
X62529Y-17650D01*
X62297Y-17650D01*
X62297Y-17367D01*
X62000Y-17070D01*
X61929Y-17141D01*
X61929Y-17000D01*
X61632Y-16702D01*
X61539Y-16727D01*
X61470Y-16924D01*
X61481Y-17132D01*
X61539Y-17272D01*
X61632Y-17297D01*
X61929Y-17000D01*
X61929Y-17141D01*
X61702Y-17367D01*
X61727Y-17460D01*
X61924Y-17529D01*
X62132Y-17518D01*
X62272Y-17460D01*
X62297Y-17367D01*
X62297Y-17650D01*
X61392Y-17650D01*
X61297Y-17555D01*
X61104Y-17475D01*
X60896Y-17474D01*
X60703Y-17554D01*
X60607Y-17650D01*
X60500Y-17650D01*
X60366Y-17676D01*
X60252Y-17752D01*
X60252Y-17752D01*
X60002Y-18002D01*
X59926Y-18116D01*
X59900Y-18250D01*
X59900Y-20750D01*
X59926Y-20883D01*
X60002Y-20997D01*
X60252Y-21247D01*
X60252Y-21247D01*
X60366Y-21323D01*
X60500Y-21350D01*
X60607Y-21350D01*
X60702Y-21444D01*
X60828Y-21497D01*
X60727Y-21539D01*
X60702Y-21632D01*
X61000Y-21929D01*
X61297Y-21632D01*
X61272Y-21539D01*
X61162Y-21500D01*
X61297Y-21445D01*
X61392Y-21350D01*
X61607Y-21350D01*
X61702Y-21444D01*
X61895Y-21524D01*
X62103Y-21525D01*
X62297Y-21445D01*
X62444Y-21297D01*
X62524Y-21104D01*
X62525Y-20896D01*
X62445Y-20703D01*
X62297Y-20555D01*
X62104Y-20475D01*
X61896Y-20474D01*
X61703Y-20554D01*
X61607Y-20650D01*
X61392Y-20650D01*
X61297Y-20555D01*
X61164Y-20499D01*
X61297Y-20445D01*
X61392Y-20350D01*
X62857Y-20350D01*
X62952Y-20444D01*
X63145Y-20524D01*
X63353Y-20525D01*
X63547Y-20445D01*
X63642Y-20350D01*
X64607Y-20350D01*
X64650Y-20392D01*
X64650Y-20607D01*
X64555Y-20702D01*
X64475Y-20895D01*
X64474Y-21103D01*
X64554Y-21297D01*
X64702Y-21444D01*
X64895Y-21524D01*
X65103Y-21525D01*
X65297Y-21445D01*
X65444Y-21297D01*
X65524Y-21104D01*
X65525Y-20896D01*
X65445Y-20703D01*
X65350Y-20607D01*
X65350Y-20392D01*
X65444Y-20297D01*
X65524Y-20104D01*
X65525Y-19896D01*
X65445Y-19703D01*
X65297Y-19555D01*
X65104Y-19475D01*
X64896Y-19474D01*
X64703Y-19554D01*
X64607Y-19650D01*
X63642Y-19650D01*
X63547Y-19555D01*
X63354Y-19475D01*
X63146Y-19474D01*
X62953Y-19554D01*
X62857Y-19650D01*
X61392Y-19650D01*
X61297Y-19555D01*
X61164Y-19499D01*
X61297Y-19445D01*
X61392Y-19350D01*
X61607Y-19350D01*
X61702Y-19444D01*
X61895Y-19524D01*
X62103Y-19525D01*
X62297Y-19445D01*
X62392Y-19350D01*
X63750Y-19350D01*
X63883Y-19323D01*
X63883Y-19323D01*
X63997Y-19247D01*
X64497Y-18747D01*
X64573Y-18633D01*
X64573Y-18633D01*
X64600Y-18500D01*
X64600Y-17750D01*
X64573Y-17616D01*
X64497Y-17502D01*
X64331Y-17336D01*
X64399Y-17349D01*
X64400Y-17350D01*
X64607Y-17350D01*
X64702Y-17444D01*
X64895Y-17524D01*
X65103Y-17525D01*
X65297Y-17445D01*
X65444Y-17297D01*
X65524Y-17104D01*
X65525Y-16896D01*
X65445Y-16703D01*
X65297Y-16555D01*
X65104Y-16475D01*
X64896Y-16474D01*
X64703Y-16554D01*
X64607Y-16650D01*
X64544Y-16650D01*
X62647Y-14752D01*
X62533Y-14676D01*
X62400Y-14650D01*
X44144Y-14650D01*
X44444Y-14350D01*
X56607Y-14350D01*
X56702Y-14444D01*
X56895Y-14524D01*
X57103Y-14525D01*
X57297Y-14445D01*
X57444Y-14297D01*
X57524Y-14104D01*
X57525Y-13896D01*
X57445Y-13703D01*
X57297Y-13555D01*
X57104Y-13475D01*
X56896Y-13474D01*
X56703Y-13554D01*
X56607Y-13650D01*
X44300Y-13650D01*
X44166Y-13676D01*
X44052Y-13752D01*
X43655Y-14150D01*
X42344Y-14150D01*
X42747Y-13747D01*
X42823Y-13633D01*
X42823Y-13633D01*
X42850Y-13500D01*
X42850Y-13427D01*
X42965Y-13311D01*
X43049Y-13109D01*
X43050Y-12891D01*
X42999Y-12769D01*
X67730Y-12769D01*
X67730Y-42230D01*
X67730Y-42230D01*
G37*
G54D19*
X67730Y-42230D02*
X67672Y-42230D01*
X67672Y-36513D01*
X67672Y-32576D01*
X67646Y-32442D01*
X67570Y-32329D01*
X67456Y-32253D01*
X67322Y-32226D01*
X67188Y-32253D01*
X67075Y-32329D01*
X66999Y-32442D01*
X66972Y-32576D01*
X66972Y-33116D01*
X66350Y-33116D01*
X66350Y-26500D01*
X66323Y-26366D01*
X66247Y-26252D01*
X66133Y-26176D01*
X66000Y-26150D01*
X65866Y-26176D01*
X65752Y-26252D01*
X65676Y-26366D01*
X65650Y-26500D01*
X65650Y-27694D01*
X64659Y-27694D01*
X64659Y-36805D01*
X65839Y-36805D01*
X65866Y-36823D01*
X65909Y-36831D01*
X65909Y-36883D01*
X67472Y-36883D01*
X67472Y-36826D01*
X67570Y-36761D01*
X67646Y-36647D01*
X67672Y-36513D01*
X67672Y-42230D01*
X64652Y-42230D01*
X64652Y-32801D01*
X64652Y-28521D01*
X61529Y-28521D01*
X61529Y-22075D01*
X61518Y-21867D01*
X61460Y-21727D01*
X61367Y-21702D01*
X61070Y-22000D01*
X61367Y-22297D01*
X61460Y-22272D01*
X61529Y-22075D01*
X61529Y-28521D01*
X61297Y-28521D01*
X61297Y-22367D01*
X61000Y-22070D01*
X60929Y-22141D01*
X60929Y-22000D01*
X60632Y-21702D01*
X60539Y-21727D01*
X60470Y-21924D01*
X60481Y-22132D01*
X60539Y-22272D01*
X60632Y-22297D01*
X60929Y-22000D01*
X60929Y-22141D01*
X60702Y-22367D01*
X60727Y-22460D01*
X60924Y-22529D01*
X61132Y-22518D01*
X61272Y-22460D01*
X61297Y-22367D01*
X61297Y-28521D01*
X59708Y-28521D01*
X59708Y-26222D01*
X59708Y-24659D01*
X58550Y-24659D01*
X58550Y-24249D01*
X58549Y-24150D01*
X58529Y-24101D01*
X58529Y-21075D01*
X58525Y-20987D01*
X58525Y-19896D01*
X58445Y-19703D01*
X58297Y-19555D01*
X58225Y-19525D01*
X58324Y-19525D01*
X58416Y-19487D01*
X58486Y-19416D01*
X58524Y-19324D01*
X58525Y-19225D01*
X58525Y-18675D01*
X58487Y-18583D01*
X58416Y-18513D01*
X58350Y-18485D01*
X58350Y-18392D01*
X58444Y-18297D01*
X58524Y-18104D01*
X58525Y-17896D01*
X58445Y-17703D01*
X58297Y-17555D01*
X58104Y-17475D01*
X57969Y-17474D01*
X57524Y-17029D01*
X57525Y-16896D01*
X57445Y-16703D01*
X57297Y-16555D01*
X57104Y-16475D01*
X56896Y-16474D01*
X56703Y-16554D01*
X56555Y-16702D01*
X56475Y-16895D01*
X56474Y-17103D01*
X56554Y-17297D01*
X56702Y-17444D01*
X56895Y-17524D01*
X57030Y-17525D01*
X57475Y-17970D01*
X57474Y-18103D01*
X57554Y-18297D01*
X57650Y-18392D01*
X57650Y-18485D01*
X57583Y-18512D01*
X57513Y-18583D01*
X57485Y-18650D01*
X57392Y-18650D01*
X57297Y-18555D01*
X57104Y-18475D01*
X56896Y-18474D01*
X56703Y-18554D01*
X56607Y-18650D01*
X55927Y-18650D01*
X55811Y-18534D01*
X55609Y-18450D01*
X55391Y-18449D01*
X55188Y-18533D01*
X55034Y-18688D01*
X54997Y-18776D01*
X54962Y-18691D01*
X54809Y-18538D01*
X54608Y-18454D01*
X54392Y-18454D01*
X54191Y-18537D01*
X54038Y-18690D01*
X54002Y-18776D01*
X53966Y-18688D01*
X53811Y-18534D01*
X53609Y-18450D01*
X53391Y-18449D01*
X53188Y-18533D01*
X53034Y-18688D01*
X52950Y-18890D01*
X52949Y-19108D01*
X53033Y-19311D01*
X53188Y-19465D01*
X53390Y-19549D01*
X53608Y-19550D01*
X53811Y-19466D01*
X53965Y-19311D01*
X54002Y-19223D01*
X54037Y-19308D01*
X54150Y-19421D01*
X54150Y-19572D01*
X54034Y-19688D01*
X53950Y-19890D01*
X53949Y-20108D01*
X54033Y-20311D01*
X54150Y-20427D01*
X54150Y-21107D01*
X54055Y-21202D01*
X53975Y-21395D01*
X53974Y-21603D01*
X54054Y-21797D01*
X54202Y-21944D01*
X54395Y-22024D01*
X54603Y-22025D01*
X54797Y-21945D01*
X54944Y-21797D01*
X55024Y-21604D01*
X55025Y-21396D01*
X54945Y-21203D01*
X54850Y-21107D01*
X54850Y-20427D01*
X54927Y-20350D01*
X56607Y-20350D01*
X56702Y-20444D01*
X56828Y-20497D01*
X56727Y-20539D01*
X56702Y-20632D01*
X57000Y-20929D01*
X57297Y-20632D01*
X57272Y-20539D01*
X57162Y-20500D01*
X57297Y-20445D01*
X57392Y-20350D01*
X57607Y-20350D01*
X57702Y-20444D01*
X57828Y-20497D01*
X57727Y-20539D01*
X57702Y-20632D01*
X58000Y-20929D01*
X58297Y-20632D01*
X58272Y-20539D01*
X58162Y-20500D01*
X58297Y-20445D01*
X58444Y-20297D01*
X58524Y-20104D01*
X58525Y-19896D01*
X58525Y-20987D01*
X58518Y-20867D01*
X58460Y-20727D01*
X58367Y-20702D01*
X58070Y-21000D01*
X58367Y-21297D01*
X58460Y-21272D01*
X58529Y-21075D01*
X58529Y-24101D01*
X58525Y-24090D01*
X58525Y-21896D01*
X58445Y-21703D01*
X58297Y-21555D01*
X58171Y-21502D01*
X58272Y-21460D01*
X58297Y-21367D01*
X58000Y-21070D01*
X57929Y-21141D01*
X57929Y-21000D01*
X57632Y-20702D01*
X57539Y-20727D01*
X57503Y-20830D01*
X57460Y-20727D01*
X57367Y-20702D01*
X57070Y-21000D01*
X57367Y-21297D01*
X57460Y-21272D01*
X57496Y-21169D01*
X57539Y-21272D01*
X57632Y-21297D01*
X57929Y-21000D01*
X57929Y-21141D01*
X57702Y-21367D01*
X57727Y-21460D01*
X57837Y-21499D01*
X57703Y-21554D01*
X57607Y-21650D01*
X57392Y-21650D01*
X57297Y-21555D01*
X57171Y-21502D01*
X57272Y-21460D01*
X57297Y-21367D01*
X57000Y-21070D01*
X56929Y-21141D01*
X56929Y-21000D01*
X56632Y-20702D01*
X56539Y-20727D01*
X56470Y-20924D01*
X56481Y-21132D01*
X56539Y-21272D01*
X56632Y-21297D01*
X56929Y-21000D01*
X56929Y-21141D01*
X56702Y-21367D01*
X56727Y-21460D01*
X56837Y-21499D01*
X56703Y-21554D01*
X56555Y-21702D01*
X56475Y-21895D01*
X56474Y-22030D01*
X55855Y-22650D01*
X53921Y-22650D01*
X53809Y-22538D01*
X53608Y-22454D01*
X53392Y-22454D01*
X53191Y-22537D01*
X53038Y-22690D01*
X52954Y-22891D01*
X52954Y-23107D01*
X53037Y-23308D01*
X53190Y-23461D01*
X53391Y-23545D01*
X53607Y-23545D01*
X53808Y-23462D01*
X53921Y-23350D01*
X56000Y-23350D01*
X56133Y-23323D01*
X56133Y-23323D01*
X56247Y-23247D01*
X56970Y-22524D01*
X57103Y-22525D01*
X57297Y-22445D01*
X57392Y-22350D01*
X57607Y-22350D01*
X57702Y-22444D01*
X57895Y-22524D01*
X58103Y-22525D01*
X58297Y-22445D01*
X58444Y-22297D01*
X58524Y-22104D01*
X58525Y-21896D01*
X58525Y-24090D01*
X58511Y-24058D01*
X58441Y-23987D01*
X58349Y-23949D01*
X58112Y-23950D01*
X58050Y-24012D01*
X58050Y-24450D01*
X58487Y-24450D01*
X58550Y-24387D01*
X58550Y-24249D01*
X58550Y-24659D01*
X58550Y-24659D01*
X58550Y-24612D01*
X58487Y-24550D01*
X58050Y-24550D01*
X58050Y-24557D01*
X57950Y-24557D01*
X57950Y-24550D01*
X57942Y-24550D01*
X57942Y-24450D01*
X57950Y-24450D01*
X57950Y-24012D01*
X57887Y-23950D01*
X57650Y-23949D01*
X57558Y-23987D01*
X57488Y-24058D01*
X57450Y-24150D01*
X57450Y-24172D01*
X57311Y-24034D01*
X57109Y-23950D01*
X56891Y-23949D01*
X56688Y-24033D01*
X56572Y-24150D01*
X54892Y-24150D01*
X54797Y-24055D01*
X54604Y-23975D01*
X54396Y-23974D01*
X54203Y-24054D01*
X54055Y-24202D01*
X53975Y-24395D01*
X53974Y-24603D01*
X54054Y-24797D01*
X54202Y-24944D01*
X54395Y-25024D01*
X54603Y-25025D01*
X54797Y-24945D01*
X54892Y-24850D01*
X56395Y-24850D01*
X56395Y-26222D01*
X57291Y-26222D01*
X57604Y-26222D01*
X59708Y-26222D01*
X59708Y-28521D01*
X53347Y-28521D01*
X53347Y-32801D01*
X64652Y-32801D01*
X64652Y-42230D01*
X63284Y-42230D01*
X63295Y-42222D01*
X63383Y-42222D01*
X63383Y-42077D01*
X63405Y-41970D01*
X63383Y-41863D01*
X63383Y-40659D01*
X63306Y-40659D01*
X63323Y-40633D01*
X63350Y-40500D01*
X63323Y-40366D01*
X63305Y-40339D01*
X63305Y-39159D01*
X54194Y-39159D01*
X54194Y-40150D01*
X53550Y-40150D01*
X53550Y-35891D01*
X53466Y-35688D01*
X53311Y-35534D01*
X53109Y-35450D01*
X52891Y-35449D01*
X52688Y-35533D01*
X52534Y-35688D01*
X52497Y-35776D01*
X52462Y-35691D01*
X52350Y-35578D01*
X52350Y-35427D01*
X52465Y-35311D01*
X52549Y-35109D01*
X52550Y-34891D01*
X52466Y-34688D01*
X52350Y-34572D01*
X52350Y-33892D01*
X52444Y-33797D01*
X52524Y-33604D01*
X52525Y-33396D01*
X52525Y-30396D01*
X52445Y-30203D01*
X52297Y-30055D01*
X52104Y-29975D01*
X51896Y-29974D01*
X51703Y-30054D01*
X51607Y-30150D01*
X49927Y-30150D01*
X49811Y-30034D01*
X49609Y-29950D01*
X49391Y-29949D01*
X49188Y-30033D01*
X49049Y-30172D01*
X49049Y-30150D01*
X49011Y-30058D01*
X48941Y-29987D01*
X48849Y-29949D01*
X48612Y-29950D01*
X48550Y-30012D01*
X48550Y-30450D01*
X48557Y-30450D01*
X48557Y-30550D01*
X48550Y-30550D01*
X48550Y-30987D01*
X48612Y-31050D01*
X48849Y-31050D01*
X48909Y-31025D01*
X48909Y-31638D01*
X48809Y-31538D01*
X48608Y-31454D01*
X48392Y-31454D01*
X48208Y-31530D01*
X48208Y-31050D01*
X48387Y-31050D01*
X48450Y-30987D01*
X48450Y-30550D01*
X48450Y-30450D01*
X48450Y-30012D01*
X48387Y-29950D01*
X48222Y-29949D01*
X48222Y-29708D01*
X48222Y-27708D01*
X48222Y-27291D01*
X48222Y-25291D01*
X47029Y-25291D01*
X47029Y-22075D01*
X47018Y-21867D01*
X46960Y-21727D01*
X46867Y-21702D01*
X46570Y-22000D01*
X46867Y-22297D01*
X46960Y-22272D01*
X47029Y-22075D01*
X47029Y-25291D01*
X46797Y-25291D01*
X46797Y-22367D01*
X46500Y-22070D01*
X46429Y-22141D01*
X46429Y-22000D01*
X46132Y-21702D01*
X46039Y-21727D01*
X45970Y-21924D01*
X45981Y-22132D01*
X46039Y-22272D01*
X46132Y-22297D01*
X46429Y-22000D01*
X46429Y-22141D01*
X46202Y-22367D01*
X46227Y-22460D01*
X46424Y-22529D01*
X46632Y-22518D01*
X46772Y-22460D01*
X46797Y-22367D01*
X46797Y-25291D01*
X46659Y-25291D01*
X46659Y-26470D01*
X46609Y-26450D01*
X46391Y-26449D01*
X46188Y-26533D01*
X46072Y-26650D01*
X45958Y-26650D01*
X45958Y-26222D01*
X45958Y-24659D01*
X44050Y-24659D01*
X44050Y-24249D01*
X44049Y-24150D01*
X44011Y-24058D01*
X43941Y-23987D01*
X43849Y-23949D01*
X43612Y-23950D01*
X43550Y-24012D01*
X43550Y-24450D01*
X43987Y-24450D01*
X44050Y-24387D01*
X44050Y-24249D01*
X44050Y-24659D01*
X44050Y-24659D01*
X44050Y-24612D01*
X43987Y-24550D01*
X43550Y-24550D01*
X43550Y-24659D01*
X43541Y-24659D01*
X43541Y-26222D01*
X45958Y-26222D01*
X45958Y-26650D01*
X44921Y-26650D01*
X44809Y-26538D01*
X44608Y-26454D01*
X44392Y-26454D01*
X44191Y-26537D01*
X44038Y-26690D01*
X44002Y-26775D01*
X43977Y-26714D01*
X43882Y-26688D01*
X43811Y-26758D01*
X43811Y-26617D01*
X43785Y-26522D01*
X43580Y-26449D01*
X43363Y-26460D01*
X43214Y-26522D01*
X43188Y-26617D01*
X43500Y-26929D01*
X43811Y-26617D01*
X43811Y-26758D01*
X43570Y-27000D01*
X43882Y-27311D01*
X43977Y-27285D01*
X44000Y-27219D01*
X44037Y-27308D01*
X44190Y-27461D01*
X44391Y-27545D01*
X44607Y-27545D01*
X44808Y-27462D01*
X44921Y-27350D01*
X46072Y-27350D01*
X46172Y-27450D01*
X46150Y-27450D01*
X46058Y-27488D01*
X45987Y-27558D01*
X45949Y-27650D01*
X45950Y-27887D01*
X46012Y-27950D01*
X46450Y-27950D01*
X46450Y-27942D01*
X46550Y-27942D01*
X46550Y-27950D01*
X46557Y-27950D01*
X46557Y-28050D01*
X46550Y-28050D01*
X46550Y-28487D01*
X46612Y-28550D01*
X46659Y-28550D01*
X46659Y-29708D01*
X48222Y-29708D01*
X48222Y-29949D01*
X48150Y-29949D01*
X48058Y-29987D01*
X47988Y-30058D01*
X47950Y-30150D01*
X47949Y-30249D01*
X47950Y-30387D01*
X48012Y-30450D01*
X48450Y-30450D01*
X48450Y-30550D01*
X48012Y-30550D01*
X47950Y-30612D01*
X47949Y-30659D01*
X46450Y-30659D01*
X46450Y-28487D01*
X46450Y-28050D01*
X46012Y-28050D01*
X45950Y-28112D01*
X45949Y-28349D01*
X45987Y-28441D01*
X46058Y-28511D01*
X46150Y-28549D01*
X46249Y-28550D01*
X46387Y-28550D01*
X46450Y-28487D01*
X46450Y-30659D01*
X45791Y-30659D01*
X45791Y-32222D01*
X48001Y-32222D01*
X48037Y-32308D01*
X48150Y-32421D01*
X48150Y-32607D01*
X48055Y-32702D01*
X47975Y-32895D01*
X47974Y-33103D01*
X48054Y-33297D01*
X48202Y-33444D01*
X48328Y-33497D01*
X48227Y-33539D01*
X48202Y-33632D01*
X48500Y-33929D01*
X48797Y-33632D01*
X48772Y-33539D01*
X48662Y-33500D01*
X48797Y-33445D01*
X48892Y-33350D01*
X49107Y-33350D01*
X49202Y-33444D01*
X49328Y-33497D01*
X49227Y-33539D01*
X49202Y-33632D01*
X49500Y-33929D01*
X49797Y-33632D01*
X49772Y-33539D01*
X49662Y-33500D01*
X49797Y-33445D01*
X49944Y-33297D01*
X50024Y-33104D01*
X50025Y-32896D01*
X49945Y-32703D01*
X49797Y-32555D01*
X49604Y-32475D01*
X49396Y-32474D01*
X49203Y-32554D01*
X49107Y-32650D01*
X48892Y-32650D01*
X48850Y-32607D01*
X48850Y-32421D01*
X48961Y-32309D01*
X48998Y-32222D01*
X50090Y-32222D01*
X50090Y-30850D01*
X51607Y-30850D01*
X51702Y-30944D01*
X51895Y-31024D01*
X52103Y-31025D01*
X52297Y-30945D01*
X52444Y-30797D01*
X52524Y-30604D01*
X52525Y-30396D01*
X52525Y-33396D01*
X52445Y-33203D01*
X52297Y-33055D01*
X52104Y-32975D01*
X51896Y-32974D01*
X51703Y-33054D01*
X51555Y-33202D01*
X51475Y-33395D01*
X51474Y-33603D01*
X51554Y-33797D01*
X51650Y-33892D01*
X51650Y-34572D01*
X51572Y-34650D01*
X50029Y-34650D01*
X50029Y-34075D01*
X50018Y-33867D01*
X49960Y-33727D01*
X49867Y-33702D01*
X49570Y-34000D01*
X49867Y-34297D01*
X49960Y-34272D01*
X50029Y-34075D01*
X50029Y-34650D01*
X49892Y-34650D01*
X49797Y-34555D01*
X49671Y-34502D01*
X49772Y-34460D01*
X49797Y-34367D01*
X49500Y-34070D01*
X49429Y-34141D01*
X49429Y-34000D01*
X49132Y-33702D01*
X49039Y-33727D01*
X49003Y-33830D01*
X48960Y-33727D01*
X48867Y-33702D01*
X48570Y-34000D01*
X48867Y-34297D01*
X48960Y-34272D01*
X48996Y-34169D01*
X49039Y-34272D01*
X49132Y-34297D01*
X49429Y-34000D01*
X49429Y-34141D01*
X49202Y-34367D01*
X49227Y-34460D01*
X49337Y-34499D01*
X49203Y-34554D01*
X49107Y-34650D01*
X48892Y-34650D01*
X48797Y-34555D01*
X48671Y-34502D01*
X48772Y-34460D01*
X48797Y-34367D01*
X48500Y-34070D01*
X48429Y-34141D01*
X48429Y-34000D01*
X48132Y-33702D01*
X48039Y-33727D01*
X47970Y-33924D01*
X47981Y-34132D01*
X48039Y-34272D01*
X48132Y-34297D01*
X48429Y-34000D01*
X48429Y-34141D01*
X48202Y-34367D01*
X48227Y-34460D01*
X48337Y-34499D01*
X48203Y-34554D01*
X48055Y-34702D01*
X47975Y-34895D01*
X47974Y-35103D01*
X48054Y-35297D01*
X48202Y-35444D01*
X48274Y-35474D01*
X48175Y-35474D01*
X48083Y-35512D01*
X48013Y-35583D01*
X47975Y-35675D01*
X47974Y-35774D01*
X47974Y-36324D01*
X48012Y-36416D01*
X48083Y-36486D01*
X48150Y-36514D01*
X48150Y-36607D01*
X48055Y-36702D01*
X47975Y-36895D01*
X47974Y-37103D01*
X48054Y-37297D01*
X48150Y-37392D01*
X48150Y-39107D01*
X48055Y-39202D01*
X47975Y-39395D01*
X47974Y-39603D01*
X48054Y-39797D01*
X48202Y-39944D01*
X48395Y-40024D01*
X48603Y-40025D01*
X48797Y-39945D01*
X48944Y-39797D01*
X49024Y-39604D01*
X49025Y-39396D01*
X48945Y-39203D01*
X48850Y-39107D01*
X48850Y-37392D01*
X48944Y-37297D01*
X49024Y-37104D01*
X49025Y-36896D01*
X48945Y-36703D01*
X48850Y-36607D01*
X48850Y-36514D01*
X48916Y-36487D01*
X48986Y-36416D01*
X49014Y-36350D01*
X49107Y-36350D01*
X49202Y-36444D01*
X49395Y-36524D01*
X49603Y-36525D01*
X49797Y-36445D01*
X49892Y-36350D01*
X50572Y-36350D01*
X50688Y-36465D01*
X50890Y-36549D01*
X51108Y-36550D01*
X51311Y-36466D01*
X51465Y-36311D01*
X51502Y-36223D01*
X51537Y-36308D01*
X51690Y-36461D01*
X51891Y-36545D01*
X52107Y-36545D01*
X52308Y-36462D01*
X52461Y-36309D01*
X52497Y-36223D01*
X52533Y-36311D01*
X52688Y-36465D01*
X52890Y-36549D01*
X53108Y-36550D01*
X53311Y-36466D01*
X53465Y-36311D01*
X53549Y-36109D01*
X53550Y-35891D01*
X53550Y-40150D01*
X53000Y-40150D01*
X52866Y-40176D01*
X52752Y-40252D01*
X52676Y-40366D01*
X52650Y-40500D01*
X52676Y-40633D01*
X52752Y-40747D01*
X52866Y-40823D01*
X53000Y-40850D01*
X59616Y-40850D01*
X59616Y-41620D01*
X59118Y-41620D01*
X58984Y-41647D01*
X58870Y-41722D01*
X58794Y-41836D01*
X58768Y-41970D01*
X58794Y-42104D01*
X58870Y-42217D01*
X58889Y-42230D01*
X14519Y-42230D01*
X14519Y-13250D01*
X14519Y-13000D01*
X14519Y-12769D01*
X27222Y-12769D01*
X27188Y-12783D01*
X27034Y-12938D01*
X26950Y-13140D01*
X26950Y-13150D01*
X26600Y-13150D01*
X17800Y-13150D01*
X17666Y-13176D01*
X17552Y-13252D01*
X17552Y-13252D01*
X17552Y-13252D01*
X15552Y-15252D01*
X15476Y-15366D01*
X15450Y-15500D01*
X15450Y-27670D01*
X15476Y-27803D01*
X15552Y-27917D01*
X17700Y-30065D01*
X17699Y-30228D01*
X17783Y-30431D01*
X17938Y-30585D01*
X18116Y-30660D01*
X17938Y-30733D01*
X17784Y-30888D01*
X17700Y-31090D01*
X17699Y-31308D01*
X17783Y-31511D01*
X17938Y-31665D01*
X18116Y-31740D01*
X17938Y-31813D01*
X17784Y-31968D01*
X17700Y-32170D01*
X17699Y-32388D01*
X17783Y-32591D01*
X17938Y-32745D01*
X18140Y-32829D01*
X18358Y-32830D01*
X18141Y-32829D01*
X17938Y-32913D01*
X17822Y-33030D01*
X16870Y-33030D01*
X16736Y-33056D01*
X16622Y-33132D01*
X15752Y-34002D01*
X15676Y-34116D01*
X15650Y-34250D01*
X15650Y-40000D01*
X15676Y-40133D01*
X15752Y-40247D01*
X17252Y-41747D01*
X17252Y-41747D01*
X17366Y-41823D01*
X17500Y-41850D01*
X33107Y-41850D01*
X33202Y-41944D01*
X33395Y-42024D01*
X33603Y-42025D01*
X33797Y-41945D01*
X33944Y-41797D01*
X34024Y-41604D01*
X34025Y-41396D01*
X33945Y-41203D01*
X33842Y-41100D01*
X42000Y-41100D01*
X42019Y-41096D01*
X42040Y-41097D01*
X42086Y-41082D01*
X42133Y-41073D01*
X42150Y-41062D01*
X42170Y-41055D01*
X44336Y-39850D01*
X45107Y-39850D01*
X45202Y-39944D01*
X45395Y-40024D01*
X45603Y-40025D01*
X45797Y-39945D01*
X45944Y-39797D01*
X46024Y-39604D01*
X46025Y-39396D01*
X45945Y-39203D01*
X45797Y-39055D01*
X45604Y-38975D01*
X45396Y-38974D01*
X45203Y-39054D01*
X45107Y-39150D01*
X45029Y-39150D01*
X45029Y-38075D01*
X45018Y-37867D01*
X44960Y-37727D01*
X44867Y-37702D01*
X44797Y-37773D01*
X44797Y-37632D01*
X44772Y-37539D01*
X44575Y-37470D01*
X44367Y-37481D01*
X44227Y-37539D01*
X44202Y-37632D01*
X44500Y-37929D01*
X44797Y-37632D01*
X44797Y-37773D01*
X44570Y-38000D01*
X44867Y-38297D01*
X44960Y-38272D01*
X45029Y-38075D01*
X45029Y-39150D01*
X44797Y-39150D01*
X44797Y-38367D01*
X44500Y-38070D01*
X44429Y-38141D01*
X44429Y-38000D01*
X44132Y-37702D01*
X44039Y-37727D01*
X43970Y-37924D01*
X43981Y-38132D01*
X44039Y-38272D01*
X44132Y-38297D01*
X44429Y-38000D01*
X44429Y-38141D01*
X44202Y-38367D01*
X44227Y-38460D01*
X44424Y-38529D01*
X44632Y-38518D01*
X44772Y-38460D01*
X44797Y-38367D01*
X44797Y-39150D01*
X44250Y-39150D01*
X44236Y-39152D01*
X44208Y-39150D01*
X44146Y-39170D01*
X44116Y-39176D01*
X44105Y-39183D01*
X44078Y-39192D01*
X41909Y-40400D01*
X19250Y-40400D01*
X19250Y-37551D01*
X19098Y-37184D01*
X18817Y-36902D01*
X18449Y-36750D01*
X18051Y-36749D01*
X17684Y-36901D01*
X17402Y-37182D01*
X17250Y-37550D01*
X17249Y-37948D01*
X17401Y-38315D01*
X17682Y-38597D01*
X18050Y-38749D01*
X18448Y-38750D01*
X18815Y-38598D01*
X19097Y-38317D01*
X19249Y-37949D01*
X19250Y-37551D01*
X19250Y-40400D01*
X17894Y-40400D01*
X17100Y-39605D01*
X17100Y-34850D01*
X17947Y-34850D01*
X18140Y-34929D01*
X18358Y-34930D01*
X18561Y-34846D01*
X18699Y-34707D01*
X18699Y-34749D01*
X18699Y-35349D01*
X18737Y-35441D01*
X18808Y-35511D01*
X18900Y-35549D01*
X18999Y-35550D01*
X19599Y-35550D01*
X19691Y-35512D01*
X19761Y-35441D01*
X19799Y-35350D01*
X20257Y-35350D01*
X25301Y-40255D01*
X25416Y-40329D01*
X25550Y-40354D01*
X25570Y-40350D01*
X40000Y-40350D01*
X40051Y-40339D01*
X40104Y-40334D01*
X40118Y-40326D01*
X40133Y-40323D01*
X40177Y-40294D01*
X40224Y-40268D01*
X41724Y-39019D01*
X41734Y-39006D01*
X41747Y-38997D01*
X41775Y-38955D01*
X41810Y-38912D01*
X41814Y-38896D01*
X41823Y-38883D01*
X41833Y-38833D01*
X41848Y-38781D01*
X41846Y-38765D01*
X41850Y-38750D01*
X41850Y-38392D01*
X41944Y-38297D01*
X42024Y-38104D01*
X42025Y-37896D01*
X41945Y-37703D01*
X41797Y-37555D01*
X41604Y-37475D01*
X41396Y-37474D01*
X41203Y-37554D01*
X41055Y-37702D01*
X40975Y-37895D01*
X40974Y-38103D01*
X41054Y-38297D01*
X41150Y-38392D01*
X41150Y-38586D01*
X39873Y-39650D01*
X25683Y-39650D01*
X20644Y-34749D01*
X20588Y-34713D01*
X20533Y-34676D01*
X20531Y-34676D01*
X20529Y-34674D01*
X20464Y-34662D01*
X20400Y-34650D01*
X19799Y-34650D01*
X19762Y-34558D01*
X19691Y-34488D01*
X19599Y-34450D01*
X19500Y-34449D01*
X19359Y-34449D01*
X19561Y-34366D01*
X19677Y-34250D01*
X20456Y-34250D01*
X25003Y-38749D01*
X25116Y-38824D01*
X25251Y-38850D01*
X25254Y-38850D01*
X26107Y-38850D01*
X26202Y-38944D01*
X26395Y-39024D01*
X26603Y-39025D01*
X26797Y-38945D01*
X26944Y-38797D01*
X27024Y-38604D01*
X27025Y-38396D01*
X26945Y-38203D01*
X26797Y-38055D01*
X26604Y-37975D01*
X26396Y-37974D01*
X26203Y-38054D01*
X26107Y-38150D01*
X25811Y-38150D01*
X25811Y-27632D01*
X25500Y-27320D01*
X25429Y-27391D01*
X25429Y-27250D01*
X25117Y-26938D01*
X25022Y-26964D01*
X24949Y-27169D01*
X24960Y-27386D01*
X25022Y-27535D01*
X25117Y-27561D01*
X25429Y-27250D01*
X25429Y-27391D01*
X25188Y-27632D01*
X25214Y-27727D01*
X25419Y-27800D01*
X25636Y-27789D01*
X25785Y-27727D01*
X25811Y-27632D01*
X25811Y-38150D01*
X25392Y-38150D01*
X20846Y-33651D01*
X20789Y-33614D01*
X20733Y-33576D01*
X20733Y-33576D01*
X20732Y-33575D01*
X20666Y-33563D01*
X20600Y-33550D01*
X19677Y-33550D01*
X19561Y-33434D01*
X19419Y-33374D01*
X19561Y-33316D01*
X19715Y-33161D01*
X19799Y-32959D01*
X19800Y-32741D01*
X19716Y-32538D01*
X19561Y-32384D01*
X19359Y-32300D01*
X19358Y-32300D01*
X19561Y-32216D01*
X19715Y-32061D01*
X19799Y-31859D01*
X19800Y-31641D01*
X19716Y-31438D01*
X19561Y-31284D01*
X19359Y-31200D01*
X19358Y-31200D01*
X19561Y-31116D01*
X19677Y-31000D01*
X21925Y-31000D01*
X21930Y-30998D01*
X21936Y-30999D01*
X21997Y-30985D01*
X22058Y-30973D01*
X22063Y-30970D01*
X22069Y-30968D01*
X22120Y-30932D01*
X22172Y-30897D01*
X22175Y-30892D01*
X22180Y-30889D01*
X23256Y-29739D01*
X23302Y-29665D01*
X23323Y-29633D01*
X23324Y-29630D01*
X23328Y-29623D01*
X23341Y-29540D01*
X23350Y-29500D01*
X23350Y-29491D01*
X23350Y-29488D01*
X23350Y-29487D01*
X23350Y-18644D01*
X25497Y-16497D01*
X25644Y-16350D01*
X27000Y-16350D01*
X31250Y-16350D01*
X34355Y-16350D01*
X34975Y-16970D01*
X34974Y-17103D01*
X35054Y-17297D01*
X35202Y-17444D01*
X35395Y-17524D01*
X35603Y-17525D01*
X35797Y-17445D01*
X35944Y-17297D01*
X36024Y-17104D01*
X36025Y-16896D01*
X35945Y-16703D01*
X35797Y-16555D01*
X35604Y-16475D01*
X35469Y-16474D01*
X34844Y-15850D01*
X38655Y-15850D01*
X36752Y-17752D01*
X36676Y-17866D01*
X36650Y-18000D01*
X36650Y-18650D01*
X32892Y-18650D01*
X32797Y-18555D01*
X32604Y-18475D01*
X32396Y-18474D01*
X32203Y-18554D01*
X32107Y-18650D01*
X31892Y-18650D01*
X31797Y-18555D01*
X31664Y-18499D01*
X31797Y-18445D01*
X31892Y-18350D01*
X32500Y-18350D01*
X33357Y-18350D01*
X33452Y-18444D01*
X33645Y-18524D01*
X33853Y-18525D01*
X34047Y-18445D01*
X34194Y-18297D01*
X34274Y-18104D01*
X34275Y-17896D01*
X34195Y-17703D01*
X34047Y-17555D01*
X33854Y-17475D01*
X33646Y-17474D01*
X33453Y-17554D01*
X33357Y-17650D01*
X33029Y-17650D01*
X33029Y-17075D01*
X33018Y-16867D01*
X32960Y-16727D01*
X32867Y-16702D01*
X32797Y-16773D01*
X32797Y-16632D01*
X32772Y-16539D01*
X32575Y-16470D01*
X32367Y-16481D01*
X32227Y-16539D01*
X32202Y-16632D01*
X32500Y-16929D01*
X32797Y-16632D01*
X32797Y-16773D01*
X32570Y-17000D01*
X32867Y-17297D01*
X32960Y-17272D01*
X33029Y-17075D01*
X33029Y-17650D01*
X32797Y-17650D01*
X32797Y-17367D01*
X32500Y-17070D01*
X32429Y-17141D01*
X32429Y-17000D01*
X32132Y-16702D01*
X32039Y-16727D01*
X31970Y-16924D01*
X31981Y-17132D01*
X32039Y-17272D01*
X32132Y-17297D01*
X32429Y-17000D01*
X32429Y-17141D01*
X32202Y-17367D01*
X32227Y-17460D01*
X32424Y-17529D01*
X32632Y-17518D01*
X32772Y-17460D01*
X32797Y-17367D01*
X32797Y-17650D01*
X32500Y-17650D01*
X31892Y-17650D01*
X31797Y-17555D01*
X31604Y-17475D01*
X31396Y-17474D01*
X31203Y-17554D01*
X31055Y-17702D01*
X31051Y-17711D01*
X30305Y-18208D01*
X30281Y-18233D01*
X30252Y-18252D01*
X30233Y-18281D01*
X30209Y-18305D01*
X30195Y-18337D01*
X30176Y-18366D01*
X30169Y-18399D01*
X30156Y-18431D01*
X30156Y-18466D01*
X30150Y-18500D01*
X30150Y-20000D01*
X30176Y-20133D01*
X30252Y-20247D01*
X30975Y-20970D01*
X30974Y-21103D01*
X31054Y-21297D01*
X31202Y-21444D01*
X31328Y-21497D01*
X31227Y-21539D01*
X31202Y-21632D01*
X31500Y-21929D01*
X31797Y-21632D01*
X31772Y-21539D01*
X31662Y-21500D01*
X31797Y-21445D01*
X31892Y-21350D01*
X32107Y-21350D01*
X32202Y-21444D01*
X32395Y-21524D01*
X32603Y-21525D01*
X32797Y-21445D01*
X32944Y-21297D01*
X33024Y-21104D01*
X33025Y-20896D01*
X32945Y-20703D01*
X32797Y-20555D01*
X32604Y-20475D01*
X32396Y-20474D01*
X32203Y-20554D01*
X32107Y-20650D01*
X31892Y-20650D01*
X31797Y-20555D01*
X31664Y-20499D01*
X31797Y-20445D01*
X31892Y-20350D01*
X33357Y-20350D01*
X33452Y-20444D01*
X33645Y-20524D01*
X33853Y-20525D01*
X34047Y-20445D01*
X34142Y-20350D01*
X35107Y-20350D01*
X35150Y-20392D01*
X35150Y-20607D01*
X35055Y-20702D01*
X34975Y-20895D01*
X34974Y-21103D01*
X35054Y-21297D01*
X35202Y-21444D01*
X35395Y-21524D01*
X35603Y-21525D01*
X35797Y-21445D01*
X35944Y-21297D01*
X36024Y-21104D01*
X36025Y-20896D01*
X35945Y-20703D01*
X35850Y-20607D01*
X35850Y-20392D01*
X35944Y-20297D01*
X36024Y-20104D01*
X36025Y-19896D01*
X35945Y-19703D01*
X35797Y-19555D01*
X35604Y-19475D01*
X35396Y-19474D01*
X35203Y-19554D01*
X35107Y-19650D01*
X34142Y-19650D01*
X34047Y-19555D01*
X33854Y-19475D01*
X33646Y-19474D01*
X33453Y-19554D01*
X33357Y-19650D01*
X31892Y-19650D01*
X31797Y-19555D01*
X31664Y-19499D01*
X31797Y-19445D01*
X31892Y-19350D01*
X32107Y-19350D01*
X32202Y-19444D01*
X32395Y-19524D01*
X32603Y-19525D01*
X32797Y-19445D01*
X32892Y-19350D01*
X36650Y-19350D01*
X36650Y-24000D01*
X36676Y-24133D01*
X36752Y-24247D01*
X38002Y-25497D01*
X38116Y-25573D01*
X38116Y-25573D01*
X38149Y-25579D01*
X38038Y-25690D01*
X37954Y-25891D01*
X37954Y-26107D01*
X38037Y-26308D01*
X38150Y-26421D01*
X38150Y-27000D01*
X38150Y-30224D01*
X38146Y-30224D01*
X37953Y-30304D01*
X37805Y-30452D01*
X37775Y-30524D01*
X37775Y-30524D01*
X37774Y-30425D01*
X37736Y-30333D01*
X37666Y-30262D01*
X37574Y-30224D01*
X37362Y-30225D01*
X37300Y-30287D01*
X37300Y-30700D01*
X37307Y-30700D01*
X37307Y-30800D01*
X37300Y-30800D01*
X37300Y-31212D01*
X37362Y-31275D01*
X37574Y-31275D01*
X37666Y-31237D01*
X37736Y-31166D01*
X37774Y-31074D01*
X37775Y-30975D01*
X37775Y-30975D01*
X37804Y-31047D01*
X37952Y-31194D01*
X38145Y-31274D01*
X38150Y-31274D01*
X38150Y-31578D01*
X38038Y-31690D01*
X37954Y-31891D01*
X37954Y-32050D01*
X37855Y-32150D01*
X37200Y-32150D01*
X37200Y-31212D01*
X37200Y-30800D01*
X37200Y-30700D01*
X37200Y-30287D01*
X37137Y-30225D01*
X37050Y-30224D01*
X37050Y-29580D01*
X37039Y-29363D01*
X36977Y-29214D01*
X36882Y-29188D01*
X36811Y-29258D01*
X36811Y-29117D01*
X36785Y-29022D01*
X36580Y-28949D01*
X36363Y-28960D01*
X36214Y-29022D01*
X36188Y-29117D01*
X36500Y-29429D01*
X36811Y-29117D01*
X36811Y-29258D01*
X36570Y-29500D01*
X36882Y-29811D01*
X36977Y-29785D01*
X37050Y-29580D01*
X37050Y-30224D01*
X36925Y-30224D01*
X36833Y-30262D01*
X36811Y-30284D01*
X36811Y-29882D01*
X36500Y-29570D01*
X36429Y-29641D01*
X36429Y-29500D01*
X36117Y-29188D01*
X36022Y-29214D01*
X35949Y-29419D01*
X35960Y-29636D01*
X36022Y-29785D01*
X36117Y-29811D01*
X36429Y-29500D01*
X36429Y-29641D01*
X36188Y-29882D01*
X36214Y-29977D01*
X36419Y-30050D01*
X36636Y-30039D01*
X36785Y-29977D01*
X36811Y-29882D01*
X36811Y-30284D01*
X36763Y-30333D01*
X36725Y-30425D01*
X36724Y-30524D01*
X36725Y-30637D01*
X36787Y-30700D01*
X37200Y-30700D01*
X37200Y-30800D01*
X36787Y-30800D01*
X36725Y-30862D01*
X36724Y-30975D01*
X36725Y-31074D01*
X36763Y-31166D01*
X36833Y-31237D01*
X36925Y-31275D01*
X37137Y-31275D01*
X37200Y-31212D01*
X37200Y-32150D01*
X36275Y-32150D01*
X36275Y-30396D01*
X36195Y-30203D01*
X36047Y-30055D01*
X35854Y-29975D01*
X35646Y-29974D01*
X35453Y-30054D01*
X35357Y-30150D01*
X34927Y-30150D01*
X34811Y-30034D01*
X34609Y-29950D01*
X34391Y-29949D01*
X34188Y-30033D01*
X34049Y-30172D01*
X34049Y-30150D01*
X34011Y-30058D01*
X33941Y-29987D01*
X33849Y-29949D01*
X33612Y-29950D01*
X33550Y-30012D01*
X33550Y-30450D01*
X33557Y-30450D01*
X33557Y-30550D01*
X33550Y-30550D01*
X33550Y-30557D01*
X33450Y-30557D01*
X33450Y-30550D01*
X33450Y-30450D01*
X33450Y-30012D01*
X33387Y-29950D01*
X33150Y-29949D01*
X33058Y-29987D01*
X32988Y-30058D01*
X32950Y-30150D01*
X32949Y-30249D01*
X32950Y-30387D01*
X33012Y-30450D01*
X33450Y-30450D01*
X33450Y-30550D01*
X33012Y-30550D01*
X32950Y-30612D01*
X32949Y-30659D01*
X32029Y-30659D01*
X32029Y-22075D01*
X32018Y-21867D01*
X31960Y-21727D01*
X31867Y-21702D01*
X31570Y-22000D01*
X31867Y-22297D01*
X31960Y-22272D01*
X32029Y-22075D01*
X32029Y-30659D01*
X31797Y-30659D01*
X31797Y-22367D01*
X31500Y-22070D01*
X31429Y-22141D01*
X31429Y-22000D01*
X31132Y-21702D01*
X31039Y-21727D01*
X30970Y-21924D01*
X30981Y-22132D01*
X31039Y-22272D01*
X31132Y-22297D01*
X31429Y-22000D01*
X31429Y-22141D01*
X31202Y-22367D01*
X31227Y-22460D01*
X31424Y-22529D01*
X31632Y-22518D01*
X31772Y-22460D01*
X31797Y-22367D01*
X31797Y-30659D01*
X31791Y-30659D01*
X31791Y-32222D01*
X33937Y-32222D01*
X34208Y-32222D01*
X35062Y-32222D01*
X35062Y-30850D01*
X35357Y-30850D01*
X35452Y-30944D01*
X35645Y-31024D01*
X35853Y-31025D01*
X36047Y-30945D01*
X36194Y-30797D01*
X36274Y-30604D01*
X36275Y-30396D01*
X36275Y-32150D01*
X35500Y-32150D01*
X35366Y-32176D01*
X35252Y-32252D01*
X34529Y-32975D01*
X34396Y-32974D01*
X34203Y-33054D01*
X34107Y-33150D01*
X33892Y-33150D01*
X33797Y-33055D01*
X33604Y-32975D01*
X33396Y-32974D01*
X33203Y-33054D01*
X33055Y-33202D01*
X32975Y-33395D01*
X32974Y-33603D01*
X33054Y-33797D01*
X33202Y-33944D01*
X33328Y-33997D01*
X33227Y-34039D01*
X33202Y-34132D01*
X33500Y-34429D01*
X33797Y-34132D01*
X33772Y-34039D01*
X33662Y-34000D01*
X33797Y-33945D01*
X33892Y-33850D01*
X34107Y-33850D01*
X34202Y-33944D01*
X34328Y-33997D01*
X34227Y-34039D01*
X34202Y-34132D01*
X34500Y-34429D01*
X34797Y-34132D01*
X34772Y-34039D01*
X34662Y-34000D01*
X34797Y-33945D01*
X34944Y-33797D01*
X35024Y-33604D01*
X35025Y-33469D01*
X35644Y-32850D01*
X38000Y-32850D01*
X38133Y-32823D01*
X38133Y-32823D01*
X38247Y-32747D01*
X38449Y-32545D01*
X38607Y-32545D01*
X38808Y-32462D01*
X38961Y-32309D01*
X39045Y-32108D01*
X39045Y-31892D01*
X38962Y-31691D01*
X38850Y-31578D01*
X38850Y-31000D01*
X38823Y-30866D01*
X38774Y-30793D01*
X38775Y-30706D01*
X38823Y-30633D01*
X38850Y-30500D01*
X38850Y-27000D01*
X38850Y-26421D01*
X38961Y-26309D01*
X39045Y-26108D01*
X39045Y-25892D01*
X38973Y-25718D01*
X39150Y-25894D01*
X39150Y-26578D01*
X39038Y-26690D01*
X38954Y-26891D01*
X38954Y-27107D01*
X39037Y-27308D01*
X39150Y-27421D01*
X39150Y-30235D01*
X39083Y-30262D01*
X39013Y-30333D01*
X38975Y-30425D01*
X38974Y-30524D01*
X38974Y-31074D01*
X39012Y-31166D01*
X39083Y-31236D01*
X39150Y-31264D01*
X39150Y-32855D01*
X38752Y-33252D01*
X38676Y-33366D01*
X38650Y-33500D01*
X38650Y-36000D01*
X38650Y-37355D01*
X37105Y-38900D01*
X33842Y-38900D01*
X33944Y-38797D01*
X34024Y-38604D01*
X34025Y-38396D01*
X33945Y-38203D01*
X33850Y-38107D01*
X33850Y-37892D01*
X33944Y-37797D01*
X34024Y-37604D01*
X34025Y-37396D01*
X33945Y-37203D01*
X33850Y-37107D01*
X33850Y-37014D01*
X33916Y-36987D01*
X33986Y-36916D01*
X34014Y-36850D01*
X34107Y-36850D01*
X34202Y-36944D01*
X34395Y-37024D01*
X34603Y-37025D01*
X34797Y-36945D01*
X34892Y-36850D01*
X35572Y-36850D01*
X35688Y-36965D01*
X35890Y-37049D01*
X36108Y-37050D01*
X36311Y-36966D01*
X36465Y-36811D01*
X36502Y-36723D01*
X36537Y-36808D01*
X36690Y-36961D01*
X36891Y-37045D01*
X37107Y-37045D01*
X37308Y-36962D01*
X37461Y-36809D01*
X37497Y-36723D01*
X37533Y-36811D01*
X37688Y-36965D01*
X37890Y-37049D01*
X38108Y-37050D01*
X38311Y-36966D01*
X38465Y-36811D01*
X38549Y-36609D01*
X38550Y-36391D01*
X38466Y-36188D01*
X38311Y-36034D01*
X38109Y-35950D01*
X37891Y-35949D01*
X37688Y-36033D01*
X37534Y-36188D01*
X37497Y-36276D01*
X37462Y-36191D01*
X37350Y-36078D01*
X37350Y-35927D01*
X37465Y-35811D01*
X37549Y-35609D01*
X37550Y-35391D01*
X37466Y-35188D01*
X37311Y-35034D01*
X37109Y-34950D01*
X37068Y-34950D01*
X36256Y-33649D01*
X36274Y-33604D01*
X36275Y-33396D01*
X36195Y-33203D01*
X36047Y-33055D01*
X35854Y-32975D01*
X35646Y-32974D01*
X35453Y-33054D01*
X35305Y-33202D01*
X35225Y-33395D01*
X35224Y-33603D01*
X35304Y-33797D01*
X35452Y-33944D01*
X35645Y-34024D01*
X35665Y-34024D01*
X36368Y-35150D01*
X35029Y-35150D01*
X35029Y-34575D01*
X35018Y-34367D01*
X34960Y-34227D01*
X34867Y-34202D01*
X34570Y-34500D01*
X34867Y-34797D01*
X34960Y-34772D01*
X35029Y-34575D01*
X35029Y-35150D01*
X34892Y-35150D01*
X34797Y-35055D01*
X34671Y-35002D01*
X34772Y-34960D01*
X34797Y-34867D01*
X34500Y-34570D01*
X34429Y-34641D01*
X34429Y-34500D01*
X34132Y-34202D01*
X34039Y-34227D01*
X34003Y-34330D01*
X33960Y-34227D01*
X33867Y-34202D01*
X33570Y-34500D01*
X33867Y-34797D01*
X33960Y-34772D01*
X33996Y-34669D01*
X34039Y-34772D01*
X34132Y-34797D01*
X34429Y-34500D01*
X34429Y-34641D01*
X34202Y-34867D01*
X34227Y-34960D01*
X34337Y-34999D01*
X34203Y-35054D01*
X34107Y-35150D01*
X33892Y-35150D01*
X33797Y-35055D01*
X33671Y-35002D01*
X33772Y-34960D01*
X33797Y-34867D01*
X33500Y-34570D01*
X33429Y-34641D01*
X33429Y-34500D01*
X33132Y-34202D01*
X33039Y-34227D01*
X32970Y-34424D01*
X32981Y-34632D01*
X33039Y-34772D01*
X33132Y-34797D01*
X33429Y-34500D01*
X33429Y-34641D01*
X33202Y-34867D01*
X33227Y-34960D01*
X33337Y-34999D01*
X33203Y-35054D01*
X33055Y-35202D01*
X32975Y-35395D01*
X32974Y-35603D01*
X33054Y-35797D01*
X33202Y-35944D01*
X33274Y-35974D01*
X33175Y-35974D01*
X33083Y-36012D01*
X33013Y-36083D01*
X32975Y-36175D01*
X32974Y-36274D01*
X32974Y-36824D01*
X33012Y-36916D01*
X33083Y-36986D01*
X33150Y-37014D01*
X33150Y-37107D01*
X33055Y-37202D01*
X32975Y-37395D01*
X32974Y-37603D01*
X33054Y-37797D01*
X33150Y-37892D01*
X33150Y-38107D01*
X33055Y-38202D01*
X32975Y-38395D01*
X32974Y-38603D01*
X33054Y-38797D01*
X33157Y-38900D01*
X30029Y-38900D01*
X30029Y-38575D01*
X30018Y-38367D01*
X29960Y-38227D01*
X29867Y-38202D01*
X29797Y-38273D01*
X29797Y-38132D01*
X29772Y-38039D01*
X29575Y-37970D01*
X29367Y-37981D01*
X29227Y-38039D01*
X29202Y-38132D01*
X29500Y-38429D01*
X29797Y-38132D01*
X29797Y-38273D01*
X29570Y-38500D01*
X29867Y-38797D01*
X29960Y-38772D01*
X30029Y-38575D01*
X30029Y-38900D01*
X29788Y-38900D01*
X29797Y-38867D01*
X29500Y-38570D01*
X29429Y-38641D01*
X29429Y-38500D01*
X29132Y-38202D01*
X29039Y-38227D01*
X28970Y-38424D01*
X28981Y-38632D01*
X29039Y-38772D01*
X29132Y-38797D01*
X29429Y-38500D01*
X29429Y-38641D01*
X29202Y-38867D01*
X29211Y-38900D01*
X27894Y-38900D01*
X27850Y-38855D01*
X27850Y-37842D01*
X27952Y-37944D01*
X28145Y-38024D01*
X28353Y-38025D01*
X28547Y-37945D01*
X28642Y-37850D01*
X30107Y-37850D01*
X30202Y-37944D01*
X30395Y-38024D01*
X30603Y-38025D01*
X30797Y-37945D01*
X30944Y-37797D01*
X30953Y-37776D01*
X30997Y-37747D01*
X31497Y-37247D01*
X31573Y-37133D01*
X31573Y-37133D01*
X31600Y-37000D01*
X31600Y-35250D01*
X31599Y-35249D01*
X31600Y-35249D01*
X31573Y-35116D01*
X31497Y-35002D01*
X31497Y-35002D01*
X31029Y-34534D01*
X31029Y-33575D01*
X31018Y-33367D01*
X30960Y-33227D01*
X30867Y-33202D01*
X30797Y-33273D01*
X30797Y-33132D01*
X30772Y-33039D01*
X30575Y-32970D01*
X30367Y-32981D01*
X30227Y-33039D01*
X30208Y-33109D01*
X30208Y-26222D01*
X30208Y-24659D01*
X29050Y-24659D01*
X29050Y-24249D01*
X29049Y-24150D01*
X29045Y-24139D01*
X29045Y-22892D01*
X29029Y-22854D01*
X29029Y-21075D01*
X29025Y-20987D01*
X29025Y-19896D01*
X28945Y-19703D01*
X28797Y-19555D01*
X28725Y-19525D01*
X28824Y-19525D01*
X28916Y-19487D01*
X28986Y-19416D01*
X29024Y-19324D01*
X29025Y-19225D01*
X29025Y-18675D01*
X28987Y-18583D01*
X28916Y-18513D01*
X28850Y-18485D01*
X28850Y-18392D01*
X28944Y-18297D01*
X29024Y-18104D01*
X29025Y-17896D01*
X28945Y-17703D01*
X28797Y-17555D01*
X28707Y-17517D01*
X28582Y-17139D01*
X28575Y-17128D01*
X28573Y-17116D01*
X28542Y-17069D01*
X28514Y-17020D01*
X28504Y-17013D01*
X28497Y-17002D01*
X28450Y-16971D01*
X28406Y-16937D01*
X28394Y-16933D01*
X28383Y-16926D01*
X28329Y-16915D01*
X28275Y-16900D01*
X28262Y-16902D01*
X28250Y-16900D01*
X27927Y-16900D01*
X27811Y-16784D01*
X27609Y-16700D01*
X27391Y-16699D01*
X27188Y-16783D01*
X27034Y-16938D01*
X26950Y-17140D01*
X26949Y-17358D01*
X27033Y-17561D01*
X27188Y-17715D01*
X27390Y-17799D01*
X27608Y-17800D01*
X27811Y-17716D01*
X27927Y-17600D01*
X27997Y-17600D01*
X28042Y-17733D01*
X27975Y-17895D01*
X27974Y-18103D01*
X28054Y-18297D01*
X28150Y-18392D01*
X28150Y-18485D01*
X28083Y-18512D01*
X28013Y-18583D01*
X27985Y-18650D01*
X27892Y-18650D01*
X27797Y-18555D01*
X27604Y-18475D01*
X27396Y-18474D01*
X27203Y-18554D01*
X27107Y-18650D01*
X26427Y-18650D01*
X26311Y-18534D01*
X26109Y-18450D01*
X25891Y-18449D01*
X25688Y-18533D01*
X25534Y-18688D01*
X25497Y-18776D01*
X25462Y-18691D01*
X25309Y-18538D01*
X25108Y-18454D01*
X24892Y-18454D01*
X24691Y-18537D01*
X24538Y-18690D01*
X24502Y-18776D01*
X24466Y-18688D01*
X24311Y-18534D01*
X24109Y-18450D01*
X23891Y-18449D01*
X23688Y-18533D01*
X23534Y-18688D01*
X23450Y-18890D01*
X23449Y-19108D01*
X23533Y-19311D01*
X23688Y-19465D01*
X23890Y-19549D01*
X24108Y-19550D01*
X24311Y-19466D01*
X24465Y-19311D01*
X24502Y-19223D01*
X24537Y-19308D01*
X24650Y-19421D01*
X24650Y-19572D01*
X24534Y-19688D01*
X24450Y-19890D01*
X24449Y-20108D01*
X24533Y-20311D01*
X24650Y-20427D01*
X24650Y-21107D01*
X24555Y-21202D01*
X24475Y-21395D01*
X24474Y-21603D01*
X24554Y-21797D01*
X24702Y-21944D01*
X24895Y-22024D01*
X25103Y-22025D01*
X25297Y-21945D01*
X25444Y-21797D01*
X25524Y-21604D01*
X25525Y-21396D01*
X25445Y-21203D01*
X25350Y-21107D01*
X25350Y-20427D01*
X25427Y-20350D01*
X27107Y-20350D01*
X27202Y-20444D01*
X27328Y-20497D01*
X27227Y-20539D01*
X27202Y-20632D01*
X27500Y-20929D01*
X27797Y-20632D01*
X27772Y-20539D01*
X27662Y-20500D01*
X27797Y-20445D01*
X27892Y-20350D01*
X28107Y-20350D01*
X28202Y-20444D01*
X28328Y-20497D01*
X28227Y-20539D01*
X28202Y-20632D01*
X28500Y-20929D01*
X28797Y-20632D01*
X28772Y-20539D01*
X28662Y-20500D01*
X28797Y-20445D01*
X28944Y-20297D01*
X29024Y-20104D01*
X29025Y-19896D01*
X29025Y-20987D01*
X29018Y-20867D01*
X28960Y-20727D01*
X28867Y-20702D01*
X28570Y-21000D01*
X28867Y-21297D01*
X28960Y-21272D01*
X29029Y-21075D01*
X29029Y-22854D01*
X28962Y-22691D01*
X28850Y-22578D01*
X28850Y-22392D01*
X28944Y-22297D01*
X29024Y-22104D01*
X29025Y-21896D01*
X28945Y-21703D01*
X28797Y-21555D01*
X28671Y-21502D01*
X28772Y-21460D01*
X28797Y-21367D01*
X28500Y-21070D01*
X28429Y-21141D01*
X28429Y-21000D01*
X28132Y-20702D01*
X28039Y-20727D01*
X28003Y-20830D01*
X27960Y-20727D01*
X27867Y-20702D01*
X27570Y-21000D01*
X27867Y-21297D01*
X27960Y-21272D01*
X27996Y-21169D01*
X28039Y-21272D01*
X28132Y-21297D01*
X28429Y-21000D01*
X28429Y-21141D01*
X28202Y-21367D01*
X28227Y-21460D01*
X28337Y-21499D01*
X28203Y-21554D01*
X28107Y-21650D01*
X27892Y-21650D01*
X27797Y-21555D01*
X27671Y-21502D01*
X27772Y-21460D01*
X27797Y-21367D01*
X27500Y-21070D01*
X27429Y-21141D01*
X27429Y-21000D01*
X27132Y-20702D01*
X27039Y-20727D01*
X26970Y-20924D01*
X26981Y-21132D01*
X27039Y-21272D01*
X27132Y-21297D01*
X27429Y-21000D01*
X27429Y-21141D01*
X27202Y-21367D01*
X27227Y-21460D01*
X27337Y-21499D01*
X27203Y-21554D01*
X27055Y-21702D01*
X26975Y-21895D01*
X26974Y-22103D01*
X27054Y-22297D01*
X27202Y-22444D01*
X27395Y-22524D01*
X27603Y-22525D01*
X27797Y-22445D01*
X27892Y-22350D01*
X28107Y-22350D01*
X28150Y-22392D01*
X28150Y-22578D01*
X28038Y-22690D01*
X27954Y-22891D01*
X27954Y-23107D01*
X28037Y-23308D01*
X28190Y-23461D01*
X28391Y-23545D01*
X28607Y-23545D01*
X28808Y-23462D01*
X28961Y-23309D01*
X29045Y-23108D01*
X29045Y-22892D01*
X29045Y-24139D01*
X29011Y-24058D01*
X28941Y-23987D01*
X28849Y-23949D01*
X28612Y-23950D01*
X28550Y-24012D01*
X28550Y-24450D01*
X28987Y-24450D01*
X29050Y-24387D01*
X29050Y-24249D01*
X29050Y-24659D01*
X29050Y-24659D01*
X29050Y-24612D01*
X28987Y-24550D01*
X28550Y-24550D01*
X28550Y-24557D01*
X28450Y-24557D01*
X28450Y-24550D01*
X28442Y-24550D01*
X28442Y-24450D01*
X28450Y-24450D01*
X28450Y-24012D01*
X28387Y-23950D01*
X28150Y-23949D01*
X28058Y-23987D01*
X27988Y-24058D01*
X27950Y-24150D01*
X27950Y-24172D01*
X27811Y-24034D01*
X27609Y-23950D01*
X27391Y-23949D01*
X27188Y-24033D01*
X27072Y-24150D01*
X25392Y-24150D01*
X25297Y-24055D01*
X25104Y-23975D01*
X24896Y-23974D01*
X24703Y-24054D01*
X24555Y-24202D01*
X24475Y-24395D01*
X24474Y-24603D01*
X24554Y-24797D01*
X24702Y-24944D01*
X24895Y-25024D01*
X25103Y-25025D01*
X25297Y-24945D01*
X25392Y-24850D01*
X26895Y-24850D01*
X26895Y-26222D01*
X27791Y-26222D01*
X28104Y-26222D01*
X30208Y-26222D01*
X30208Y-33109D01*
X30202Y-33132D01*
X30500Y-33429D01*
X30797Y-33132D01*
X30797Y-33273D01*
X30570Y-33500D01*
X30867Y-33797D01*
X30960Y-33772D01*
X31029Y-33575D01*
X31029Y-34534D01*
X31024Y-34529D01*
X31025Y-34396D01*
X30945Y-34203D01*
X30797Y-34055D01*
X30671Y-34002D01*
X30772Y-33960D01*
X30797Y-33867D01*
X30500Y-33570D01*
X30429Y-33641D01*
X30429Y-33500D01*
X30132Y-33202D01*
X30039Y-33227D01*
X29970Y-33424D01*
X29981Y-33632D01*
X30039Y-33772D01*
X30132Y-33797D01*
X30429Y-33500D01*
X30429Y-33641D01*
X30202Y-33867D01*
X30227Y-33960D01*
X30337Y-33999D01*
X30203Y-34054D01*
X30107Y-34150D01*
X29892Y-34150D01*
X29797Y-34055D01*
X29604Y-33975D01*
X29396Y-33974D01*
X29203Y-34054D01*
X29055Y-34202D01*
X28975Y-34395D01*
X28974Y-34603D01*
X29054Y-34797D01*
X29202Y-34944D01*
X29395Y-35024D01*
X29603Y-35025D01*
X29797Y-34945D01*
X29892Y-34850D01*
X30107Y-34850D01*
X30202Y-34944D01*
X30335Y-35000D01*
X30203Y-35054D01*
X30107Y-35150D01*
X28642Y-35150D01*
X28547Y-35055D01*
X28354Y-34975D01*
X28146Y-34974D01*
X27953Y-35054D01*
X27857Y-35150D01*
X26892Y-35150D01*
X26850Y-35107D01*
X26850Y-34892D01*
X26944Y-34797D01*
X27024Y-34604D01*
X27025Y-34396D01*
X26945Y-34203D01*
X26797Y-34055D01*
X26604Y-33975D01*
X26396Y-33974D01*
X26203Y-34054D01*
X26055Y-34202D01*
X26050Y-34214D01*
X26050Y-27330D01*
X26039Y-27113D01*
X25977Y-26964D01*
X25882Y-26938D01*
X25811Y-27008D01*
X25811Y-26867D01*
X25785Y-26772D01*
X25580Y-26699D01*
X25363Y-26710D01*
X25214Y-26772D01*
X25188Y-26867D01*
X25500Y-27179D01*
X25811Y-26867D01*
X25811Y-27008D01*
X25570Y-27250D01*
X25882Y-27561D01*
X25977Y-27535D01*
X26050Y-27330D01*
X26050Y-34214D01*
X25975Y-34395D01*
X25974Y-34603D01*
X26054Y-34797D01*
X26150Y-34892D01*
X26150Y-35107D01*
X26055Y-35202D01*
X25975Y-35395D01*
X25974Y-35603D01*
X26054Y-35797D01*
X26202Y-35944D01*
X26395Y-36024D01*
X26603Y-36025D01*
X26797Y-35945D01*
X26892Y-35850D01*
X27857Y-35850D01*
X27952Y-35944D01*
X28145Y-36024D01*
X28353Y-36025D01*
X28547Y-35945D01*
X28642Y-35850D01*
X30107Y-35850D01*
X30202Y-35944D01*
X30335Y-36000D01*
X30203Y-36054D01*
X30107Y-36150D01*
X29892Y-36150D01*
X29797Y-36055D01*
X29604Y-35975D01*
X29396Y-35974D01*
X29203Y-36054D01*
X29107Y-36150D01*
X27750Y-36150D01*
X27616Y-36176D01*
X27502Y-36252D01*
X27502Y-36252D01*
X27252Y-36502D01*
X27176Y-36616D01*
X27150Y-36750D01*
X27150Y-39000D01*
X27176Y-39133D01*
X27252Y-39247D01*
X27502Y-39497D01*
X27502Y-39497D01*
X27616Y-39573D01*
X27750Y-39600D01*
X37250Y-39600D01*
X37383Y-39573D01*
X37383Y-39573D01*
X37497Y-39497D01*
X39247Y-37747D01*
X39323Y-37633D01*
X39350Y-37500D01*
X39350Y-36350D01*
X44107Y-36350D01*
X44202Y-36444D01*
X44395Y-36524D01*
X44603Y-36525D01*
X44797Y-36445D01*
X44892Y-36350D01*
X45107Y-36350D01*
X45202Y-36444D01*
X45335Y-36500D01*
X45203Y-36554D01*
X45107Y-36650D01*
X45000Y-36650D01*
X43892Y-36650D01*
X43797Y-36555D01*
X43604Y-36475D01*
X43396Y-36474D01*
X43203Y-36554D01*
X43055Y-36702D01*
X42975Y-36895D01*
X42974Y-37103D01*
X43054Y-37297D01*
X43202Y-37444D01*
X43395Y-37524D01*
X43603Y-37525D01*
X43797Y-37445D01*
X43892Y-37350D01*
X45000Y-37350D01*
X45107Y-37350D01*
X45202Y-37444D01*
X45395Y-37524D01*
X45603Y-37525D01*
X45797Y-37445D01*
X45944Y-37297D01*
X46024Y-37104D01*
X46024Y-37070D01*
X46444Y-36791D01*
X46468Y-36767D01*
X46497Y-36747D01*
X46516Y-36718D01*
X46540Y-36694D01*
X46553Y-36663D01*
X46573Y-36633D01*
X46580Y-36599D01*
X46593Y-36568D01*
X46593Y-36534D01*
X46600Y-36500D01*
X46600Y-34750D01*
X46599Y-34749D01*
X46600Y-34749D01*
X46573Y-34616D01*
X46497Y-34502D01*
X46497Y-34502D01*
X46029Y-34034D01*
X46029Y-33075D01*
X46018Y-32867D01*
X45960Y-32727D01*
X45867Y-32702D01*
X45797Y-32773D01*
X45797Y-32632D01*
X45772Y-32539D01*
X45575Y-32470D01*
X45367Y-32481D01*
X45227Y-32539D01*
X45202Y-32632D01*
X45500Y-32929D01*
X45797Y-32632D01*
X45797Y-32773D01*
X45570Y-33000D01*
X45867Y-33297D01*
X45960Y-33272D01*
X46029Y-33075D01*
X46029Y-34034D01*
X46024Y-34029D01*
X46025Y-33896D01*
X45945Y-33703D01*
X45797Y-33555D01*
X45671Y-33502D01*
X45772Y-33460D01*
X45797Y-33367D01*
X45500Y-33070D01*
X45429Y-33141D01*
X45429Y-33000D01*
X45132Y-32702D01*
X45039Y-32727D01*
X44970Y-32924D01*
X44981Y-33132D01*
X45039Y-33272D01*
X45132Y-33297D01*
X45429Y-33000D01*
X45429Y-33141D01*
X45202Y-33367D01*
X45227Y-33460D01*
X45337Y-33499D01*
X45203Y-33554D01*
X45107Y-33650D01*
X44892Y-33650D01*
X44797Y-33555D01*
X44604Y-33475D01*
X44396Y-33474D01*
X44203Y-33554D01*
X44055Y-33702D01*
X43975Y-33895D01*
X43974Y-34103D01*
X44054Y-34297D01*
X44202Y-34444D01*
X44395Y-34524D01*
X44603Y-34525D01*
X44797Y-34445D01*
X44892Y-34350D01*
X45107Y-34350D01*
X45202Y-34444D01*
X45335Y-34500D01*
X45203Y-34554D01*
X45107Y-34650D01*
X43892Y-34650D01*
X43811Y-34569D01*
X43811Y-27382D01*
X43500Y-27070D01*
X43429Y-27141D01*
X43429Y-27000D01*
X43117Y-26688D01*
X43022Y-26714D01*
X42949Y-26919D01*
X42960Y-27136D01*
X43022Y-27285D01*
X43117Y-27311D01*
X43429Y-27000D01*
X43429Y-27141D01*
X43188Y-27382D01*
X43214Y-27477D01*
X43419Y-27550D01*
X43636Y-27539D01*
X43785Y-27477D01*
X43811Y-27382D01*
X43811Y-34569D01*
X43797Y-34555D01*
X43604Y-34475D01*
X43396Y-34474D01*
X43203Y-34554D01*
X43107Y-34650D01*
X42050Y-34650D01*
X42050Y-29580D01*
X42039Y-29363D01*
X41977Y-29214D01*
X41882Y-29188D01*
X41811Y-29258D01*
X41811Y-29117D01*
X41785Y-29022D01*
X41580Y-28949D01*
X41363Y-28960D01*
X41214Y-29022D01*
X41188Y-29117D01*
X41500Y-29429D01*
X41811Y-29117D01*
X41811Y-29258D01*
X41570Y-29500D01*
X41882Y-29811D01*
X41977Y-29785D01*
X42050Y-29580D01*
X42050Y-34650D01*
X41892Y-34650D01*
X41850Y-34607D01*
X41850Y-34392D01*
X41944Y-34297D01*
X42024Y-34104D01*
X42025Y-33896D01*
X41945Y-33703D01*
X41811Y-33569D01*
X41811Y-29882D01*
X41500Y-29570D01*
X41429Y-29641D01*
X41429Y-29500D01*
X41117Y-29188D01*
X41022Y-29214D01*
X40949Y-29419D01*
X40960Y-29636D01*
X41022Y-29785D01*
X41117Y-29811D01*
X41429Y-29500D01*
X41429Y-29641D01*
X41188Y-29882D01*
X41214Y-29977D01*
X41419Y-30050D01*
X41636Y-30039D01*
X41785Y-29977D01*
X41811Y-29882D01*
X41811Y-33569D01*
X41797Y-33555D01*
X41604Y-33475D01*
X41396Y-33474D01*
X41203Y-33554D01*
X41055Y-33702D01*
X41029Y-33763D01*
X41029Y-30825D01*
X41018Y-30617D01*
X40960Y-30477D01*
X40867Y-30452D01*
X40811Y-30508D01*
X40811Y-27382D01*
X40500Y-27070D01*
X40188Y-27382D01*
X40214Y-27477D01*
X40419Y-27550D01*
X40636Y-27539D01*
X40785Y-27477D01*
X40811Y-27382D01*
X40811Y-30508D01*
X40797Y-30523D01*
X40797Y-30382D01*
X40772Y-30289D01*
X40575Y-30220D01*
X40367Y-30231D01*
X40227Y-30289D01*
X40202Y-30382D01*
X40500Y-30679D01*
X40797Y-30382D01*
X40797Y-30523D01*
X40570Y-30750D01*
X40867Y-31047D01*
X40960Y-31022D01*
X41029Y-30825D01*
X41029Y-33763D01*
X40975Y-33895D01*
X40974Y-34103D01*
X41054Y-34297D01*
X41150Y-34392D01*
X41150Y-34607D01*
X41055Y-34702D01*
X40975Y-34895D01*
X40974Y-35103D01*
X41054Y-35297D01*
X41202Y-35444D01*
X41395Y-35524D01*
X41603Y-35525D01*
X41797Y-35445D01*
X41892Y-35350D01*
X43107Y-35350D01*
X43202Y-35444D01*
X43395Y-35524D01*
X43603Y-35525D01*
X43797Y-35445D01*
X43892Y-35350D01*
X45107Y-35350D01*
X45202Y-35444D01*
X45335Y-35500D01*
X45203Y-35554D01*
X45107Y-35650D01*
X44892Y-35650D01*
X44797Y-35555D01*
X44604Y-35475D01*
X44396Y-35474D01*
X44203Y-35554D01*
X44107Y-35650D01*
X40797Y-35650D01*
X40797Y-31117D01*
X40500Y-30820D01*
X40202Y-31117D01*
X40227Y-31210D01*
X40424Y-31279D01*
X40632Y-31268D01*
X40772Y-31210D01*
X40797Y-31117D01*
X40797Y-35650D01*
X39350Y-35650D01*
X39350Y-33644D01*
X39747Y-33247D01*
X39823Y-33133D01*
X39823Y-33133D01*
X39850Y-33000D01*
X39850Y-31264D01*
X39916Y-31237D01*
X39986Y-31166D01*
X40024Y-31074D01*
X40025Y-30987D01*
X40039Y-31022D01*
X40132Y-31047D01*
X40429Y-30750D01*
X40132Y-30452D01*
X40039Y-30477D01*
X40025Y-30518D01*
X40025Y-30425D01*
X39987Y-30333D01*
X39916Y-30263D01*
X39850Y-30235D01*
X39850Y-27421D01*
X39961Y-27309D01*
X39997Y-27224D01*
X40022Y-27285D01*
X40117Y-27311D01*
X40429Y-27000D01*
X40117Y-26688D01*
X40022Y-26714D01*
X39999Y-26780D01*
X39962Y-26691D01*
X39850Y-26578D01*
X39850Y-25844D01*
X40461Y-26456D01*
X40363Y-26460D01*
X40214Y-26522D01*
X40188Y-26617D01*
X40500Y-26929D01*
X40505Y-26923D01*
X40576Y-26994D01*
X40570Y-27000D01*
X40882Y-27311D01*
X40977Y-27285D01*
X41000Y-27219D01*
X41037Y-27308D01*
X41190Y-27461D01*
X41391Y-27545D01*
X41607Y-27545D01*
X41808Y-27462D01*
X41961Y-27309D01*
X42045Y-27108D01*
X42045Y-26892D01*
X41962Y-26691D01*
X41809Y-26538D01*
X41608Y-26454D01*
X41449Y-26454D01*
X40019Y-25025D01*
X40103Y-25025D01*
X40297Y-24945D01*
X40392Y-24850D01*
X41895Y-24850D01*
X41895Y-26222D01*
X43104Y-26222D01*
X43104Y-25030D01*
X43150Y-25050D01*
X43387Y-25050D01*
X43450Y-24987D01*
X43450Y-24550D01*
X43442Y-24550D01*
X43442Y-24450D01*
X43450Y-24450D01*
X43450Y-24012D01*
X43387Y-23950D01*
X43150Y-23949D01*
X43058Y-23987D01*
X42988Y-24058D01*
X42950Y-24150D01*
X42950Y-24172D01*
X42811Y-24034D01*
X42609Y-23950D01*
X42391Y-23949D01*
X42188Y-24033D01*
X42072Y-24150D01*
X40392Y-24150D01*
X40297Y-24055D01*
X40104Y-23975D01*
X39896Y-23974D01*
X39703Y-24054D01*
X39555Y-24202D01*
X39475Y-24395D01*
X39475Y-24480D01*
X39247Y-24252D01*
X39133Y-24176D01*
X39000Y-24150D01*
X38921Y-24150D01*
X38850Y-24078D01*
X38850Y-23421D01*
X38921Y-23350D01*
X41500Y-23350D01*
X41633Y-23323D01*
X41633Y-23323D01*
X41747Y-23247D01*
X42470Y-22524D01*
X42603Y-22525D01*
X42797Y-22445D01*
X42892Y-22350D01*
X43107Y-22350D01*
X43150Y-22392D01*
X43150Y-22578D01*
X43038Y-22690D01*
X42954Y-22891D01*
X42954Y-23107D01*
X43037Y-23308D01*
X43190Y-23461D01*
X43391Y-23545D01*
X43607Y-23545D01*
X43808Y-23462D01*
X43961Y-23309D01*
X44045Y-23108D01*
X44045Y-22892D01*
X44029Y-22854D01*
X44029Y-21075D01*
X44025Y-20987D01*
X44025Y-19896D01*
X43945Y-19703D01*
X43797Y-19555D01*
X43725Y-19525D01*
X43824Y-19525D01*
X43916Y-19487D01*
X43986Y-19416D01*
X44024Y-19324D01*
X44025Y-19225D01*
X44025Y-18675D01*
X43987Y-18583D01*
X43916Y-18513D01*
X43850Y-18485D01*
X43850Y-18392D01*
X43944Y-18297D01*
X44024Y-18104D01*
X44025Y-17896D01*
X43945Y-17703D01*
X43797Y-17555D01*
X43604Y-17475D01*
X43469Y-17474D01*
X43049Y-17054D01*
X43050Y-16891D01*
X42966Y-16688D01*
X42811Y-16534D01*
X42609Y-16450D01*
X42391Y-16449D01*
X42188Y-16533D01*
X42034Y-16688D01*
X41950Y-16890D01*
X41949Y-17108D01*
X42033Y-17311D01*
X42188Y-17465D01*
X42390Y-17549D01*
X42555Y-17550D01*
X42975Y-17970D01*
X42974Y-18103D01*
X43054Y-18297D01*
X43150Y-18392D01*
X43150Y-18485D01*
X43083Y-18512D01*
X43013Y-18583D01*
X42985Y-18650D01*
X42892Y-18650D01*
X42797Y-18555D01*
X42604Y-18475D01*
X42396Y-18474D01*
X42203Y-18554D01*
X42107Y-18650D01*
X41427Y-18650D01*
X41311Y-18534D01*
X41109Y-18450D01*
X40891Y-18449D01*
X40688Y-18533D01*
X40534Y-18688D01*
X40497Y-18776D01*
X40462Y-18691D01*
X40309Y-18538D01*
X40108Y-18454D01*
X39892Y-18454D01*
X39691Y-18537D01*
X39538Y-18690D01*
X39502Y-18776D01*
X39466Y-18688D01*
X39311Y-18534D01*
X39109Y-18450D01*
X38891Y-18449D01*
X38688Y-18533D01*
X38534Y-18688D01*
X38450Y-18890D01*
X38449Y-19108D01*
X38533Y-19311D01*
X38688Y-19465D01*
X38890Y-19549D01*
X39108Y-19550D01*
X39311Y-19466D01*
X39465Y-19311D01*
X39502Y-19223D01*
X39537Y-19308D01*
X39650Y-19421D01*
X39650Y-19572D01*
X39534Y-19688D01*
X39450Y-19890D01*
X39449Y-20108D01*
X39533Y-20311D01*
X39650Y-20427D01*
X39650Y-21107D01*
X39555Y-21202D01*
X39475Y-21395D01*
X39474Y-21603D01*
X39554Y-21797D01*
X39702Y-21944D01*
X39895Y-22024D01*
X40103Y-22025D01*
X40297Y-21945D01*
X40444Y-21797D01*
X40524Y-21604D01*
X40525Y-21396D01*
X40445Y-21203D01*
X40350Y-21107D01*
X40350Y-20427D01*
X40427Y-20350D01*
X42107Y-20350D01*
X42202Y-20444D01*
X42328Y-20497D01*
X42227Y-20539D01*
X42202Y-20632D01*
X42500Y-20929D01*
X42797Y-20632D01*
X42772Y-20539D01*
X42662Y-20500D01*
X42797Y-20445D01*
X42892Y-20350D01*
X43107Y-20350D01*
X43202Y-20444D01*
X43328Y-20497D01*
X43227Y-20539D01*
X43202Y-20632D01*
X43500Y-20929D01*
X43797Y-20632D01*
X43772Y-20539D01*
X43662Y-20500D01*
X43797Y-20445D01*
X43944Y-20297D01*
X44024Y-20104D01*
X44025Y-19896D01*
X44025Y-20987D01*
X44018Y-20867D01*
X43960Y-20727D01*
X43867Y-20702D01*
X43570Y-21000D01*
X43867Y-21297D01*
X43960Y-21272D01*
X44029Y-21075D01*
X44029Y-22854D01*
X43962Y-22691D01*
X43850Y-22578D01*
X43850Y-22392D01*
X43944Y-22297D01*
X44024Y-22104D01*
X44025Y-21896D01*
X43945Y-21703D01*
X43797Y-21555D01*
X43671Y-21502D01*
X43772Y-21460D01*
X43797Y-21367D01*
X43500Y-21070D01*
X43429Y-21141D01*
X43429Y-21000D01*
X43132Y-20702D01*
X43039Y-20727D01*
X43003Y-20830D01*
X42960Y-20727D01*
X42867Y-20702D01*
X42570Y-21000D01*
X42867Y-21297D01*
X42960Y-21272D01*
X42996Y-21169D01*
X43039Y-21272D01*
X43132Y-21297D01*
X43429Y-21000D01*
X43429Y-21141D01*
X43202Y-21367D01*
X43227Y-21460D01*
X43337Y-21499D01*
X43203Y-21554D01*
X43107Y-21650D01*
X42892Y-21650D01*
X42797Y-21555D01*
X42671Y-21502D01*
X42772Y-21460D01*
X42797Y-21367D01*
X42500Y-21070D01*
X42429Y-21141D01*
X42429Y-21000D01*
X42132Y-20702D01*
X42039Y-20727D01*
X41970Y-20924D01*
X41981Y-21132D01*
X42039Y-21272D01*
X42132Y-21297D01*
X42429Y-21000D01*
X42429Y-21141D01*
X42202Y-21367D01*
X42227Y-21460D01*
X42337Y-21499D01*
X42203Y-21554D01*
X42055Y-21702D01*
X41975Y-21895D01*
X41974Y-22030D01*
X41355Y-22650D01*
X38921Y-22650D01*
X38809Y-22538D01*
X38608Y-22454D01*
X38392Y-22454D01*
X38191Y-22537D01*
X38038Y-22690D01*
X37954Y-22891D01*
X37954Y-23107D01*
X38037Y-23308D01*
X38150Y-23421D01*
X38150Y-24078D01*
X38038Y-24190D01*
X37954Y-24391D01*
X37954Y-24459D01*
X37350Y-23855D01*
X37350Y-19000D01*
X37350Y-18144D01*
X39144Y-16350D01*
X48900Y-16350D01*
X48900Y-17657D01*
X48797Y-17555D01*
X48604Y-17475D01*
X48396Y-17474D01*
X48203Y-17554D01*
X48107Y-17650D01*
X48029Y-17650D01*
X48029Y-17075D01*
X48018Y-16867D01*
X47960Y-16727D01*
X47867Y-16702D01*
X47797Y-16773D01*
X47797Y-16632D01*
X47772Y-16539D01*
X47575Y-16470D01*
X47367Y-16481D01*
X47227Y-16539D01*
X47202Y-16632D01*
X47500Y-16929D01*
X47797Y-16632D01*
X47797Y-16773D01*
X47570Y-17000D01*
X47867Y-17297D01*
X47960Y-17272D01*
X48029Y-17075D01*
X48029Y-17650D01*
X47797Y-17650D01*
X47797Y-17367D01*
X47500Y-17070D01*
X47429Y-17141D01*
X47429Y-17000D01*
X47132Y-16702D01*
X47039Y-16727D01*
X46970Y-16924D01*
X46981Y-17132D01*
X47039Y-17272D01*
X47132Y-17297D01*
X47429Y-17000D01*
X47429Y-17141D01*
X47202Y-17367D01*
X47227Y-17460D01*
X47424Y-17529D01*
X47632Y-17518D01*
X47772Y-17460D01*
X47797Y-17367D01*
X47797Y-17650D01*
X46892Y-17650D01*
X46797Y-17555D01*
X46604Y-17475D01*
X46396Y-17474D01*
X46203Y-17554D01*
X46107Y-17650D01*
X45750Y-17650D01*
X45616Y-17676D01*
X45502Y-17752D01*
X45502Y-17752D01*
X45252Y-18002D01*
X45176Y-18116D01*
X45150Y-18250D01*
X45150Y-20750D01*
X45176Y-20883D01*
X45252Y-20997D01*
X45502Y-21247D01*
X45502Y-21247D01*
X45616Y-21323D01*
X45750Y-21350D01*
X46107Y-21350D01*
X46202Y-21444D01*
X46328Y-21497D01*
X46227Y-21539D01*
X46202Y-21632D01*
X46500Y-21929D01*
X46797Y-21632D01*
X46772Y-21539D01*
X46662Y-21500D01*
X46797Y-21445D01*
X46892Y-21350D01*
X47107Y-21350D01*
X47202Y-21444D01*
X47395Y-21524D01*
X47603Y-21525D01*
X47797Y-21445D01*
X47944Y-21297D01*
X48024Y-21104D01*
X48025Y-20896D01*
X47945Y-20703D01*
X47797Y-20555D01*
X47604Y-20475D01*
X47396Y-20474D01*
X47203Y-20554D01*
X47107Y-20650D01*
X46892Y-20650D01*
X46797Y-20555D01*
X46664Y-20499D01*
X46797Y-20445D01*
X46892Y-20350D01*
X48107Y-20350D01*
X48202Y-20444D01*
X48395Y-20524D01*
X48603Y-20525D01*
X48797Y-20445D01*
X48892Y-20350D01*
X49507Y-20350D01*
X49602Y-20444D01*
X49795Y-20524D01*
X49807Y-20524D01*
X49997Y-20841D01*
X49975Y-20895D01*
X49974Y-21103D01*
X50054Y-21297D01*
X50202Y-21444D01*
X50395Y-21524D01*
X50603Y-21525D01*
X50797Y-21445D01*
X50944Y-21297D01*
X51024Y-21104D01*
X51025Y-20896D01*
X50945Y-20703D01*
X50797Y-20555D01*
X50604Y-20475D01*
X50593Y-20475D01*
X50403Y-20157D01*
X50424Y-20104D01*
X50425Y-19896D01*
X50345Y-19703D01*
X50197Y-19555D01*
X50004Y-19475D01*
X49796Y-19474D01*
X49603Y-19554D01*
X49507Y-19650D01*
X48892Y-19650D01*
X48797Y-19555D01*
X48604Y-19475D01*
X48396Y-19474D01*
X48203Y-19554D01*
X48107Y-19650D01*
X46892Y-19650D01*
X46797Y-19555D01*
X46664Y-19499D01*
X46797Y-19445D01*
X46892Y-19350D01*
X47107Y-19350D01*
X47202Y-19444D01*
X47395Y-19524D01*
X47603Y-19525D01*
X47797Y-19445D01*
X47892Y-19350D01*
X49250Y-19350D01*
X50500Y-19350D01*
X50633Y-19323D01*
X50747Y-19247D01*
X50823Y-19133D01*
X50850Y-19000D01*
X50850Y-15850D01*
X61855Y-15850D01*
X63900Y-17894D01*
X63900Y-18355D01*
X63605Y-18650D01*
X62392Y-18650D01*
X62297Y-18555D01*
X62104Y-18475D01*
X61896Y-18474D01*
X61703Y-18554D01*
X61607Y-18650D01*
X61392Y-18650D01*
X61297Y-18555D01*
X61164Y-18499D01*
X61297Y-18445D01*
X61392Y-18350D01*
X62857Y-18350D01*
X62952Y-18444D01*
X63145Y-18524D01*
X63353Y-18525D01*
X63547Y-18445D01*
X63694Y-18297D01*
X63774Y-18104D01*
X63775Y-17896D01*
X63695Y-17703D01*
X63547Y-17555D01*
X63354Y-17475D01*
X63146Y-17474D01*
X62953Y-17554D01*
X62857Y-17650D01*
X62529Y-17650D01*
X62529Y-17075D01*
X62518Y-16867D01*
X62460Y-16727D01*
X62367Y-16702D01*
X62297Y-16773D01*
X62297Y-16632D01*
X62272Y-16539D01*
X62075Y-16470D01*
X61867Y-16481D01*
X61727Y-16539D01*
X61702Y-16632D01*
X62000Y-16929D01*
X62297Y-16632D01*
X62297Y-16773D01*
X62070Y-17000D01*
X62367Y-17297D01*
X62460Y-17272D01*
X62529Y-17075D01*
X62529Y-17650D01*
X62297Y-17650D01*
X62297Y-17367D01*
X62000Y-17070D01*
X61929Y-17141D01*
X61929Y-17000D01*
X61632Y-16702D01*
X61539Y-16727D01*
X61470Y-16924D01*
X61481Y-17132D01*
X61539Y-17272D01*
X61632Y-17297D01*
X61929Y-17000D01*
X61929Y-17141D01*
X61702Y-17367D01*
X61727Y-17460D01*
X61924Y-17529D01*
X62132Y-17518D01*
X62272Y-17460D01*
X62297Y-17367D01*
X62297Y-17650D01*
X61392Y-17650D01*
X61297Y-17555D01*
X61104Y-17475D01*
X60896Y-17474D01*
X60703Y-17554D01*
X60607Y-17650D01*
X60500Y-17650D01*
X60366Y-17676D01*
X60252Y-17752D01*
X60252Y-17752D01*
X60002Y-18002D01*
X59926Y-18116D01*
X59900Y-18250D01*
X59900Y-20750D01*
X59926Y-20883D01*
X60002Y-20997D01*
X60252Y-21247D01*
X60252Y-21247D01*
X60366Y-21323D01*
X60500Y-21350D01*
X60607Y-21350D01*
X60702Y-21444D01*
X60828Y-21497D01*
X60727Y-21539D01*
X60702Y-21632D01*
X61000Y-21929D01*
X61297Y-21632D01*
X61272Y-21539D01*
X61162Y-21500D01*
X61297Y-21445D01*
X61392Y-21350D01*
X61607Y-21350D01*
X61702Y-21444D01*
X61895Y-21524D01*
X62103Y-21525D01*
X62297Y-21445D01*
X62444Y-21297D01*
X62524Y-21104D01*
X62525Y-20896D01*
X62445Y-20703D01*
X62297Y-20555D01*
X62104Y-20475D01*
X61896Y-20474D01*
X61703Y-20554D01*
X61607Y-20650D01*
X61392Y-20650D01*
X61297Y-20555D01*
X61164Y-20499D01*
X61297Y-20445D01*
X61392Y-20350D01*
X62857Y-20350D01*
X62952Y-20444D01*
X63145Y-20524D01*
X63353Y-20525D01*
X63547Y-20445D01*
X63642Y-20350D01*
X64607Y-20350D01*
X64650Y-20392D01*
X64650Y-20607D01*
X64555Y-20702D01*
X64475Y-20895D01*
X64474Y-21103D01*
X64554Y-21297D01*
X64702Y-21444D01*
X64895Y-21524D01*
X65103Y-21525D01*
X65297Y-21445D01*
X65444Y-21297D01*
X65524Y-21104D01*
X65525Y-20896D01*
X65445Y-20703D01*
X65350Y-20607D01*
X65350Y-20392D01*
X65444Y-20297D01*
X65524Y-20104D01*
X65525Y-19896D01*
X65445Y-19703D01*
X65297Y-19555D01*
X65104Y-19475D01*
X64896Y-19474D01*
X64703Y-19554D01*
X64607Y-19650D01*
X63642Y-19650D01*
X63547Y-19555D01*
X63354Y-19475D01*
X63146Y-19474D01*
X62953Y-19554D01*
X62857Y-19650D01*
X61392Y-19650D01*
X61297Y-19555D01*
X61164Y-19499D01*
X61297Y-19445D01*
X61392Y-19350D01*
X61607Y-19350D01*
X61702Y-19444D01*
X61895Y-19524D01*
X62103Y-19525D01*
X62297Y-19445D01*
X62392Y-19350D01*
X63750Y-19350D01*
X63883Y-19323D01*
X63883Y-19323D01*
X63997Y-19247D01*
X64497Y-18747D01*
X64573Y-18633D01*
X64573Y-18633D01*
X64600Y-18500D01*
X64600Y-17750D01*
X64573Y-17616D01*
X64497Y-17502D01*
X64331Y-17336D01*
X64399Y-17349D01*
X64400Y-17350D01*
X64607Y-17350D01*
X64702Y-17444D01*
X64895Y-17524D01*
X65103Y-17525D01*
X65297Y-17445D01*
X65444Y-17297D01*
X65524Y-17104D01*
X65525Y-16896D01*
X65445Y-16703D01*
X65297Y-16555D01*
X65104Y-16475D01*
X64896Y-16474D01*
X64703Y-16554D01*
X64607Y-16650D01*
X64544Y-16650D01*
X62647Y-14752D01*
X62533Y-14676D01*
X62400Y-14650D01*
X44144Y-14650D01*
X44444Y-14350D01*
X56607Y-14350D01*
X56702Y-14444D01*
X56895Y-14524D01*
X57103Y-14525D01*
X57297Y-14445D01*
X57444Y-14297D01*
X57524Y-14104D01*
X57525Y-13896D01*
X57445Y-13703D01*
X57297Y-13555D01*
X57104Y-13475D01*
X56896Y-13474D01*
X56703Y-13554D01*
X56607Y-13650D01*
X44300Y-13650D01*
X44166Y-13676D01*
X44052Y-13752D01*
X43655Y-14150D01*
X42344Y-14150D01*
X42747Y-13747D01*
X42823Y-13633D01*
X42823Y-13633D01*
X42850Y-13500D01*
X42850Y-13427D01*
X42965Y-13311D01*
X43049Y-13109D01*
X43050Y-12891D01*
X42999Y-12769D01*
X67730Y-12769D01*
X67730Y-42230D01*
M02*
