M48
;DRILL file {Pcbnew (2013-mar-13)-testing} date Tue 07 May 2013 12:39:19 CEST
;FORMAT={-:-/ absolute / metric / decimal}
FMAT,2
METRIC,TZ
T1C0.813
T2C1.000
T3C1.016
T4C3.048
%
G90
G05
M71
T1
X60.96Y-48.26
X63.5Y-50.8
X63.5Y-54.61
X63.5Y-62.23
X66.04Y-48.26
X67.31Y-87.63
X67.31Y-90.17
X67.31Y-97.79
X69.85Y-33.655
X69.85Y-43.815
X69.85Y-48.26
X69.85Y-50.8
X69.85Y-53.34
X69.85Y-55.88
X71.755Y-90.17
X71.755Y-95.25
X72.39Y-45.72
X72.39Y-48.26
X72.39Y-50.8
X72.39Y-53.34
X72.39Y-55.88
X74.93Y-87.63
X74.93Y-92.71
X74.93Y-97.79
X77.47Y-85.09
X77.47Y-87.63
X77.47Y-90.17
X77.47Y-92.71
X77.47Y-95.25
X80.01Y-45.72
X80.01Y-48.26
X80.01Y-50.8
X80.01Y-53.34
X80.01Y-55.88
X82.55Y-43.18
X82.55Y-48.26
X82.55Y-53.34
X85.09Y-85.09
X85.09Y-87.63
X85.09Y-90.17
X85.09Y-92.71
X85.09Y-95.25
X85.09Y-97.79
X85.09Y-105.41
X85.725Y-45.72
X85.725Y-50.8
X87.63Y-85.09
X87.63Y-87.63
X87.63Y-90.17
X87.63Y-92.71
X90.17Y-43.18
X90.17Y-50.8
X90.17Y-53.34
X90.805Y-77.47
X90.805Y-85.09
X91.44Y-92.71
X93.98Y-90.17
X94.615Y-78.105
X96.52Y-92.71
X97.155Y-78.105
X99.06Y-48.26
X100.33Y-78.105
X101.6Y-50.8
X101.6Y-54.61
X101.6Y-62.23
X102.87Y-78.105
X104.14Y-48.26
X105.41Y-86.36
X105.41Y-88.9
X105.41Y-96.52
X107.95Y-33.02
X107.95Y-43.18
X107.95Y-48.26
X107.95Y-50.8
X107.95Y-53.34
X107.95Y-55.88
X110.49Y-45.72
X110.49Y-48.26
X110.49Y-50.8
X110.49Y-53.34
X110.49Y-55.88
X110.49Y-88.9
X110.49Y-93.98
X113.03Y-86.36
X113.03Y-91.44
X113.03Y-96.52
X115.57Y-83.82
X115.57Y-86.36
X115.57Y-88.9
X115.57Y-91.44
X115.57Y-93.98
X115.57Y-100.33
X118.11Y-45.72
X118.11Y-48.26
X118.11Y-50.8
X118.11Y-53.34
X118.11Y-55.88
X120.65Y-43.18
X120.65Y-48.26
X120.65Y-53.34
X123.19Y-45.72
X123.19Y-50.8
X123.19Y-83.82
X123.19Y-86.36
X123.19Y-88.9
X123.19Y-91.44
X123.19Y-93.98
X123.19Y-100.33
X125.73Y-83.82
X125.73Y-86.36
X125.73Y-88.9
X125.73Y-91.44
X126.746Y-43.18
X126.746Y-50.8
X128.27Y-53.34
X129.54Y-91.44
X132.08Y-77.47
X132.08Y-85.09
X132.08Y-88.9
X134.62Y-91.44
X135.89Y-48.26
X138.43Y-50.8
X138.43Y-54.61
X138.43Y-62.23
X140.97Y-48.26
X144.78Y-35.56
X144.78Y-43.18
X144.78Y-48.26
X144.78Y-50.8
X144.78Y-53.34
X144.78Y-55.88
X147.32Y-45.72
X147.32Y-48.26
X147.32Y-50.8
X147.32Y-53.34
X147.32Y-55.88
X154.94Y-45.72
X154.94Y-48.26
X154.94Y-50.8
X154.94Y-53.34
X154.94Y-55.88
X157.48Y-43.18
X157.48Y-48.26
X157.48Y-53.34
X160.655Y-45.72
X160.655Y-50.8
X165.1Y-43.18
X165.1Y-50.8
X165.1Y-53.34
T2
X52.07Y-69.215
X63.5Y-48.26
X64.77Y-69.215
X72.39Y-58.42
X92.71Y-74.93
X93.98Y-92.71
X97.79Y-58.42
X97.79Y-62.23
X97.79Y-66.04
X97.79Y-81.28
X100.33Y-68.58
X101.6Y-48.26
X102.87Y-68.58
X105.41Y-68.58
X105.41Y-74.93
X110.49Y-58.42
X110.49Y-68.58
X113.03Y-68.58
X123.19Y-81.28
X132.08Y-91.44
X135.89Y-58.42
X138.43Y-48.26
T3
X46.355Y-57.15
X46.355Y-59.944
X46.355Y-62.687
X46.355Y-65.38
X46.355Y-68.224
X46.355Y-70.968
X46.355Y-73.711
X46.355Y-76.505
X46.355Y-79.248
X46.355Y-81.991
X46.355Y-84.785
X46.355Y-87.325
X48.895Y-55.753
X48.895Y-58.547
X48.895Y-61.341
X48.895Y-64.008
X48.895Y-66.802
X48.895Y-69.596
X48.895Y-72.39
X48.895Y-75.057
X48.895Y-77.851
X48.895Y-80.645
X48.895Y-83.439
X48.895Y-86.106
X48.895Y-88.9
X69.85Y-62.23
X72.39Y-62.23
X85.09Y-77.47
X87.63Y-77.47
X107.95Y-62.23
X110.49Y-62.23
X118.11Y-68.58
X118.11Y-71.12
X123.19Y-77.47
X125.73Y-77.47
X144.78Y-62.23
X147.32Y-62.23
T4
X46.355Y-48.895
X46.355Y-95.885
T0
M30
